%
M48
M72
T01C0.0118
T02C0.0197
%
T01
X11876Y5280
X12876Y5280
X13576Y5480
X14976Y5880
X16276Y3580
X15876Y3280
X18076Y2380
X18776Y2280
X19876Y2780
X20176Y2580
X20876Y5180
X21876Y5180
X22876Y5180
X22876Y9580
X21876Y9580
X20876Y9580
X18376Y11780
X18076Y11780
X19876Y12380
X20176Y12080
X15976Y11280
X15376Y11780
X14976Y12480
X11876Y10980
X12876Y9480
X13576Y9080
X15876Y9880
T02
X15051Y9880
X15051Y9380
X13351Y9880
X12251Y9880
X13351Y11180
X13351Y11680
X11951Y11680
X12851Y12580
X11751Y13180
X16751Y12780
X19051Y11480
X19351Y11080
X20551Y11580
X23051Y12080
X24351Y11380
X25751Y12080
X26251Y12080
X25551Y12580
X22351Y9880
X21351Y9880
X20351Y9380
X19951Y8880
X19151Y9580
X19551Y9980
X18183Y8531
X18151Y7280
X18851Y7180
X19351Y6780
X19851Y6280
X20451Y5780
X21051Y6180
X21451Y6580
X21951Y7080
X22351Y7380
X16551Y5080
X16051Y5180
X15551Y5180
X15451Y5880
X16151Y6580
X14251Y7580
X12451Y8080
X13351Y5080
X15351Y3980
X16551Y3080
X15851Y2180
X15251Y2180
X13451Y3780
X19351Y2580
X22551Y1080
X23051Y1080
X23651Y1080
X24351Y1080
X25051Y1080
X23051Y2080
X25151Y2780
X25651Y2580
X26151Y2580
X25051Y3280
M30
