G75*
%MOIN*%
%OFA0B0*%
%FSLAX24Y24*%
%IPPOS*%
%LPD*%
%AMOC8*
5,1,8,0,0,1.08239X$1,22.5*
%
%ADD10C,0.0000*%
%ADD11R,0.0394X0.0433*%
%ADD12R,0.0433X0.0394*%
%ADD13R,0.0500X0.0500*%
%ADD14C,0.0317*%
%ADD15C,0.0160*%
%ADD16C,0.0238*%
D10*
X010976Y000180D02*
X010976Y013960D01*
X026724Y013960D01*
X026724Y000180D01*
X010976Y000180D01*
D11*
X015516Y012380D03*
X016185Y012380D03*
D12*
X017876Y003765D03*
X017876Y003095D03*
X018826Y003095D03*
X018826Y003765D03*
D13*
X018876Y004505D03*
X019876Y004505D03*
X020876Y004505D03*
X021876Y004505D03*
X022876Y004505D03*
X017876Y004505D03*
X016876Y004505D03*
X015876Y004505D03*
X014876Y004505D03*
X013876Y004505D03*
X012876Y004505D03*
X011876Y004505D03*
X011876Y010505D03*
X012876Y010505D03*
X013876Y010505D03*
X014876Y010505D03*
X015876Y010505D03*
X016876Y010505D03*
X017876Y010505D03*
X018876Y010505D03*
X019876Y010505D03*
X020876Y010505D03*
X021876Y010505D03*
X022876Y010505D03*
D14*
X022351Y009880D03*
X021351Y009880D03*
X020351Y009380D03*
X019951Y008880D03*
X019151Y009580D03*
X019551Y009980D03*
X019351Y011080D03*
X019051Y011480D03*
X020551Y011580D03*
X023051Y012080D03*
X024351Y011380D03*
X025751Y012080D03*
X026251Y012080D03*
X025551Y012580D03*
X018183Y008531D03*
X018151Y007280D03*
X018851Y007180D03*
X019351Y006780D03*
X019851Y006280D03*
X020451Y005780D03*
X021051Y006180D03*
X021451Y006580D03*
X021951Y007080D03*
X022351Y007380D03*
X016551Y005080D03*
X016051Y005180D03*
X015551Y005180D03*
X015451Y005880D03*
X016151Y006580D03*
X014251Y007580D03*
X012451Y008080D03*
X015051Y009380D03*
X015051Y009880D03*
X013351Y009880D03*
X012251Y009880D03*
X013351Y011180D03*
X013351Y011680D03*
X011951Y011680D03*
X012851Y012580D03*
X011751Y013180D03*
X016751Y012780D03*
X013351Y005080D03*
X015351Y003980D03*
X016551Y003080D03*
X015851Y002180D03*
X015251Y002180D03*
X013451Y003780D03*
X019351Y002580D03*
X022551Y001080D03*
X023051Y001080D03*
X023651Y001080D03*
X024351Y001080D03*
X025051Y001080D03*
X023051Y002080D03*
X025151Y002780D03*
X025651Y002580D03*
X026151Y002580D03*
X025051Y003280D03*
D15*
X026444Y003350D02*
X020106Y003350D01*
X020106Y003192D02*
X026444Y003192D01*
X026444Y003033D02*
X020106Y003033D01*
X020106Y002928D02*
X020106Y004105D01*
X020188Y004105D01*
X020276Y004193D01*
X020276Y004817D01*
X020188Y004905D01*
X019563Y004905D01*
X019476Y004817D01*
X019476Y004193D01*
X019563Y004105D01*
X019646Y004105D01*
X019646Y002928D01*
X019607Y002834D01*
X019607Y002726D01*
X019647Y002628D01*
X019723Y002552D01*
X019822Y002511D01*
X019865Y002511D01*
X019931Y002466D01*
X019947Y002428D01*
X020023Y002352D01*
X020122Y002311D01*
X020229Y002311D01*
X020328Y002352D01*
X020404Y002428D01*
X020445Y002526D01*
X020445Y002634D01*
X020404Y002732D01*
X020328Y002808D01*
X020229Y002849D01*
X020187Y002849D01*
X020120Y002894D01*
X020106Y002928D01*
X020148Y002875D02*
X026444Y002875D01*
X026444Y002716D02*
X020410Y002716D01*
X020445Y002558D02*
X026444Y002558D01*
X026444Y002399D02*
X020375Y002399D01*
X020176Y002580D02*
X019876Y002780D01*
X019876Y004505D01*
X020276Y004460D02*
X020476Y004460D01*
X020476Y004618D02*
X020276Y004618D01*
X020276Y004777D02*
X020476Y004777D01*
X020476Y004817D02*
X020476Y004193D01*
X020563Y004105D01*
X021188Y004105D01*
X021276Y004193D01*
X021276Y004817D01*
X021188Y004905D01*
X021106Y004905D01*
X021106Y005032D01*
X021145Y005126D01*
X021145Y005234D01*
X021104Y005332D01*
X021028Y005408D01*
X020929Y005449D01*
X020822Y005449D01*
X020723Y005408D01*
X020647Y005332D01*
X020607Y005234D01*
X020607Y005126D01*
X020646Y005032D01*
X020646Y004905D01*
X020563Y004905D01*
X020476Y004817D01*
X020646Y004935D02*
X015106Y004935D01*
X015106Y004905D02*
X015106Y005643D01*
X015128Y005652D01*
X015204Y005728D01*
X015245Y005826D01*
X015245Y005934D01*
X015204Y006032D01*
X015128Y006108D01*
X015029Y006149D01*
X014922Y006149D01*
X014823Y006108D01*
X014747Y006032D01*
X014708Y005938D01*
X014646Y005875D01*
X014646Y004905D01*
X014563Y004905D01*
X014476Y004817D01*
X014476Y004193D01*
X014563Y004105D01*
X015188Y004105D01*
X015276Y004193D01*
X015276Y004817D01*
X015188Y004905D01*
X015106Y004905D01*
X015106Y005094D02*
X020620Y005094D01*
X020614Y005252D02*
X015106Y005252D01*
X015106Y005411D02*
X020729Y005411D01*
X020876Y005180D02*
X020876Y004505D01*
X021276Y004460D02*
X021476Y004460D01*
X021476Y004618D02*
X021276Y004618D01*
X021276Y004777D02*
X021476Y004777D01*
X021476Y004817D02*
X021476Y004193D01*
X021563Y004105D01*
X022188Y004105D01*
X022276Y004193D01*
X022276Y004817D01*
X022188Y004905D01*
X022106Y004905D01*
X022106Y005032D01*
X022145Y005126D01*
X022145Y005234D01*
X022104Y005332D01*
X022028Y005408D01*
X021929Y005449D01*
X021822Y005449D01*
X021723Y005408D01*
X021647Y005332D01*
X021607Y005234D01*
X021607Y005126D01*
X021646Y005032D01*
X021646Y004905D01*
X021563Y004905D01*
X021476Y004817D01*
X021646Y004935D02*
X021106Y004935D01*
X021131Y005094D02*
X021620Y005094D01*
X021614Y005252D02*
X021137Y005252D01*
X021022Y005411D02*
X021729Y005411D01*
X021876Y005180D02*
X021876Y004505D01*
X022276Y004460D02*
X022476Y004460D01*
X022476Y004618D02*
X022276Y004618D01*
X022276Y004777D02*
X022476Y004777D01*
X022476Y004817D02*
X022476Y004193D01*
X022563Y004105D01*
X023188Y004105D01*
X023276Y004193D01*
X023276Y004817D01*
X023188Y004905D01*
X023106Y004905D01*
X023106Y005032D01*
X023145Y005126D01*
X023145Y005234D01*
X023104Y005332D01*
X023028Y005408D01*
X022929Y005449D01*
X022822Y005449D01*
X022723Y005408D01*
X022647Y005332D01*
X022607Y005234D01*
X022607Y005126D01*
X022646Y005032D01*
X022646Y004905D01*
X022563Y004905D01*
X022476Y004817D01*
X022646Y004935D02*
X022106Y004935D01*
X022131Y005094D02*
X022620Y005094D01*
X022614Y005252D02*
X022137Y005252D01*
X022022Y005411D02*
X022729Y005411D01*
X022876Y005180D02*
X022876Y004505D01*
X023276Y004460D02*
X026444Y004460D01*
X026444Y004618D02*
X023276Y004618D01*
X023276Y004777D02*
X026444Y004777D01*
X026444Y004935D02*
X023106Y004935D01*
X023131Y005094D02*
X026444Y005094D01*
X026444Y005252D02*
X023137Y005252D01*
X023022Y005411D02*
X026444Y005411D01*
X026444Y005569D02*
X015106Y005569D01*
X015204Y005728D02*
X026444Y005728D01*
X026444Y005886D02*
X015245Y005886D01*
X015192Y006045D02*
X026444Y006045D01*
X026444Y006203D02*
X011256Y006203D01*
X011256Y006045D02*
X014760Y006045D01*
X014656Y005886D02*
X011256Y005886D01*
X011256Y005728D02*
X013470Y005728D01*
X013423Y005708D02*
X013522Y005749D01*
X013629Y005749D01*
X013728Y005708D01*
X013804Y005632D01*
X013843Y005538D01*
X013971Y005410D01*
X014106Y005275D01*
X014106Y004905D01*
X014188Y004905D01*
X014276Y004817D01*
X014276Y004193D01*
X014188Y004105D01*
X013563Y004105D01*
X013476Y004193D01*
X013476Y004817D01*
X013563Y004905D01*
X013646Y004905D01*
X013646Y005085D01*
X013517Y005213D01*
X013423Y005252D01*
X013145Y005252D01*
X013145Y005226D02*
X013106Y005132D01*
X013106Y004905D01*
X013188Y004905D01*
X013276Y004817D01*
X013276Y004193D01*
X013188Y004105D01*
X012563Y004105D01*
X012476Y004193D01*
X012476Y004817D01*
X012563Y004905D01*
X012646Y004905D01*
X012646Y005132D01*
X012607Y005226D01*
X012607Y005334D01*
X012647Y005432D01*
X012723Y005508D01*
X012822Y005549D01*
X012929Y005549D01*
X013028Y005508D01*
X013104Y005432D01*
X013145Y005334D01*
X013145Y005226D01*
X013106Y005094D02*
X013637Y005094D01*
X013646Y004935D02*
X013106Y004935D01*
X013276Y004777D02*
X013476Y004777D01*
X013476Y004618D02*
X013276Y004618D01*
X013276Y004460D02*
X013476Y004460D01*
X013476Y004301D02*
X013276Y004301D01*
X013225Y004143D02*
X013526Y004143D01*
X013876Y004505D02*
X013876Y005180D01*
X013576Y005480D01*
X013681Y005728D02*
X014646Y005728D01*
X014646Y005569D02*
X013830Y005569D01*
X013970Y005411D02*
X014646Y005411D01*
X014646Y005252D02*
X014106Y005252D01*
X014106Y005094D02*
X014646Y005094D01*
X014646Y004935D02*
X014106Y004935D01*
X014276Y004777D02*
X014476Y004777D01*
X014476Y004618D02*
X014276Y004618D01*
X014276Y004460D02*
X014476Y004460D01*
X014476Y004301D02*
X014276Y004301D01*
X014225Y004143D02*
X014526Y004143D01*
X014876Y004505D02*
X014876Y005780D01*
X014976Y005880D01*
X015563Y004905D02*
X015476Y004817D01*
X015476Y004193D01*
X015563Y004105D01*
X015646Y004105D01*
X015646Y003428D01*
X015607Y003334D01*
X015607Y003226D01*
X015647Y003128D01*
X015723Y003052D01*
X015822Y003011D01*
X015929Y003011D01*
X016028Y003052D01*
X016104Y003128D01*
X016145Y003226D01*
X016145Y003334D01*
X016140Y003345D01*
X016222Y003311D01*
X016329Y003311D01*
X016428Y003352D01*
X016504Y003428D01*
X016545Y003526D01*
X016545Y003634D01*
X016506Y003728D01*
X016506Y003810D01*
X016801Y004105D01*
X017188Y004105D01*
X017276Y004193D01*
X017276Y004817D01*
X017188Y004905D01*
X016563Y004905D01*
X016476Y004817D01*
X016476Y004430D01*
X016276Y004230D01*
X016276Y004817D01*
X016188Y004905D01*
X015563Y004905D01*
X015476Y004777D02*
X015276Y004777D01*
X015276Y004618D02*
X015476Y004618D01*
X015476Y004460D02*
X015276Y004460D01*
X015276Y004301D02*
X015476Y004301D01*
X015526Y004143D02*
X015225Y004143D01*
X015646Y003984D02*
X011256Y003984D01*
X011256Y003826D02*
X015646Y003826D01*
X015646Y003667D02*
X011256Y003667D01*
X011256Y003509D02*
X015646Y003509D01*
X015613Y003350D02*
X011256Y003350D01*
X011256Y003192D02*
X015621Y003192D01*
X015769Y003033D02*
X011256Y003033D01*
X011256Y002875D02*
X017509Y002875D01*
X017509Y002836D02*
X017597Y002749D01*
X017846Y002749D01*
X017846Y002528D01*
X017807Y002434D01*
X017807Y002326D01*
X017847Y002228D01*
X017923Y002152D01*
X018022Y002111D01*
X018129Y002111D01*
X018228Y002152D01*
X018304Y002228D01*
X018345Y002326D01*
X018345Y002434D01*
X018306Y002528D01*
X018306Y002991D01*
X018242Y003054D01*
X018242Y003354D01*
X018166Y003430D01*
X018242Y003506D01*
X018242Y004024D01*
X018161Y004105D01*
X018188Y004105D01*
X018276Y004193D01*
X018276Y004817D01*
X018188Y004905D01*
X017563Y004905D01*
X017476Y004817D01*
X017476Y004193D01*
X017563Y004105D01*
X017590Y004105D01*
X017509Y004024D01*
X017509Y003506D01*
X017585Y003430D01*
X017509Y003354D01*
X017509Y002836D01*
X017509Y003033D02*
X015982Y003033D01*
X016130Y003192D02*
X017509Y003192D01*
X017509Y003350D02*
X016423Y003350D01*
X016537Y003509D02*
X017509Y003509D01*
X017509Y003667D02*
X016531Y003667D01*
X016521Y003826D02*
X017509Y003826D01*
X017509Y003984D02*
X016680Y003984D01*
X016276Y003905D02*
X016276Y003580D01*
X016276Y003905D02*
X016876Y004505D01*
X017276Y004460D02*
X017476Y004460D01*
X017476Y004618D02*
X017276Y004618D01*
X017276Y004777D02*
X017476Y004777D01*
X017876Y004505D02*
X017876Y003765D01*
X018242Y003826D02*
X018459Y003826D01*
X018459Y003984D02*
X018242Y003984D01*
X018225Y004143D02*
X018526Y004143D01*
X018547Y004111D02*
X018459Y004024D01*
X018459Y003506D01*
X018535Y003430D01*
X018459Y003354D01*
X018459Y002836D01*
X018546Y002750D01*
X018546Y002428D01*
X018507Y002334D01*
X018507Y002226D01*
X018547Y002128D01*
X018623Y002052D01*
X018722Y002011D01*
X018829Y002011D01*
X018928Y002052D01*
X019004Y002128D01*
X019045Y002226D01*
X019045Y002334D01*
X019006Y002428D01*
X019006Y002749D01*
X019104Y002749D01*
X019192Y002836D01*
X019192Y003354D01*
X019116Y003430D01*
X019192Y003506D01*
X019192Y004024D01*
X019111Y004105D01*
X019188Y004105D01*
X019276Y004193D01*
X019276Y004817D01*
X019188Y004905D01*
X018563Y004905D01*
X018476Y004817D01*
X018476Y004193D01*
X018557Y004111D01*
X018547Y004111D01*
X018476Y004301D02*
X018276Y004301D01*
X018276Y004460D02*
X018476Y004460D01*
X018476Y004618D02*
X018276Y004618D01*
X018276Y004777D02*
X018476Y004777D01*
X018826Y004455D02*
X018876Y004505D01*
X018826Y004455D02*
X018826Y003765D01*
X019192Y003826D02*
X019646Y003826D01*
X019646Y003984D02*
X019192Y003984D01*
X019225Y004143D02*
X019526Y004143D01*
X019476Y004301D02*
X019276Y004301D01*
X019276Y004460D02*
X019476Y004460D01*
X019476Y004618D02*
X019276Y004618D01*
X019276Y004777D02*
X019476Y004777D01*
X020276Y004301D02*
X020476Y004301D01*
X020526Y004143D02*
X020225Y004143D01*
X020106Y003984D02*
X026444Y003984D01*
X026444Y003826D02*
X020106Y003826D01*
X020106Y003667D02*
X026444Y003667D01*
X026444Y003509D02*
X020106Y003509D01*
X019646Y003509D02*
X019192Y003509D01*
X019192Y003667D02*
X019646Y003667D01*
X019646Y003350D02*
X019192Y003350D01*
X019192Y003192D02*
X019646Y003192D01*
X019646Y003033D02*
X019192Y003033D01*
X019192Y002875D02*
X019624Y002875D01*
X019611Y002716D02*
X019006Y002716D01*
X019006Y002558D02*
X019718Y002558D01*
X019976Y002399D02*
X019018Y002399D01*
X019045Y002241D02*
X026444Y002241D01*
X026444Y002082D02*
X018958Y002082D01*
X018776Y002280D02*
X018776Y003045D01*
X018826Y003095D01*
X018459Y003033D02*
X018263Y003033D01*
X018242Y003192D02*
X018459Y003192D01*
X018459Y003350D02*
X018242Y003350D01*
X018242Y003509D02*
X018459Y003509D01*
X018459Y003667D02*
X018242Y003667D01*
X017876Y003095D02*
X018076Y002895D01*
X018076Y002380D01*
X018345Y002399D02*
X018534Y002399D01*
X018546Y002558D02*
X018306Y002558D01*
X018306Y002716D02*
X018546Y002716D01*
X018459Y002875D02*
X018306Y002875D01*
X017846Y002716D02*
X011256Y002716D01*
X011256Y002558D02*
X017846Y002558D01*
X017807Y002399D02*
X011256Y002399D01*
X011256Y002241D02*
X017842Y002241D01*
X018309Y002241D02*
X018507Y002241D01*
X018593Y002082D02*
X011256Y002082D01*
X011256Y001924D02*
X026444Y001924D01*
X026444Y001765D02*
X011256Y001765D01*
X011256Y001607D02*
X026444Y001607D01*
X026444Y001448D02*
X011256Y001448D01*
X011256Y001290D02*
X026444Y001290D01*
X026444Y001131D02*
X011256Y001131D01*
X011256Y000973D02*
X026444Y000973D01*
X026444Y000814D02*
X011256Y000814D01*
X011256Y000656D02*
X026444Y000656D01*
X026444Y000497D02*
X011256Y000497D01*
X011256Y000460D02*
X011256Y013680D01*
X026444Y013680D01*
X026444Y000460D01*
X011256Y000460D01*
X015876Y003280D02*
X015876Y004505D01*
X016276Y004460D02*
X016476Y004460D01*
X016476Y004618D02*
X016276Y004618D01*
X016276Y004777D02*
X016476Y004777D01*
X016346Y004301D02*
X016276Y004301D01*
X017225Y004143D02*
X017526Y004143D01*
X017476Y004301D02*
X017276Y004301D01*
X021225Y004143D02*
X021526Y004143D01*
X021476Y004301D02*
X021276Y004301D01*
X022225Y004143D02*
X022526Y004143D01*
X022476Y004301D02*
X022276Y004301D01*
X023225Y004143D02*
X026444Y004143D01*
X026444Y004301D02*
X023276Y004301D01*
X026444Y006362D02*
X011256Y006362D01*
X011256Y006520D02*
X026444Y006520D01*
X026444Y006679D02*
X011256Y006679D01*
X011256Y006837D02*
X026444Y006837D01*
X026444Y006996D02*
X011256Y006996D01*
X011256Y007154D02*
X026444Y007154D01*
X026444Y007313D02*
X011256Y007313D01*
X011256Y007471D02*
X026444Y007471D01*
X026444Y007630D02*
X011256Y007630D01*
X011256Y007788D02*
X026444Y007788D01*
X026444Y007947D02*
X011256Y007947D01*
X011256Y008105D02*
X026444Y008105D01*
X026444Y008264D02*
X011256Y008264D01*
X011256Y008422D02*
X026444Y008422D01*
X026444Y008581D02*
X011256Y008581D01*
X011256Y008739D02*
X026444Y008739D01*
X026444Y008898D02*
X014001Y008898D01*
X013990Y008884D02*
X014045Y008949D01*
X014106Y009010D01*
X014106Y009021D01*
X014113Y009029D01*
X014106Y009115D01*
X014106Y010105D01*
X014188Y010105D01*
X014276Y010193D01*
X014276Y010817D01*
X014188Y010905D01*
X013563Y010905D01*
X013476Y010817D01*
X013476Y010193D01*
X013563Y010105D01*
X013646Y010105D01*
X013646Y009342D01*
X013629Y009349D01*
X013522Y009349D01*
X013423Y009308D01*
X013347Y009232D01*
X013307Y009134D01*
X013307Y009026D01*
X013347Y008928D01*
X013423Y008852D01*
X013522Y008811D01*
X013629Y008811D01*
X013728Y008852D01*
X013739Y008863D01*
X013885Y008875D01*
X013971Y008875D01*
X013979Y008883D01*
X013990Y008884D01*
X014110Y009056D02*
X026444Y009056D01*
X026444Y009215D02*
X014106Y009215D01*
X014106Y009373D02*
X020702Y009373D01*
X020723Y009352D02*
X020822Y009311D01*
X020929Y009311D01*
X021028Y009352D01*
X021104Y009428D01*
X021145Y009526D01*
X021145Y009634D01*
X021106Y009728D01*
X021106Y010105D01*
X021188Y010105D01*
X021276Y010193D01*
X021276Y010817D01*
X021188Y010905D01*
X020563Y010905D01*
X020476Y010817D01*
X020476Y010193D01*
X020563Y010105D01*
X020646Y010105D01*
X020646Y009728D01*
X020607Y009634D01*
X020607Y009526D01*
X020647Y009428D01*
X020723Y009352D01*
X020607Y009532D02*
X014106Y009532D01*
X014106Y009690D02*
X015685Y009690D01*
X015647Y009728D02*
X015723Y009652D01*
X015822Y009611D01*
X015929Y009611D01*
X016028Y009652D01*
X016104Y009728D01*
X016113Y009750D01*
X018771Y009750D01*
X018971Y009950D01*
X019106Y010085D01*
X019106Y010105D01*
X019188Y010105D01*
X019276Y010193D01*
X019276Y010817D01*
X019188Y010905D01*
X018563Y010905D01*
X018476Y010817D01*
X018476Y010210D01*
X018276Y010210D01*
X018276Y010817D01*
X018188Y010905D01*
X017801Y010905D01*
X016532Y012174D01*
X016532Y012659D01*
X016444Y012747D01*
X015926Y012747D01*
X015851Y012671D01*
X015775Y012747D01*
X015257Y012747D01*
X015220Y012710D01*
X015123Y012710D01*
X015029Y012749D01*
X014922Y012749D01*
X014823Y012708D01*
X014747Y012632D01*
X014707Y012534D01*
X014707Y012426D01*
X014747Y012328D01*
X014823Y012252D01*
X014922Y012211D01*
X015029Y012211D01*
X015123Y012250D01*
X015169Y012250D01*
X015169Y012101D01*
X015251Y012020D01*
X015223Y012008D01*
X015147Y011932D01*
X015107Y011834D01*
X015107Y011726D01*
X015147Y011628D01*
X015223Y011552D01*
X015246Y011543D01*
X015246Y010890D01*
X015236Y010899D01*
X015195Y010923D01*
X015149Y010935D01*
X014921Y010935D01*
X014921Y010550D01*
X015306Y010550D01*
X015306Y010779D01*
X015293Y010824D01*
X015276Y010854D01*
X015380Y010750D01*
X015476Y010655D01*
X015476Y010193D01*
X015563Y010105D01*
X015720Y010105D01*
X015647Y010032D01*
X015607Y009934D01*
X015607Y009826D01*
X015647Y009728D01*
X015607Y009849D02*
X014106Y009849D01*
X014106Y010007D02*
X015637Y010007D01*
X015503Y010166D02*
X015282Y010166D01*
X015293Y010186D02*
X015306Y010231D01*
X015306Y010460D01*
X014921Y010460D01*
X014921Y010550D01*
X014831Y010550D01*
X014831Y010935D01*
X014602Y010935D01*
X014556Y010923D01*
X014515Y010899D01*
X014482Y010866D01*
X014458Y010824D01*
X014446Y010779D01*
X014446Y010550D01*
X014831Y010550D01*
X014831Y010460D01*
X014921Y010460D01*
X014921Y010075D01*
X015149Y010075D01*
X015195Y010087D01*
X015236Y010111D01*
X015270Y010144D01*
X015293Y010186D01*
X015306Y010324D02*
X015476Y010324D01*
X015476Y010483D02*
X014921Y010483D01*
X014831Y010483D02*
X014276Y010483D01*
X014276Y010641D02*
X014446Y010641D01*
X014451Y010800D02*
X014276Y010800D01*
X014446Y010460D02*
X014446Y010231D01*
X014458Y010186D01*
X014482Y010144D01*
X014515Y010111D01*
X014556Y010087D01*
X014602Y010075D01*
X014831Y010075D01*
X014831Y010460D01*
X014446Y010460D01*
X014446Y010324D02*
X014276Y010324D01*
X014248Y010166D02*
X014469Y010166D01*
X014831Y010166D02*
X014921Y010166D01*
X014921Y010324D02*
X014831Y010324D01*
X014831Y010641D02*
X014921Y010641D01*
X014921Y010800D02*
X014831Y010800D01*
X015246Y010958D02*
X012145Y010958D01*
X012145Y010926D02*
X012145Y011034D01*
X012104Y011132D01*
X012028Y011208D01*
X011929Y011249D01*
X011822Y011249D01*
X011723Y011208D01*
X011647Y011132D01*
X011607Y011034D01*
X011607Y010926D01*
X011615Y010905D01*
X011563Y010905D01*
X011476Y010817D01*
X011476Y010193D01*
X011563Y010105D01*
X012188Y010105D01*
X012276Y010193D01*
X012276Y010817D01*
X012188Y010905D01*
X012136Y010905D01*
X012145Y010926D01*
X012276Y010800D02*
X012476Y010800D01*
X012476Y010817D02*
X012476Y010193D01*
X012563Y010105D01*
X012646Y010105D01*
X012646Y009628D01*
X012607Y009534D01*
X012607Y009426D01*
X012647Y009328D01*
X012723Y009252D01*
X012822Y009211D01*
X012929Y009211D01*
X013028Y009252D01*
X013104Y009328D01*
X013145Y009426D01*
X013145Y009534D01*
X013106Y009628D01*
X013106Y010105D01*
X013188Y010105D01*
X013276Y010193D01*
X013276Y010817D01*
X013188Y010905D01*
X012563Y010905D01*
X012476Y010817D01*
X012476Y010641D02*
X012276Y010641D01*
X012276Y010483D02*
X012476Y010483D01*
X012476Y010324D02*
X012276Y010324D01*
X012248Y010166D02*
X012503Y010166D01*
X012646Y010007D02*
X011256Y010007D01*
X011256Y009849D02*
X012646Y009849D01*
X012646Y009690D02*
X011256Y009690D01*
X011256Y009532D02*
X012607Y009532D01*
X012629Y009373D02*
X011256Y009373D01*
X011256Y009215D02*
X012813Y009215D01*
X012938Y009215D02*
X013340Y009215D01*
X013307Y009056D02*
X011256Y009056D01*
X011256Y008898D02*
X013378Y008898D01*
X013576Y009080D02*
X013876Y009105D01*
X013876Y010505D01*
X013476Y010483D02*
X013276Y010483D01*
X013276Y010641D02*
X013476Y010641D01*
X013476Y010800D02*
X013276Y010800D01*
X012876Y010505D02*
X012876Y009480D01*
X013122Y009373D02*
X013646Y009373D01*
X013646Y009532D02*
X013145Y009532D01*
X013106Y009690D02*
X013646Y009690D01*
X013646Y009849D02*
X013106Y009849D01*
X013106Y010007D02*
X013646Y010007D01*
X013503Y010166D02*
X013248Y010166D01*
X013276Y010324D02*
X013476Y010324D01*
X012110Y011117D02*
X015246Y011117D01*
X015246Y011275D02*
X011256Y011275D01*
X011256Y011117D02*
X011641Y011117D01*
X011607Y010958D02*
X011256Y010958D01*
X011256Y010800D02*
X011476Y010800D01*
X011476Y010641D02*
X011256Y010641D01*
X011256Y010483D02*
X011476Y010483D01*
X011476Y010324D02*
X011256Y010324D01*
X011256Y010166D02*
X011503Y010166D01*
X011876Y010505D02*
X011876Y010980D01*
X011256Y011434D02*
X015246Y011434D01*
X015183Y011592D02*
X011256Y011592D01*
X011256Y011751D02*
X015107Y011751D01*
X015138Y011909D02*
X011256Y011909D01*
X011256Y012068D02*
X015203Y012068D01*
X015169Y012226D02*
X015065Y012226D01*
X014886Y012226D02*
X011256Y012226D01*
X011256Y012385D02*
X014724Y012385D01*
X014710Y012543D02*
X011256Y012543D01*
X011256Y012702D02*
X014817Y012702D01*
X014976Y012480D02*
X015416Y012480D01*
X015516Y012380D01*
X015820Y012702D02*
X015881Y012702D01*
X016185Y012380D02*
X016185Y012195D01*
X017876Y010505D01*
X018276Y010483D02*
X018476Y010483D01*
X018476Y010641D02*
X018276Y010641D01*
X018276Y010800D02*
X018476Y010800D01*
X018876Y010505D02*
X018876Y010180D01*
X018676Y009980D01*
X015976Y009980D01*
X015876Y009880D01*
X016066Y009690D02*
X020630Y009690D01*
X020646Y009849D02*
X018869Y009849D01*
X019028Y010007D02*
X020646Y010007D01*
X020503Y010166D02*
X020282Y010166D01*
X020293Y010186D02*
X020306Y010231D01*
X020306Y010460D01*
X019921Y010460D01*
X019921Y010550D01*
X020306Y010550D01*
X020306Y010779D01*
X020293Y010824D01*
X020270Y010866D01*
X020236Y010899D01*
X020195Y010923D01*
X020149Y010935D01*
X019921Y010935D01*
X019921Y010550D01*
X019831Y010550D01*
X019831Y010935D01*
X019602Y010935D01*
X019556Y010923D01*
X019515Y010899D01*
X019482Y010866D01*
X019458Y010824D01*
X019446Y010779D01*
X019446Y010550D01*
X019831Y010550D01*
X019831Y010460D01*
X019921Y010460D01*
X019921Y010075D01*
X020149Y010075D01*
X020195Y010087D01*
X020236Y010111D01*
X020270Y010144D01*
X020293Y010186D01*
X020306Y010324D02*
X020476Y010324D01*
X020476Y010483D02*
X019921Y010483D01*
X019831Y010483D02*
X019276Y010483D01*
X019276Y010641D02*
X019446Y010641D01*
X019451Y010800D02*
X019276Y010800D01*
X019446Y010460D02*
X019446Y010231D01*
X019458Y010186D01*
X019482Y010144D01*
X019515Y010111D01*
X019556Y010087D01*
X019602Y010075D01*
X019831Y010075D01*
X019831Y010460D01*
X019446Y010460D01*
X019446Y010324D02*
X019276Y010324D01*
X019248Y010166D02*
X019469Y010166D01*
X019831Y010166D02*
X019921Y010166D01*
X019921Y010324D02*
X019831Y010324D01*
X019831Y010641D02*
X019921Y010641D01*
X019921Y010800D02*
X019831Y010800D01*
X020300Y010800D02*
X020476Y010800D01*
X020476Y010641D02*
X020306Y010641D01*
X020876Y010505D02*
X020876Y009580D01*
X021121Y009690D02*
X021630Y009690D01*
X021646Y009728D02*
X021607Y009634D01*
X021607Y009526D01*
X021647Y009428D01*
X021723Y009352D01*
X021822Y009311D01*
X021929Y009311D01*
X022028Y009352D01*
X022104Y009428D01*
X022145Y009526D01*
X022145Y009634D01*
X022106Y009728D01*
X022106Y010105D01*
X022188Y010105D01*
X022276Y010193D01*
X022276Y010817D01*
X022188Y010905D01*
X021563Y010905D01*
X021476Y010817D01*
X021476Y010193D01*
X021563Y010105D01*
X021646Y010105D01*
X021646Y009728D01*
X021646Y009849D02*
X021106Y009849D01*
X021106Y010007D02*
X021646Y010007D01*
X021503Y010166D02*
X021248Y010166D01*
X021276Y010324D02*
X021476Y010324D01*
X021476Y010483D02*
X021276Y010483D01*
X021276Y010641D02*
X021476Y010641D01*
X021476Y010800D02*
X021276Y010800D01*
X021876Y010505D02*
X021876Y009580D01*
X022121Y009690D02*
X022630Y009690D01*
X022646Y009728D02*
X022607Y009634D01*
X022607Y009526D01*
X022647Y009428D01*
X022723Y009352D01*
X022822Y009311D01*
X022929Y009311D01*
X023028Y009352D01*
X023104Y009428D01*
X023145Y009526D01*
X023145Y009634D01*
X023106Y009728D01*
X023106Y010105D01*
X023188Y010105D01*
X023276Y010193D01*
X023276Y010817D01*
X023188Y010905D01*
X022563Y010905D01*
X022476Y010817D01*
X022476Y010193D01*
X022563Y010105D01*
X022646Y010105D01*
X022646Y009728D01*
X022646Y009849D02*
X022106Y009849D01*
X022106Y010007D02*
X022646Y010007D01*
X022503Y010166D02*
X022248Y010166D01*
X022276Y010324D02*
X022476Y010324D01*
X022476Y010483D02*
X022276Y010483D01*
X022276Y010641D02*
X022476Y010641D01*
X022476Y010800D02*
X022276Y010800D01*
X022876Y010505D02*
X022876Y009580D01*
X023121Y009690D02*
X026444Y009690D01*
X026444Y009532D02*
X023145Y009532D01*
X023049Y009373D02*
X026444Y009373D01*
X026444Y009849D02*
X023106Y009849D01*
X023106Y010007D02*
X026444Y010007D01*
X026444Y010166D02*
X023248Y010166D01*
X023276Y010324D02*
X026444Y010324D01*
X026444Y010483D02*
X023276Y010483D01*
X023276Y010641D02*
X026444Y010641D01*
X026444Y010800D02*
X023276Y010800D01*
X022607Y009532D02*
X022145Y009532D01*
X022049Y009373D02*
X022702Y009373D01*
X021702Y009373D02*
X021049Y009373D01*
X021145Y009532D02*
X021607Y009532D01*
X018476Y010324D02*
X018276Y010324D01*
X017748Y010958D02*
X026444Y010958D01*
X026444Y011117D02*
X017589Y011117D01*
X017431Y011275D02*
X026444Y011275D01*
X026444Y011434D02*
X017272Y011434D01*
X017114Y011592D02*
X017883Y011592D01*
X017847Y011628D02*
X017923Y011552D01*
X018022Y011511D01*
X018129Y011511D01*
X018223Y011550D01*
X018228Y011550D01*
X018322Y011511D01*
X018429Y011511D01*
X018528Y011552D01*
X018604Y011628D01*
X018643Y011722D01*
X019071Y012150D01*
X019728Y012150D01*
X019817Y012113D01*
X019908Y012022D01*
X019947Y011928D01*
X020023Y011852D01*
X020122Y011811D01*
X020229Y011811D01*
X020328Y011852D01*
X020404Y011928D01*
X020445Y012026D01*
X020445Y012134D01*
X020404Y012232D01*
X020328Y012308D01*
X020234Y012347D01*
X020143Y012438D01*
X020104Y012532D01*
X020028Y012608D01*
X019929Y012649D01*
X019822Y012649D01*
X019728Y012610D01*
X018880Y012610D01*
X018317Y012047D01*
X018228Y012010D01*
X018223Y012010D01*
X018129Y012049D01*
X018022Y012049D01*
X017923Y012008D01*
X017847Y011932D01*
X017807Y011834D01*
X017807Y011726D01*
X017847Y011628D01*
X017807Y011751D02*
X016955Y011751D01*
X016797Y011909D02*
X017838Y011909D01*
X018076Y011780D02*
X018376Y011780D01*
X018976Y012380D01*
X019876Y012380D01*
X020176Y012080D01*
X020445Y012068D02*
X026444Y012068D01*
X026444Y012226D02*
X020406Y012226D01*
X020196Y012385D02*
X026444Y012385D01*
X026444Y012543D02*
X020093Y012543D01*
X019863Y012068D02*
X018988Y012068D01*
X018830Y011909D02*
X019966Y011909D01*
X020385Y011909D02*
X026444Y011909D01*
X026444Y011751D02*
X018671Y011751D01*
X018568Y011592D02*
X026444Y011592D01*
X026444Y012702D02*
X016489Y012702D01*
X016532Y012543D02*
X018813Y012543D01*
X018655Y012385D02*
X016532Y012385D01*
X016532Y012226D02*
X018496Y012226D01*
X018338Y012068D02*
X016638Y012068D01*
X016101Y011280D02*
X015976Y011280D01*
X016101Y011280D02*
X016876Y010505D01*
X015876Y010505D02*
X015876Y010580D01*
X015476Y010980D01*
X015476Y011680D01*
X015376Y011780D01*
X015331Y010800D02*
X015300Y010800D01*
X015306Y010641D02*
X015476Y010641D01*
X011256Y012860D02*
X026444Y012860D01*
X026444Y013019D02*
X011256Y013019D01*
X011256Y013177D02*
X026444Y013177D01*
X026444Y013336D02*
X011256Y013336D01*
X011256Y013494D02*
X026444Y013494D01*
X026444Y013653D02*
X011256Y013653D01*
X011256Y005569D02*
X013321Y005569D01*
X013307Y005534D02*
X013307Y005426D01*
X013347Y005328D01*
X013423Y005252D01*
X013313Y005411D02*
X013113Y005411D01*
X013307Y005534D02*
X013347Y005632D01*
X013423Y005708D01*
X012876Y005280D02*
X012876Y004505D01*
X012476Y004460D02*
X012276Y004460D01*
X012276Y004618D02*
X012476Y004618D01*
X012476Y004777D02*
X012276Y004777D01*
X012276Y004817D02*
X012188Y004905D01*
X012106Y004905D01*
X012106Y005132D01*
X012145Y005226D01*
X012145Y005334D01*
X012104Y005432D01*
X012028Y005508D01*
X011929Y005549D01*
X011822Y005549D01*
X011723Y005508D01*
X011647Y005432D01*
X011607Y005334D01*
X011607Y005226D01*
X011646Y005132D01*
X011646Y004905D01*
X011563Y004905D01*
X011476Y004817D01*
X011476Y004193D01*
X011563Y004105D01*
X012188Y004105D01*
X012276Y004193D01*
X012276Y004817D01*
X012106Y004935D02*
X012646Y004935D01*
X012646Y005094D02*
X012106Y005094D01*
X012145Y005252D02*
X012607Y005252D01*
X012638Y005411D02*
X012113Y005411D01*
X011876Y005280D02*
X011876Y004505D01*
X011476Y004460D02*
X011256Y004460D01*
X011256Y004618D02*
X011476Y004618D01*
X011476Y004777D02*
X011256Y004777D01*
X011256Y004935D02*
X011646Y004935D01*
X011646Y005094D02*
X011256Y005094D01*
X011256Y005252D02*
X011607Y005252D01*
X011638Y005411D02*
X011256Y005411D01*
X011256Y004301D02*
X011476Y004301D01*
X011526Y004143D02*
X011256Y004143D01*
X012225Y004143D02*
X012526Y004143D01*
X012476Y004301D02*
X012276Y004301D01*
D16*
X011876Y005280D03*
X012876Y005280D03*
X013576Y005480D03*
X014976Y005880D03*
X016276Y003580D03*
X015876Y003280D03*
X018076Y002380D03*
X018776Y002280D03*
X019876Y002780D03*
X020176Y002580D03*
X020876Y005180D03*
X021876Y005180D03*
X022876Y005180D03*
X022876Y009580D03*
X021876Y009580D03*
X020876Y009580D03*
X018376Y011780D03*
X018076Y011780D03*
X019876Y012380D03*
X020176Y012080D03*
X015976Y011280D03*
X015376Y011780D03*
X014976Y012480D03*
X011876Y010980D03*
X012876Y009480D03*
X013576Y009080D03*
X015876Y009880D03*
M02*
