G75*
%MOIN*%
%OFA0B0*%
%FSLAX24Y24*%
%IPPOS*%
%LPD*%
%AMOC8*
5,1,8,0,0,1.08239X$1,22.5*
%
%ADD10C,0.0000*%
%ADD11R,0.0394X0.0433*%
%ADD12R,0.0630X0.0197*%
%ADD13R,0.0630X0.1378*%
%ADD14R,0.0433X0.0394*%
%ADD15R,0.0512X0.0591*%
%ADD16R,0.1614X0.0827*%
%ADD17R,0.0660X0.0320*%
D10*
X010976Y000180D02*
X010976Y013960D01*
X026724Y013960D01*
X026724Y000180D01*
X010976Y000180D01*
D11*
X018376Y004245D03*
X018376Y004915D03*
X015760Y007605D03*
X015091Y007605D03*
X018401Y009370D03*
X018401Y010040D03*
X018376Y010645D03*
X018376Y011315D03*
D12*
X017400Y011364D03*
X017400Y011758D03*
X017400Y012152D03*
X017400Y012545D03*
X014251Y012545D03*
X014251Y012152D03*
X014251Y011758D03*
X014251Y011364D03*
X014251Y009396D03*
X014251Y009002D03*
X014251Y008608D03*
X014251Y008215D03*
X014226Y006695D03*
X014226Y006302D03*
X014226Y005908D03*
X014226Y005514D03*
X017375Y005514D03*
X017375Y005908D03*
X017375Y006302D03*
X017375Y006695D03*
X017400Y008215D03*
X017400Y008608D03*
X017400Y009002D03*
X017400Y009396D03*
X017375Y003546D03*
X017375Y003152D03*
X017375Y002758D03*
X017375Y002365D03*
X014226Y002365D03*
X014226Y002758D03*
X014226Y003152D03*
X014226Y003546D03*
D13*
X014226Y004530D03*
X017375Y004530D03*
X017400Y010380D03*
X014251Y010380D03*
D14*
X019941Y013180D03*
X020610Y013180D03*
X020085Y001130D03*
X019416Y001130D03*
D15*
X019466Y001955D03*
X020135Y001955D03*
D16*
X021692Y002055D03*
X024409Y002055D03*
X024384Y012055D03*
X021667Y012055D03*
D17*
X025776Y011480D03*
X025776Y010992D03*
X025776Y010504D03*
X025776Y010015D03*
X025776Y009527D03*
X025776Y009039D03*
X025776Y008551D03*
X025776Y008063D03*
X025776Y007574D03*
X025776Y007086D03*
X025776Y006598D03*
X025776Y006110D03*
X025776Y005622D03*
X025776Y005134D03*
X025776Y004645D03*
X025776Y004157D03*
X025776Y003669D03*
X025776Y003181D03*
M02*
