G75*
%MOIN*%
%OFA0B0*%
%FSLAX24Y24*%
%IPPOS*%
%LPD*%
%AMOC8*
5,1,8,0,0,1.08239X$1,22.5*
%
%ADD10C,0.0000*%
%ADD11C,0.0050*%
%ADD12C,0.0040*%
D10*
X010976Y000180D02*
X010976Y013960D01*
X026724Y013960D01*
X026724Y000180D01*
X010976Y000180D01*
D11*
X014816Y002168D02*
X016785Y002168D01*
X016785Y006892D01*
X014816Y006892D01*
X014816Y002168D01*
X016194Y002561D02*
X016196Y002588D01*
X016202Y002615D01*
X016211Y002641D01*
X016224Y002665D01*
X016240Y002688D01*
X016259Y002707D01*
X016281Y002724D01*
X016305Y002738D01*
X016330Y002748D01*
X016357Y002755D01*
X016384Y002758D01*
X016412Y002757D01*
X016439Y002752D01*
X016465Y002744D01*
X016489Y002732D01*
X016512Y002716D01*
X016533Y002698D01*
X016550Y002677D01*
X016565Y002653D01*
X016576Y002628D01*
X016584Y002602D01*
X016588Y002575D01*
X016588Y002547D01*
X016584Y002520D01*
X016576Y002494D01*
X016565Y002469D01*
X016550Y002445D01*
X016533Y002424D01*
X016512Y002406D01*
X016490Y002390D01*
X016465Y002378D01*
X016439Y002370D01*
X016412Y002365D01*
X016384Y002364D01*
X016357Y002367D01*
X016330Y002374D01*
X016305Y002384D01*
X016281Y002398D01*
X016259Y002415D01*
X016240Y002434D01*
X016224Y002457D01*
X016211Y002481D01*
X016202Y002507D01*
X016196Y002534D01*
X016194Y002561D01*
X021476Y003236D02*
X021476Y000874D01*
X021869Y000480D01*
X024625Y000480D01*
X024625Y003630D01*
X021869Y003630D01*
X021476Y003236D01*
X021476Y002055D02*
X021478Y002134D01*
X021484Y002213D01*
X021494Y002292D01*
X021508Y002370D01*
X021525Y002447D01*
X021547Y002523D01*
X021572Y002598D01*
X021602Y002671D01*
X021634Y002743D01*
X021671Y002814D01*
X021711Y002882D01*
X021754Y002948D01*
X021800Y003012D01*
X021850Y003074D01*
X021903Y003133D01*
X021958Y003189D01*
X022017Y003243D01*
X022078Y003293D01*
X022141Y003341D01*
X022207Y003385D01*
X022275Y003426D01*
X022345Y003463D01*
X022416Y003497D01*
X022490Y003527D01*
X022564Y003553D01*
X022640Y003575D01*
X022717Y003594D01*
X022795Y003609D01*
X022873Y003620D01*
X022952Y003627D01*
X023031Y003630D01*
X023110Y003629D01*
X023189Y003624D01*
X023268Y003615D01*
X023346Y003602D01*
X023423Y003585D01*
X023500Y003565D01*
X023575Y003540D01*
X023649Y003512D01*
X023722Y003480D01*
X023792Y003445D01*
X023861Y003406D01*
X023928Y003363D01*
X023993Y003317D01*
X024055Y003269D01*
X024115Y003217D01*
X024172Y003162D01*
X024226Y003104D01*
X024277Y003044D01*
X024325Y002981D01*
X024370Y002916D01*
X024412Y002848D01*
X024450Y002779D01*
X024484Y002708D01*
X024515Y002635D01*
X024543Y002560D01*
X024566Y002485D01*
X024586Y002408D01*
X024602Y002331D01*
X024614Y002252D01*
X024622Y002174D01*
X024626Y002095D01*
X024626Y002015D01*
X024622Y001936D01*
X024614Y001858D01*
X024602Y001779D01*
X024586Y001702D01*
X024566Y001625D01*
X024543Y001550D01*
X024515Y001475D01*
X024484Y001402D01*
X024450Y001331D01*
X024412Y001262D01*
X024370Y001194D01*
X024325Y001129D01*
X024277Y001066D01*
X024226Y001006D01*
X024172Y000948D01*
X024115Y000893D01*
X024055Y000841D01*
X023993Y000793D01*
X023928Y000747D01*
X023861Y000704D01*
X023792Y000665D01*
X023722Y000630D01*
X023649Y000598D01*
X023575Y000570D01*
X023500Y000545D01*
X023423Y000525D01*
X023346Y000508D01*
X023268Y000495D01*
X023189Y000486D01*
X023110Y000481D01*
X023031Y000480D01*
X022952Y000483D01*
X022873Y000490D01*
X022795Y000501D01*
X022717Y000516D01*
X022640Y000535D01*
X022564Y000557D01*
X022490Y000583D01*
X022416Y000613D01*
X022345Y000647D01*
X022275Y000684D01*
X022207Y000725D01*
X022141Y000769D01*
X022078Y000817D01*
X022017Y000867D01*
X021958Y000921D01*
X021903Y000977D01*
X021850Y001036D01*
X021800Y001098D01*
X021754Y001162D01*
X021711Y001228D01*
X021671Y001296D01*
X021634Y001367D01*
X021602Y001439D01*
X021572Y001512D01*
X021547Y001587D01*
X021525Y001663D01*
X021508Y001740D01*
X021494Y001818D01*
X021484Y001897D01*
X021478Y001976D01*
X021476Y002055D01*
X016810Y008018D02*
X014841Y008018D01*
X014841Y012742D01*
X016810Y012742D01*
X016810Y008018D01*
X016219Y008411D02*
X016221Y008438D01*
X016227Y008465D01*
X016236Y008491D01*
X016249Y008515D01*
X016265Y008538D01*
X016284Y008557D01*
X016306Y008574D01*
X016330Y008588D01*
X016355Y008598D01*
X016382Y008605D01*
X016409Y008608D01*
X016437Y008607D01*
X016464Y008602D01*
X016490Y008594D01*
X016514Y008582D01*
X016537Y008566D01*
X016558Y008548D01*
X016575Y008527D01*
X016590Y008503D01*
X016601Y008478D01*
X016609Y008452D01*
X016613Y008425D01*
X016613Y008397D01*
X016609Y008370D01*
X016601Y008344D01*
X016590Y008319D01*
X016575Y008295D01*
X016558Y008274D01*
X016537Y008256D01*
X016515Y008240D01*
X016490Y008228D01*
X016464Y008220D01*
X016437Y008215D01*
X016409Y008214D01*
X016382Y008217D01*
X016355Y008224D01*
X016330Y008234D01*
X016306Y008248D01*
X016284Y008265D01*
X016265Y008284D01*
X016249Y008307D01*
X016236Y008331D01*
X016227Y008357D01*
X016221Y008384D01*
X016219Y008411D01*
X021451Y010874D02*
X021844Y010480D01*
X024600Y010480D01*
X024600Y013630D01*
X021844Y013630D01*
X021451Y013236D01*
X021451Y010874D01*
X021451Y012055D02*
X021453Y012134D01*
X021459Y012213D01*
X021469Y012292D01*
X021483Y012370D01*
X021500Y012447D01*
X021522Y012523D01*
X021547Y012598D01*
X021577Y012671D01*
X021609Y012743D01*
X021646Y012814D01*
X021686Y012882D01*
X021729Y012948D01*
X021775Y013012D01*
X021825Y013074D01*
X021878Y013133D01*
X021933Y013189D01*
X021992Y013243D01*
X022053Y013293D01*
X022116Y013341D01*
X022182Y013385D01*
X022250Y013426D01*
X022320Y013463D01*
X022391Y013497D01*
X022465Y013527D01*
X022539Y013553D01*
X022615Y013575D01*
X022692Y013594D01*
X022770Y013609D01*
X022848Y013620D01*
X022927Y013627D01*
X023006Y013630D01*
X023085Y013629D01*
X023164Y013624D01*
X023243Y013615D01*
X023321Y013602D01*
X023398Y013585D01*
X023475Y013565D01*
X023550Y013540D01*
X023624Y013512D01*
X023697Y013480D01*
X023767Y013445D01*
X023836Y013406D01*
X023903Y013363D01*
X023968Y013317D01*
X024030Y013269D01*
X024090Y013217D01*
X024147Y013162D01*
X024201Y013104D01*
X024252Y013044D01*
X024300Y012981D01*
X024345Y012916D01*
X024387Y012848D01*
X024425Y012779D01*
X024459Y012708D01*
X024490Y012635D01*
X024518Y012560D01*
X024541Y012485D01*
X024561Y012408D01*
X024577Y012331D01*
X024589Y012252D01*
X024597Y012174D01*
X024601Y012095D01*
X024601Y012015D01*
X024597Y011936D01*
X024589Y011858D01*
X024577Y011779D01*
X024561Y011702D01*
X024541Y011625D01*
X024518Y011550D01*
X024490Y011475D01*
X024459Y011402D01*
X024425Y011331D01*
X024387Y011262D01*
X024345Y011194D01*
X024300Y011129D01*
X024252Y011066D01*
X024201Y011006D01*
X024147Y010948D01*
X024090Y010893D01*
X024030Y010841D01*
X023968Y010793D01*
X023903Y010747D01*
X023836Y010704D01*
X023767Y010665D01*
X023697Y010630D01*
X023624Y010598D01*
X023550Y010570D01*
X023475Y010545D01*
X023398Y010525D01*
X023321Y010508D01*
X023243Y010495D01*
X023164Y010486D01*
X023085Y010481D01*
X023006Y010480D01*
X022927Y010483D01*
X022848Y010490D01*
X022770Y010501D01*
X022692Y010516D01*
X022615Y010535D01*
X022539Y010557D01*
X022465Y010583D01*
X022391Y010613D01*
X022320Y010647D01*
X022250Y010684D01*
X022182Y010725D01*
X022116Y010769D01*
X022053Y010817D01*
X021992Y010867D01*
X021933Y010921D01*
X021878Y010977D01*
X021825Y011036D01*
X021775Y011098D01*
X021729Y011162D01*
X021686Y011228D01*
X021646Y011296D01*
X021609Y011367D01*
X021577Y011439D01*
X021547Y011512D01*
X021522Y011587D01*
X021500Y011663D01*
X021483Y011740D01*
X021469Y011818D01*
X021459Y011897D01*
X021453Y011976D01*
X021451Y012055D01*
D12*
X022215Y011474D02*
X022215Y011167D01*
X022061Y011321D02*
X022368Y011321D01*
X023833Y012896D02*
X024140Y012896D01*
X022435Y014230D02*
X022128Y013923D01*
X022128Y013847D01*
X021975Y013923D02*
X021898Y013847D01*
X021744Y013847D01*
X021668Y013923D01*
X021668Y014230D01*
X021744Y014307D01*
X021898Y014307D01*
X021975Y014230D01*
X022128Y014307D02*
X022435Y014307D01*
X022435Y014230D01*
X015609Y011851D02*
X015148Y011851D01*
X015148Y012158D01*
X015379Y012005D02*
X015379Y011851D01*
X015609Y011698D02*
X015609Y011391D01*
X015609Y011544D02*
X015148Y011544D01*
X015302Y011391D01*
X015225Y011237D02*
X015532Y010930D01*
X015609Y011007D01*
X015609Y011161D01*
X015532Y011237D01*
X015225Y011237D01*
X015148Y011161D01*
X015148Y011007D01*
X015225Y010930D01*
X015532Y010930D01*
X015532Y010777D02*
X015455Y010777D01*
X015379Y010700D01*
X015379Y010547D01*
X015302Y010470D01*
X015225Y010470D01*
X015148Y010547D01*
X015148Y010700D01*
X015225Y010777D01*
X015302Y010777D01*
X015379Y010700D01*
X015379Y010547D02*
X015455Y010470D01*
X015532Y010470D01*
X015609Y010547D01*
X015609Y010700D01*
X015532Y010777D01*
X015609Y010316D02*
X015609Y010010D01*
X015302Y010316D01*
X015225Y010316D01*
X015148Y010240D01*
X015148Y010086D01*
X015225Y010010D01*
X015148Y009856D02*
X015225Y009703D01*
X015379Y009549D01*
X015379Y009779D01*
X015455Y009856D01*
X015532Y009856D01*
X015609Y009779D01*
X015609Y009626D01*
X015532Y009549D01*
X015379Y009549D01*
X015455Y009396D02*
X015532Y009396D01*
X015609Y009319D01*
X015609Y009089D01*
X015148Y009089D01*
X015148Y009319D01*
X015225Y009396D01*
X015302Y009396D01*
X015379Y009319D01*
X015379Y009089D01*
X015379Y009319D02*
X015455Y009396D01*
X015148Y008935D02*
X015148Y008628D01*
X015148Y008782D02*
X015609Y008782D01*
X015123Y006308D02*
X015123Y006001D01*
X015584Y006001D01*
X015584Y005848D02*
X015584Y005541D01*
X015584Y005694D02*
X015123Y005694D01*
X015277Y005541D01*
X015200Y005387D02*
X015507Y005080D01*
X015584Y005157D01*
X015584Y005311D01*
X015507Y005387D01*
X015200Y005387D01*
X015123Y005311D01*
X015123Y005157D01*
X015200Y005080D01*
X015507Y005080D01*
X015507Y004927D02*
X015584Y004850D01*
X015584Y004697D01*
X015507Y004620D01*
X015430Y004620D01*
X015354Y004697D01*
X015354Y004850D01*
X015430Y004927D01*
X015507Y004927D01*
X015354Y004850D02*
X015277Y004927D01*
X015200Y004927D01*
X015123Y004850D01*
X015123Y004697D01*
X015200Y004620D01*
X015277Y004620D01*
X015354Y004697D01*
X015277Y004466D02*
X015200Y004466D01*
X015123Y004390D01*
X015123Y004236D01*
X015200Y004160D01*
X015123Y004006D02*
X015200Y003853D01*
X015354Y003699D01*
X015354Y003929D01*
X015430Y004006D01*
X015507Y004006D01*
X015584Y003929D01*
X015584Y003776D01*
X015507Y003699D01*
X015354Y003699D01*
X015430Y003546D02*
X015507Y003546D01*
X015584Y003469D01*
X015584Y003239D01*
X015123Y003239D01*
X015123Y003469D01*
X015200Y003546D01*
X015277Y003546D01*
X015354Y003469D01*
X015354Y003239D01*
X015354Y003469D02*
X015430Y003546D01*
X015123Y003085D02*
X015123Y002778D01*
X015123Y002932D02*
X015584Y002932D01*
X015584Y004160D02*
X015277Y004466D01*
X015584Y004466D02*
X015584Y004160D01*
X015354Y006001D02*
X015354Y006155D01*
X021693Y004230D02*
X021693Y003923D01*
X021769Y003847D01*
X021923Y003847D01*
X022000Y003923D01*
X022153Y003923D02*
X022230Y003847D01*
X022383Y003847D01*
X022460Y003923D01*
X022460Y004000D01*
X022383Y004077D01*
X022306Y004077D01*
X022383Y004077D02*
X022460Y004154D01*
X022460Y004230D01*
X022383Y004307D01*
X022230Y004307D01*
X022153Y004230D01*
X022000Y004230D02*
X021923Y004307D01*
X021769Y004307D01*
X021693Y004230D01*
X023858Y002896D02*
X024165Y002896D01*
X022240Y001474D02*
X022240Y001167D01*
X022086Y001321D02*
X022393Y001321D01*
M02*
