G75*
%MOIN*%
%OFA0B0*%
%FSLAX24Y24*%
%IPPOS*%
%LPD*%
%AMOC8*
5,1,8,0,0,1.08239X$1,22.5*
%
%ADD10C,0.0000*%
%ADD11C,0.0060*%
%ADD12C,0.0120*%
%ADD13C,0.0030*%
%ADD14C,0.0080*%
%ADD15C,0.0040*%
%ADD16C,0.0050*%
%ADD17C,0.0020*%
D10*
X004943Y000500D02*
X004943Y021495D01*
X043935Y021495D01*
X043935Y000500D01*
X004943Y000500D01*
D11*
X008093Y004800D02*
X008093Y012700D01*
X010443Y012700D01*
X010445Y012656D01*
X010451Y012613D01*
X010460Y012571D01*
X010473Y012529D01*
X010490Y012489D01*
X010510Y012450D01*
X010533Y012413D01*
X010560Y012379D01*
X010589Y012346D01*
X010622Y012317D01*
X010656Y012290D01*
X010693Y012267D01*
X010732Y012247D01*
X010772Y012230D01*
X010814Y012217D01*
X010856Y012208D01*
X010899Y012202D01*
X010943Y012200D01*
X010987Y012202D01*
X011030Y012208D01*
X011072Y012217D01*
X011114Y012230D01*
X011154Y012247D01*
X011193Y012267D01*
X011230Y012290D01*
X011264Y012317D01*
X011297Y012346D01*
X011326Y012379D01*
X011353Y012413D01*
X011376Y012450D01*
X011396Y012489D01*
X011413Y012529D01*
X011426Y012571D01*
X011435Y012613D01*
X011441Y012656D01*
X011443Y012700D01*
X013793Y012700D01*
X013793Y004800D01*
X008093Y004800D01*
X016098Y005350D02*
X016525Y005350D01*
X016311Y005137D02*
X016311Y005564D01*
X016473Y004421D02*
X016580Y004421D01*
X016580Y003780D01*
X016686Y003780D02*
X016473Y003780D01*
X016903Y003887D02*
X017009Y003994D01*
X017330Y003994D01*
X017330Y004100D02*
X017330Y003780D01*
X017009Y003780D01*
X016903Y003887D01*
X017009Y004207D02*
X017223Y004207D01*
X017330Y004100D01*
X017547Y004207D02*
X017547Y003780D01*
X017761Y003780D02*
X017761Y004100D01*
X017867Y004207D01*
X017974Y004100D01*
X017974Y003780D01*
X018192Y003780D02*
X018512Y003780D01*
X018619Y003887D01*
X018619Y004100D01*
X018512Y004207D01*
X018192Y004207D01*
X018192Y003566D01*
X017761Y004100D02*
X017654Y004207D01*
X017547Y004207D01*
X018598Y005350D02*
X019025Y005350D01*
X019955Y004457D02*
X020168Y004457D01*
X020275Y004350D01*
X020275Y004244D01*
X019848Y004244D01*
X019848Y004350D02*
X019955Y004457D01*
X019848Y004350D02*
X019848Y004137D01*
X019955Y004030D01*
X020168Y004030D01*
X020150Y003707D02*
X019830Y003707D01*
X019723Y003600D01*
X019830Y003494D01*
X020043Y003494D01*
X020150Y003387D01*
X020043Y003280D01*
X019723Y003280D01*
X020474Y003387D02*
X020474Y003814D01*
X020367Y003707D02*
X020581Y003707D01*
X020797Y003600D02*
X020797Y003387D01*
X020904Y003280D01*
X021117Y003280D01*
X021224Y003387D01*
X021224Y003600D01*
X021117Y003707D01*
X020904Y003707D01*
X020797Y003600D01*
X020474Y003387D02*
X020581Y003280D01*
X021442Y003280D02*
X021762Y003280D01*
X021869Y003387D01*
X021869Y003600D01*
X021762Y003707D01*
X021442Y003707D01*
X021442Y003066D01*
X021564Y004030D02*
X021244Y004030D01*
X021137Y004137D01*
X021137Y004350D01*
X021244Y004457D01*
X021564Y004457D01*
X021564Y004671D02*
X021564Y004030D01*
X020919Y004030D02*
X020919Y004350D01*
X020813Y004457D01*
X020492Y004457D01*
X020492Y004030D01*
X024443Y003375D02*
X024693Y003125D01*
X025193Y003125D01*
X025443Y003375D01*
X025693Y003125D01*
X026193Y003125D01*
X026443Y003375D01*
X026693Y003125D01*
X027193Y003125D01*
X027443Y003375D01*
X027693Y003125D01*
X028193Y003125D01*
X028443Y003375D01*
X028693Y003125D01*
X029193Y003125D01*
X029443Y003375D01*
X029693Y003125D01*
X030193Y003125D01*
X030443Y003375D01*
X030693Y003125D01*
X031193Y003125D01*
X031443Y003375D01*
X031693Y003125D01*
X032193Y003125D01*
X032443Y003375D01*
X032443Y004875D01*
X032193Y005125D01*
X031693Y005125D01*
X031443Y004875D01*
X031193Y005125D01*
X030693Y005125D01*
X030443Y004875D01*
X030193Y005125D01*
X029693Y005125D01*
X029443Y004875D01*
X029193Y005125D01*
X028693Y005125D01*
X028443Y004875D01*
X028193Y005125D01*
X027693Y005125D01*
X027443Y004875D01*
X027193Y005125D01*
X026693Y005125D01*
X026443Y004875D01*
X026193Y005125D01*
X025693Y005125D01*
X025443Y004875D01*
X025193Y005125D01*
X024693Y005125D01*
X024443Y004875D01*
X024443Y003375D01*
X017163Y007405D02*
X016522Y007405D01*
X016736Y007619D01*
X016522Y007832D01*
X017163Y007832D01*
X017056Y008050D02*
X017163Y008156D01*
X017163Y008370D01*
X017056Y008477D01*
X016843Y008477D01*
X016736Y008370D01*
X016736Y008156D01*
X016843Y008050D01*
X017056Y008050D01*
X016736Y008694D02*
X016736Y008908D01*
X016629Y008801D02*
X017056Y008801D01*
X017163Y008908D01*
X017056Y009124D02*
X017163Y009231D01*
X017163Y009444D01*
X017056Y009551D01*
X016843Y009551D01*
X016736Y009444D01*
X016736Y009231D01*
X016843Y009124D01*
X017056Y009124D01*
X016949Y009768D02*
X016736Y009982D01*
X016736Y010089D01*
X016736Y009768D02*
X017163Y009768D01*
X020758Y009690D02*
X021078Y009690D01*
X021078Y009910D01*
X021078Y010590D02*
X021078Y010810D01*
X020758Y010810D01*
X018294Y013262D02*
X018188Y013155D01*
X017974Y013155D01*
X017867Y013262D01*
X018294Y013689D01*
X018294Y013262D01*
X017867Y013262D02*
X017867Y013689D01*
X017974Y013796D01*
X018188Y013796D01*
X018294Y013689D01*
X017650Y013475D02*
X017223Y013475D01*
X017543Y013796D01*
X017543Y013155D01*
X016745Y015780D02*
X016959Y016207D01*
X016531Y016207D02*
X016745Y015780D01*
X016314Y015887D02*
X016314Y016100D01*
X016207Y016207D01*
X016100Y016207D01*
X015887Y016100D01*
X015887Y016421D01*
X016314Y016421D01*
X016314Y015887D02*
X016207Y015780D01*
X015994Y015780D01*
X015887Y015887D01*
X015669Y016100D02*
X015242Y016100D01*
X015025Y015780D02*
X015025Y016421D01*
X014811Y016207D01*
X014598Y016421D01*
X014598Y015780D01*
X014689Y017030D02*
X014262Y017030D01*
X014475Y017030D02*
X014475Y017671D01*
X014262Y017457D01*
X014044Y017350D02*
X013617Y017350D01*
X013400Y017030D02*
X013400Y017671D01*
X013186Y017457D01*
X012973Y017671D01*
X012973Y017030D01*
X014906Y017030D02*
X015334Y017457D01*
X015334Y017564D01*
X015227Y017671D01*
X015013Y017671D01*
X014906Y017564D01*
X015551Y017457D02*
X015765Y017030D01*
X015978Y017457D01*
X015334Y017030D02*
X014906Y017030D01*
X009564Y017512D02*
X009564Y017939D01*
X009457Y018046D01*
X009137Y018046D01*
X009137Y017405D01*
X009457Y017405D01*
X009564Y017512D01*
X008919Y017405D02*
X008919Y018046D01*
X008492Y018046D02*
X008919Y017405D01*
X008492Y017405D02*
X008492Y018046D01*
X008275Y017939D02*
X008168Y018046D01*
X007955Y018046D01*
X007848Y017939D01*
X007848Y017512D01*
X007955Y017405D01*
X008168Y017405D01*
X008275Y017512D01*
X008275Y017725D01*
X008061Y017725D01*
X007525Y017725D02*
X007098Y017725D01*
X007311Y018637D02*
X007311Y019064D01*
X007098Y018850D02*
X007525Y018850D01*
X007848Y018957D02*
X008061Y019171D01*
X008061Y018530D01*
X007848Y018530D02*
X008275Y018530D01*
X008492Y018530D02*
X008919Y018957D01*
X008919Y019064D01*
X008813Y019171D01*
X008599Y019171D01*
X008492Y019064D01*
X008492Y018530D02*
X008919Y018530D01*
X009137Y018744D02*
X009350Y018530D01*
X009564Y018744D01*
X009564Y019171D01*
X009137Y019171D02*
X009137Y018744D01*
X008706Y019655D02*
X008919Y019869D01*
X008919Y020296D01*
X008492Y020296D02*
X008492Y019869D01*
X008706Y019655D01*
X008275Y019762D02*
X008275Y019975D01*
X008168Y020082D01*
X008061Y020082D01*
X007848Y019975D01*
X007848Y020296D01*
X008275Y020296D01*
X008275Y019762D02*
X008168Y019655D01*
X007955Y019655D01*
X007848Y019762D01*
X007525Y019975D02*
X007098Y019975D01*
X007311Y020189D02*
X007311Y019762D01*
X034443Y011875D02*
X034443Y011375D01*
X034693Y011125D01*
X034443Y010875D01*
X034443Y010375D01*
X034693Y010125D01*
X034443Y009875D01*
X034443Y009375D01*
X034693Y009125D01*
X034443Y008875D01*
X034443Y008375D01*
X034693Y008125D01*
X034443Y007875D01*
X034443Y007375D01*
X034693Y007125D01*
X034443Y006875D01*
X034443Y006375D01*
X034693Y006125D01*
X034443Y005875D01*
X034443Y005375D01*
X034693Y005125D01*
X034443Y004875D01*
X034443Y004375D01*
X034693Y004125D01*
X036193Y004125D01*
X036443Y004375D01*
X036443Y004875D01*
X036193Y005125D01*
X036443Y005375D01*
X036443Y005875D01*
X036193Y006125D01*
X036443Y006375D01*
X036443Y006875D01*
X036193Y007125D01*
X036443Y007375D01*
X036443Y007875D01*
X036193Y008125D01*
X036443Y008375D01*
X036443Y008875D01*
X036193Y009125D01*
X036443Y009375D01*
X036443Y009875D01*
X036193Y010125D01*
X036443Y010375D01*
X036443Y010875D01*
X036193Y011125D01*
X036443Y011375D01*
X036443Y011875D01*
X036193Y012125D01*
X034693Y012125D01*
X034443Y011875D01*
X038848Y011905D02*
X039275Y011905D01*
X039061Y011905D02*
X039061Y012546D01*
X038848Y012332D01*
X041443Y012250D02*
X041443Y012750D01*
X041693Y013000D01*
X043193Y013000D01*
X043443Y013250D01*
X043443Y013750D01*
X043193Y014000D01*
X041693Y014000D01*
X041443Y014250D01*
X041443Y014750D01*
X041693Y015000D01*
X043193Y015000D01*
X043443Y015250D01*
X043443Y015750D01*
X043193Y016000D01*
X041693Y016000D01*
X041443Y016250D01*
X041443Y016750D01*
X041693Y017000D01*
X043193Y017000D01*
X043443Y017250D01*
X043443Y017750D01*
X043193Y018000D01*
X041693Y018000D01*
X041443Y018250D01*
X041443Y018750D01*
X041693Y019000D01*
X043193Y019000D01*
X043443Y018750D01*
X043443Y018250D01*
X043193Y018000D01*
X041693Y018000D02*
X041443Y017750D01*
X041443Y017250D01*
X041693Y017000D01*
X041693Y016000D02*
X041443Y015750D01*
X041443Y015250D01*
X041693Y015000D01*
X043193Y015000D02*
X043443Y014750D01*
X043443Y014250D01*
X043193Y014000D01*
X043193Y013000D02*
X043443Y012750D01*
X043443Y012250D01*
X043193Y012000D01*
X041693Y012000D01*
X041443Y011750D01*
X041443Y011250D01*
X041693Y011000D01*
X043193Y011000D01*
X043443Y010750D01*
X043443Y010250D01*
X043193Y010000D01*
X041693Y010000D01*
X041443Y010250D01*
X041443Y010750D01*
X041693Y011000D01*
X041693Y010000D02*
X041443Y009750D01*
X041443Y009250D01*
X041693Y009000D01*
X043193Y009000D01*
X043443Y009250D01*
X043443Y009750D01*
X043193Y010000D01*
X043193Y011000D02*
X043443Y011250D01*
X043443Y011750D01*
X043193Y012000D01*
X041693Y012000D02*
X041443Y012250D01*
X041693Y013000D02*
X041443Y013250D01*
X041443Y013750D01*
X041693Y014000D01*
X043193Y016000D02*
X043443Y016250D01*
X043443Y016750D01*
X043193Y017000D01*
X043193Y019000D02*
X043443Y019250D01*
X043443Y019750D01*
X043193Y020000D01*
X041693Y020000D02*
X041443Y019750D01*
X041443Y019250D01*
X041693Y019000D01*
X038561Y016671D02*
X038561Y016030D01*
X038348Y016030D02*
X038775Y016030D01*
X038348Y016457D02*
X038561Y016671D01*
X041693Y009000D02*
X041443Y008750D01*
X041443Y008250D01*
X041693Y008000D01*
X043193Y008000D01*
X043443Y008250D01*
X043443Y008750D01*
X043193Y009000D01*
X043193Y008000D02*
X043443Y007750D01*
X043443Y007250D01*
X043193Y007000D01*
X041693Y007000D01*
X041443Y007250D01*
X041443Y007750D01*
X041693Y008000D01*
X041693Y007000D02*
X041443Y006750D01*
X041443Y006250D01*
X041693Y006000D01*
X043193Y006000D01*
X043443Y006250D01*
X043443Y006750D01*
X043193Y007000D01*
X043193Y006000D02*
X043443Y005750D01*
X043443Y005250D01*
X043193Y005000D01*
X041693Y005000D01*
X041443Y005250D01*
X041443Y005750D01*
X041693Y006000D01*
X041693Y005000D02*
X041443Y004750D01*
X041443Y004250D01*
X041693Y004000D01*
X043193Y004000D02*
X043443Y004250D01*
X043443Y004750D01*
X043193Y005000D01*
D12*
X043443Y003000D02*
X044623Y003000D01*
X042943Y002980D02*
X042943Y002680D01*
X041943Y002680D01*
X041943Y002970D01*
X038693Y003750D02*
X038693Y012125D01*
X037443Y012125D02*
X037443Y003750D01*
X036443Y003125D02*
X022068Y003125D01*
X022068Y012125D01*
X036443Y012125D01*
X036443Y003125D01*
X038068Y013750D02*
X018568Y013750D01*
X018193Y014125D01*
X018193Y015625D01*
X018568Y016000D01*
X038068Y016000D01*
X038443Y015625D01*
X038443Y014125D01*
X038068Y013750D01*
X041943Y021030D02*
X041943Y021280D01*
X041643Y021280D01*
X041943Y021280D02*
X042943Y021280D01*
X042943Y021020D01*
X016318Y010875D02*
X016318Y006750D01*
X015318Y006750D01*
X015318Y010875D01*
X016318Y010875D01*
D13*
X022583Y011890D02*
X022830Y011890D01*
X022951Y011890D02*
X022951Y012260D01*
X023136Y012137D02*
X022951Y012013D01*
X023136Y011890D01*
X022706Y011890D02*
X022706Y012260D01*
X022583Y012137D01*
X023833Y012137D02*
X023956Y012260D01*
X023956Y011890D01*
X023833Y011890D02*
X024080Y011890D01*
X024201Y011952D02*
X024448Y012199D01*
X024448Y011952D01*
X024386Y011890D01*
X024263Y011890D01*
X024201Y011952D01*
X024201Y012199D01*
X024263Y012260D01*
X024386Y012260D01*
X024448Y012199D01*
X024569Y012260D02*
X024569Y011890D01*
X024569Y012013D02*
X024755Y012137D01*
X024569Y012013D02*
X024755Y011890D01*
X028703Y019675D02*
X028668Y019710D01*
X028808Y019850D01*
X028773Y019885D01*
X028703Y019885D01*
X028668Y019850D01*
X028668Y019710D01*
X028703Y019675D02*
X028773Y019675D01*
X028808Y019710D01*
X028808Y019850D01*
X028889Y019885D02*
X029029Y019675D01*
X029110Y019675D02*
X029250Y019675D01*
X029180Y019675D02*
X029180Y019885D01*
X029029Y019885D02*
X028889Y019675D01*
X029668Y019710D02*
X029668Y019850D01*
X029703Y019885D01*
X029773Y019885D01*
X029808Y019850D01*
X029668Y019710D01*
X029703Y019675D01*
X029773Y019675D01*
X029808Y019710D01*
X029808Y019850D01*
X029889Y019885D02*
X030029Y019675D01*
X030110Y019710D02*
X030110Y019780D01*
X030145Y019815D01*
X030250Y019815D01*
X030250Y019885D02*
X030250Y019675D01*
X030145Y019675D01*
X030110Y019710D01*
X030180Y019815D02*
X030110Y019885D01*
X030029Y019885D02*
X029889Y019675D01*
X031668Y019710D02*
X031668Y019745D01*
X031703Y019780D01*
X031668Y019815D01*
X031668Y019850D01*
X031703Y019885D01*
X031773Y019885D01*
X031808Y019850D01*
X031889Y019885D02*
X032029Y019675D01*
X032110Y019675D02*
X032250Y019675D01*
X032180Y019675D02*
X032180Y019885D01*
X032029Y019885D02*
X031889Y019675D01*
X031808Y019710D02*
X031773Y019675D01*
X031703Y019675D01*
X031668Y019710D01*
X031703Y019780D02*
X031738Y019780D01*
X032668Y019815D02*
X032703Y019780D01*
X032738Y019780D01*
X032703Y019780D02*
X032668Y019745D01*
X032668Y019710D01*
X032703Y019675D01*
X032773Y019675D01*
X032808Y019710D01*
X032889Y019675D02*
X033029Y019885D01*
X033110Y019885D02*
X033180Y019815D01*
X033145Y019815D02*
X033250Y019815D01*
X033250Y019885D02*
X033250Y019675D01*
X033145Y019675D01*
X033110Y019710D01*
X033110Y019780D01*
X033145Y019815D01*
X033029Y019675D02*
X032889Y019885D01*
X032808Y019850D02*
X032773Y019885D01*
X032703Y019885D01*
X032668Y019850D01*
X032668Y019815D01*
X033668Y019885D02*
X033808Y019885D01*
X033668Y019745D01*
X033668Y019710D01*
X033703Y019675D01*
X033773Y019675D01*
X033808Y019710D01*
X033889Y019675D02*
X034029Y019885D01*
X033889Y019885D02*
X034029Y019675D01*
X034110Y019675D02*
X034250Y019675D01*
X034180Y019675D02*
X034180Y019885D01*
X034668Y019885D02*
X034808Y019885D01*
X034668Y019745D01*
X034668Y019710D01*
X034703Y019675D01*
X034773Y019675D01*
X034808Y019710D01*
X034889Y019675D02*
X035029Y019885D01*
X035110Y019885D02*
X035180Y019815D01*
X035145Y019815D02*
X035250Y019815D01*
X035250Y019885D02*
X035250Y019675D01*
X035145Y019675D01*
X035110Y019710D01*
X035110Y019780D01*
X035145Y019815D01*
X035029Y019675D02*
X034889Y019885D01*
X035668Y019885D02*
X035808Y019885D01*
X035738Y019885D02*
X035738Y019675D01*
X035808Y019745D01*
X035889Y019675D02*
X036029Y019885D01*
X035889Y019885D02*
X036029Y019675D01*
X036110Y019675D02*
X036250Y019675D01*
X036180Y019675D02*
X036180Y019885D01*
X036668Y019885D02*
X036808Y019885D01*
X036738Y019885D02*
X036738Y019675D01*
X036808Y019745D01*
X036889Y019675D02*
X037029Y019885D01*
X037110Y019885D02*
X037180Y019815D01*
X037145Y019815D02*
X037250Y019815D01*
X037250Y019885D02*
X037250Y019675D01*
X037145Y019675D01*
X037110Y019710D01*
X037110Y019780D01*
X037145Y019815D01*
X037029Y019675D02*
X036889Y019885D01*
X037668Y019885D02*
X037668Y019745D01*
X037738Y019675D01*
X037808Y019745D01*
X037808Y019885D01*
X037889Y019850D02*
X037889Y019710D01*
X037924Y019675D01*
X038029Y019675D01*
X038029Y019885D01*
X037924Y019885D01*
X037889Y019850D01*
X037808Y019780D02*
X037668Y019780D01*
X038110Y019815D02*
X038110Y019850D01*
X038145Y019885D01*
X038215Y019885D01*
X038250Y019850D01*
X038215Y019780D02*
X038145Y019780D01*
X038110Y019815D01*
X038110Y019710D02*
X038145Y019675D01*
X038215Y019675D01*
X038250Y019710D01*
X038250Y019745D01*
X038215Y019780D01*
X038668Y019885D02*
X038808Y019885D01*
X038808Y019675D01*
X038889Y019710D02*
X038924Y019675D01*
X038994Y019675D01*
X039029Y019710D01*
X039029Y019850D01*
X038994Y019885D01*
X038924Y019885D01*
X038889Y019850D01*
X039110Y019850D02*
X039145Y019885D01*
X039215Y019885D01*
X039250Y019850D01*
X039215Y019780D02*
X039145Y019780D01*
X039110Y019815D01*
X039110Y019850D01*
X039215Y019780D02*
X039250Y019745D01*
X039250Y019710D01*
X039215Y019675D01*
X039145Y019675D01*
X039110Y019710D01*
X015709Y019710D02*
X015709Y019850D01*
X015674Y019885D01*
X015604Y019885D01*
X015569Y019850D01*
X015569Y019780D01*
X015639Y019780D01*
X015709Y019710D02*
X015674Y019675D01*
X015604Y019675D01*
X015569Y019710D01*
X015488Y019675D02*
X015348Y019885D01*
X015348Y019675D01*
X015267Y019675D02*
X015267Y019885D01*
X015162Y019885D01*
X015127Y019850D01*
X015127Y019710D01*
X015162Y019675D01*
X015267Y019675D01*
X015488Y019675D02*
X015488Y019885D01*
X014744Y019885D02*
X014744Y019745D01*
X014674Y019675D01*
X014604Y019745D01*
X014604Y019885D01*
X014523Y019885D02*
X014523Y019675D01*
X014418Y019675D01*
X014383Y019710D01*
X014383Y019780D01*
X014418Y019815D01*
X014523Y019815D01*
X014453Y019815D02*
X014383Y019885D01*
X014302Y019885D02*
X014162Y019885D01*
X014081Y019885D02*
X014081Y019675D01*
X013941Y019675D01*
X014011Y019780D02*
X014081Y019780D01*
X014162Y019675D02*
X014302Y019675D01*
X014302Y019885D01*
X014302Y019780D02*
X014232Y019780D01*
X014604Y019780D02*
X014744Y019780D01*
X013625Y019745D02*
X013590Y019780D01*
X013520Y019780D01*
X013485Y019815D01*
X013485Y019850D01*
X013520Y019885D01*
X013590Y019885D01*
X013625Y019850D01*
X013625Y019745D02*
X013625Y019710D01*
X013590Y019675D01*
X013520Y019675D01*
X013485Y019710D01*
X013404Y019710D02*
X013404Y019850D01*
X013369Y019885D01*
X013299Y019885D01*
X013264Y019850D01*
X013183Y019885D02*
X013043Y019885D01*
X013183Y019885D02*
X013183Y019675D01*
X013264Y019710D02*
X013299Y019675D01*
X013369Y019675D01*
X013404Y019710D01*
X012625Y019710D02*
X012625Y019745D01*
X012590Y019780D01*
X012520Y019780D01*
X012485Y019815D01*
X012485Y019850D01*
X012520Y019885D01*
X012590Y019885D01*
X012625Y019850D01*
X012625Y019710D02*
X012590Y019675D01*
X012520Y019675D01*
X012485Y019710D01*
X012404Y019675D02*
X012299Y019675D01*
X012264Y019710D01*
X012264Y019850D01*
X012299Y019885D01*
X012404Y019885D01*
X012404Y019675D01*
X012183Y019745D02*
X012113Y019675D01*
X012043Y019745D01*
X012043Y019885D01*
X012043Y019780D02*
X012183Y019780D01*
X012183Y019745D02*
X012183Y019885D01*
X016514Y002310D02*
X016619Y002310D01*
X016654Y002275D01*
X016654Y002135D01*
X016619Y002100D01*
X016514Y002100D01*
X016514Y002310D01*
X016735Y002310D02*
X016735Y002100D01*
X016735Y002170D02*
X016840Y002170D01*
X016875Y002205D01*
X016875Y002275D01*
X016840Y002310D01*
X016735Y002310D01*
X016805Y002170D02*
X016875Y002100D01*
X016956Y002100D02*
X017096Y002100D01*
X017177Y002100D02*
X017177Y002310D01*
X017317Y002310D01*
X017247Y002205D02*
X017177Y002205D01*
X017096Y002310D02*
X016956Y002310D01*
X016956Y002100D01*
X016956Y002205D02*
X017026Y002205D01*
X017610Y002170D02*
X017715Y002170D01*
X017750Y002205D01*
X017750Y002275D01*
X017715Y002310D01*
X017610Y002310D01*
X017610Y002100D01*
X017680Y002170D02*
X017750Y002100D01*
X017831Y002100D02*
X017971Y002100D01*
X018052Y002135D02*
X018087Y002100D01*
X018157Y002100D01*
X018192Y002135D01*
X018192Y002170D01*
X018157Y002205D01*
X018087Y002205D01*
X018052Y002240D01*
X018052Y002275D01*
X018087Y002310D01*
X018157Y002310D01*
X018192Y002275D01*
X017971Y002310D02*
X017831Y002310D01*
X017831Y002100D01*
X017831Y002205D02*
X017901Y002205D01*
X018624Y002135D02*
X018659Y002100D01*
X018729Y002100D01*
X018765Y002135D01*
X018765Y002170D01*
X018729Y002205D01*
X018694Y002205D01*
X018729Y002205D02*
X018765Y002240D01*
X018765Y002275D01*
X018729Y002310D01*
X018659Y002310D01*
X018624Y002275D01*
X018845Y002135D02*
X018880Y002135D01*
X018880Y002100D01*
X018845Y002100D01*
X018845Y002135D01*
X018956Y002135D02*
X018991Y002100D01*
X019061Y002100D01*
X019096Y002135D01*
X019096Y002170D01*
X019061Y002205D01*
X019026Y002205D01*
X019061Y002205D02*
X019096Y002240D01*
X019096Y002275D01*
X019061Y002310D01*
X018991Y002310D01*
X018956Y002275D01*
X019177Y002310D02*
X019177Y002170D01*
X019247Y002100D01*
X019317Y002170D01*
X019317Y002310D01*
X019706Y002310D02*
X019706Y002205D01*
X019776Y002240D01*
X019811Y002240D01*
X019846Y002205D01*
X019846Y002135D01*
X019811Y002100D01*
X019741Y002100D01*
X019706Y002135D01*
X019706Y002310D02*
X019846Y002310D01*
X019927Y002310D02*
X019927Y002170D01*
X019997Y002100D01*
X020067Y002170D01*
X020067Y002310D01*
X020610Y002275D02*
X020610Y002135D01*
X020645Y002100D01*
X020715Y002100D01*
X020750Y002135D01*
X020750Y002205D01*
X020680Y002205D01*
X020750Y002275D02*
X020715Y002310D01*
X020645Y002310D01*
X020610Y002275D01*
X020831Y002310D02*
X020971Y002100D01*
X020971Y002310D01*
X021052Y002310D02*
X021157Y002310D01*
X021192Y002275D01*
X021192Y002135D01*
X021157Y002100D01*
X021052Y002100D01*
X021052Y002310D01*
X020831Y002310D02*
X020831Y002100D01*
X021610Y002135D02*
X021610Y002275D01*
X021645Y002310D01*
X021715Y002310D01*
X021750Y002275D01*
X021750Y002205D02*
X021680Y002205D01*
X021750Y002205D02*
X021750Y002135D01*
X021715Y002100D01*
X021645Y002100D01*
X021610Y002135D01*
X021831Y002100D02*
X021831Y002310D01*
X021971Y002100D01*
X021971Y002310D01*
X022052Y002310D02*
X022157Y002310D01*
X022192Y002275D01*
X022192Y002135D01*
X022157Y002100D01*
X022052Y002100D01*
X022052Y002310D01*
X022684Y002310D02*
X022684Y002170D01*
X022754Y002100D01*
X022824Y002170D01*
X022824Y002310D01*
X022905Y002240D02*
X022940Y002240D01*
X022940Y002100D01*
X022905Y002100D02*
X022975Y002100D01*
X023052Y002100D02*
X023052Y002240D01*
X023157Y002240D01*
X023192Y002205D01*
X023192Y002100D01*
X022940Y002310D02*
X022940Y002345D01*
D14*
X004943Y000500D02*
X004943Y021500D01*
X042943Y021500D01*
X043943Y020500D01*
X043943Y016500D01*
X044943Y015500D01*
X044943Y002000D01*
X043943Y001000D01*
X043943Y000500D01*
X004943Y000500D01*
X015443Y001250D02*
X015693Y001000D01*
X016193Y001000D01*
X016443Y001250D01*
X016693Y001000D01*
X017193Y001000D01*
X017443Y001250D01*
X017693Y001000D01*
X018193Y001000D01*
X018443Y001250D01*
X018693Y001000D01*
X019193Y001000D01*
X019443Y001250D01*
X019693Y001000D01*
X020193Y001000D01*
X020443Y001250D01*
X020693Y001000D01*
X021193Y001000D01*
X021443Y001250D01*
X021693Y001000D01*
X022193Y001000D01*
X022443Y001250D01*
X022693Y001000D01*
X023193Y001000D01*
X023443Y001250D01*
X023443Y001750D01*
X023193Y002000D01*
X022693Y002000D01*
X022443Y001750D01*
X022193Y002000D01*
X021693Y002000D01*
X021443Y001750D01*
X021193Y002000D01*
X020693Y002000D01*
X020443Y001750D01*
X020193Y002000D01*
X019693Y002000D01*
X019443Y001750D01*
X019193Y002000D01*
X018693Y002000D01*
X018443Y001750D01*
X018193Y002000D01*
X017693Y002000D01*
X017443Y001750D01*
X017193Y002000D01*
X016693Y002000D01*
X016443Y001750D01*
X016193Y002000D01*
X015693Y002000D01*
X015443Y001750D01*
X015443Y001250D01*
X024443Y001250D02*
X024693Y001000D01*
X025193Y001000D01*
X025443Y001250D01*
X025693Y001000D01*
X026193Y001000D01*
X026443Y001250D01*
X026693Y001000D01*
X027193Y001000D01*
X027443Y001250D01*
X027693Y001000D01*
X028193Y001000D01*
X028443Y001250D01*
X028693Y001000D01*
X029193Y001000D01*
X029443Y001250D01*
X029693Y001000D01*
X030193Y001000D01*
X030443Y001250D01*
X030693Y001000D01*
X031193Y001000D01*
X031443Y001250D01*
X031693Y001000D01*
X032193Y001000D01*
X032443Y001250D01*
X032443Y001750D01*
X032193Y002000D01*
X031693Y002000D01*
X031443Y001750D01*
X031193Y002000D01*
X030693Y002000D01*
X030443Y001750D01*
X030193Y002000D01*
X029693Y002000D01*
X029443Y001750D01*
X029193Y002000D01*
X028693Y002000D01*
X028443Y001750D01*
X028193Y002000D01*
X027693Y002000D01*
X027443Y001750D01*
X027193Y002000D01*
X026693Y002000D01*
X026443Y001750D01*
X026193Y002000D01*
X025693Y002000D01*
X025443Y001750D01*
X025193Y002000D01*
X024693Y002000D01*
X024443Y001750D01*
X024443Y001250D01*
X033443Y001250D02*
X033693Y001000D01*
X034193Y001000D01*
X034443Y001250D01*
X034693Y001000D01*
X035193Y001000D01*
X035443Y001250D01*
X035693Y001000D01*
X036193Y001000D01*
X036443Y001250D01*
X036693Y001000D01*
X037193Y001000D01*
X037443Y001250D01*
X037693Y001000D01*
X038193Y001000D01*
X038443Y001250D01*
X038693Y001000D01*
X039193Y001000D01*
X039443Y001250D01*
X039693Y001000D01*
X040193Y001000D01*
X040443Y001250D01*
X040693Y001000D01*
X041193Y001000D01*
X041443Y001250D01*
X041443Y001750D01*
X041193Y002000D01*
X040693Y002000D01*
X040443Y001750D01*
X040193Y002000D01*
X039693Y002000D01*
X039443Y001750D01*
X039193Y002000D01*
X038693Y002000D01*
X038443Y001750D01*
X038193Y002000D01*
X037693Y002000D01*
X037443Y001750D01*
X037193Y002000D01*
X036693Y002000D01*
X036443Y001750D01*
X036193Y002000D01*
X035693Y002000D01*
X035443Y001750D01*
X035193Y002000D01*
X034693Y002000D01*
X034443Y001750D01*
X034193Y002000D01*
X033693Y002000D01*
X033443Y001750D01*
X033443Y001250D01*
X041443Y003250D02*
X041693Y003000D01*
X043193Y003000D01*
X043443Y003250D01*
X043443Y003750D01*
X043193Y004000D01*
X041693Y004000D01*
X041443Y003750D01*
X041443Y003250D01*
X041693Y020000D02*
X043193Y020000D01*
X043443Y020250D01*
X043443Y020750D01*
X043193Y021000D01*
X041693Y021000D01*
X041443Y020750D01*
X041443Y020250D01*
X041693Y020000D01*
X039443Y020250D02*
X039193Y020000D01*
X038693Y020000D01*
X038443Y020250D01*
X038193Y020000D01*
X037693Y020000D01*
X037443Y020250D01*
X037193Y020000D01*
X036693Y020000D01*
X036443Y020250D01*
X036193Y020000D01*
X035693Y020000D01*
X035443Y020250D01*
X035193Y020000D01*
X034693Y020000D01*
X034443Y020250D01*
X034193Y020000D01*
X033693Y020000D01*
X033443Y020250D01*
X033193Y020000D01*
X032693Y020000D01*
X032443Y020250D01*
X032193Y020000D01*
X031693Y020000D01*
X031443Y020250D01*
X031443Y020750D01*
X031693Y021000D01*
X032193Y021000D01*
X032443Y020750D01*
X032693Y021000D01*
X033193Y021000D01*
X033443Y020750D01*
X033693Y021000D01*
X034193Y021000D01*
X034443Y020750D01*
X034693Y021000D01*
X035193Y021000D01*
X035443Y020750D01*
X035693Y021000D01*
X036193Y021000D01*
X036443Y020750D01*
X036693Y021000D01*
X037193Y021000D01*
X037443Y020750D01*
X037693Y021000D01*
X038193Y021000D01*
X038443Y020750D01*
X038693Y021000D01*
X039193Y021000D01*
X039443Y020750D01*
X039443Y020250D01*
X030443Y020250D02*
X030193Y020000D01*
X029693Y020000D01*
X029443Y020250D01*
X029193Y020000D01*
X028693Y020000D01*
X028443Y020250D01*
X028193Y020000D01*
X027693Y020000D01*
X027443Y020250D01*
X027193Y020000D01*
X026693Y020000D01*
X026443Y020250D01*
X026193Y020000D01*
X025693Y020000D01*
X025443Y020250D01*
X025193Y020000D01*
X024693Y020000D01*
X024443Y020250D01*
X024193Y020000D01*
X023693Y020000D01*
X023443Y020250D01*
X023193Y020000D01*
X022693Y020000D01*
X022443Y020250D01*
X022443Y020750D01*
X022693Y021000D01*
X023193Y021000D01*
X023443Y020750D01*
X023693Y021000D01*
X024193Y021000D01*
X024443Y020750D01*
X024693Y021000D01*
X025193Y021000D01*
X025443Y020750D01*
X025693Y021000D01*
X026193Y021000D01*
X026443Y020750D01*
X026693Y021000D01*
X027193Y021000D01*
X027443Y020750D01*
X027693Y021000D01*
X028193Y021000D01*
X028443Y020750D01*
X028693Y021000D01*
X029193Y021000D01*
X029443Y020750D01*
X029693Y021000D01*
X030193Y021000D01*
X030443Y020750D01*
X030443Y020250D01*
X021843Y020250D02*
X021593Y020000D01*
X021093Y020000D01*
X020843Y020250D01*
X020593Y020000D01*
X020093Y020000D01*
X019843Y020250D01*
X019593Y020000D01*
X019093Y020000D01*
X018843Y020250D01*
X018593Y020000D01*
X018093Y020000D01*
X017843Y020250D01*
X017593Y020000D01*
X017093Y020000D01*
X016843Y020250D01*
X016593Y020000D01*
X016093Y020000D01*
X015843Y020250D01*
X015593Y020000D01*
X015093Y020000D01*
X014843Y020250D01*
X014593Y020000D01*
X014093Y020000D01*
X013843Y020250D01*
X013818Y020250D02*
X013568Y020000D01*
X013068Y020000D01*
X012818Y020250D01*
X012568Y020000D01*
X012068Y020000D01*
X011818Y020250D01*
X011818Y020750D01*
X012068Y021000D01*
X012568Y021000D01*
X012818Y020750D01*
X013068Y021000D01*
X013568Y021000D01*
X013818Y020750D01*
X013843Y020750D02*
X014093Y021000D01*
X014593Y021000D01*
X014843Y020750D01*
X015093Y021000D01*
X015593Y021000D01*
X015843Y020750D01*
X016093Y021000D01*
X016593Y021000D01*
X016843Y020750D01*
X017093Y021000D01*
X017593Y021000D01*
X017843Y020750D01*
X018093Y021000D01*
X018593Y021000D01*
X018843Y020750D01*
X019093Y021000D01*
X019593Y021000D01*
X019843Y020750D01*
X020093Y021000D01*
X020593Y021000D01*
X020843Y020750D01*
X021093Y021000D01*
X021593Y021000D01*
X021843Y020750D01*
X021843Y020250D01*
D15*
X021451Y019880D02*
X021498Y019833D01*
X021498Y019787D01*
X021451Y019740D01*
X021358Y019740D01*
X021311Y019787D01*
X021311Y019833D01*
X021358Y019880D01*
X021451Y019880D01*
X021451Y019740D02*
X021498Y019693D01*
X021498Y019646D01*
X021451Y019600D01*
X021358Y019600D01*
X021311Y019646D01*
X021311Y019693D01*
X021358Y019740D01*
X020498Y019693D02*
X020451Y019740D01*
X020311Y019740D01*
X020311Y019833D02*
X020311Y019646D01*
X020358Y019600D01*
X020451Y019600D01*
X020498Y019646D01*
X020498Y019693D01*
X020498Y019833D02*
X020451Y019880D01*
X020358Y019880D01*
X020311Y019833D01*
X019623Y019880D02*
X019436Y019880D01*
X019529Y019880D02*
X019529Y019600D01*
X019623Y019693D01*
X019328Y019646D02*
X019328Y019833D01*
X019141Y019646D01*
X019141Y019833D01*
X019188Y019880D01*
X019281Y019880D01*
X019328Y019833D01*
X019328Y019646D02*
X019281Y019600D01*
X019188Y019600D01*
X019141Y019646D01*
X018623Y019693D02*
X018529Y019600D01*
X018529Y019880D01*
X018436Y019880D02*
X018623Y019880D01*
X018328Y019880D02*
X018141Y019880D01*
X018235Y019880D02*
X018235Y019600D01*
X018328Y019693D01*
X017623Y019693D02*
X017529Y019600D01*
X017529Y019880D01*
X017436Y019880D02*
X017623Y019880D01*
X017328Y019880D02*
X017141Y019693D01*
X017141Y019646D01*
X017188Y019600D01*
X017281Y019600D01*
X017328Y019646D01*
X017328Y019880D02*
X017141Y019880D01*
X016623Y019880D02*
X016436Y019880D01*
X016529Y019880D02*
X016529Y019600D01*
X016623Y019693D01*
X016328Y019646D02*
X016281Y019600D01*
X016188Y019600D01*
X016141Y019646D01*
X016141Y019693D01*
X016188Y019740D01*
X016141Y019787D01*
X016141Y019833D01*
X016188Y019880D01*
X016281Y019880D01*
X016328Y019833D01*
X016235Y019740D02*
X016188Y019740D01*
X010890Y015763D02*
X010890Y015456D01*
X010737Y015609D02*
X011044Y015609D01*
X009272Y014035D02*
X008965Y014035D01*
X022811Y019600D02*
X022811Y019646D01*
X022998Y019833D01*
X022998Y019880D01*
X022998Y019600D02*
X022811Y019600D01*
X023811Y019600D02*
X023904Y019646D01*
X023998Y019740D01*
X023858Y019740D01*
X023811Y019787D01*
X023811Y019833D01*
X023858Y019880D01*
X023951Y019880D01*
X023998Y019833D01*
X023998Y019740D01*
X024811Y019740D02*
X024811Y019833D01*
X024858Y019880D01*
X024951Y019880D01*
X024998Y019833D01*
X024998Y019740D02*
X024904Y019693D01*
X024858Y019693D01*
X024811Y019740D01*
X024811Y019600D02*
X024998Y019600D01*
X024998Y019740D01*
X025811Y019740D02*
X025998Y019740D01*
X025858Y019600D01*
X025858Y019880D01*
X026811Y019833D02*
X026811Y019787D01*
X026858Y019740D01*
X026904Y019740D01*
X026858Y019740D02*
X026811Y019693D01*
X026811Y019646D01*
X026858Y019600D01*
X026951Y019600D01*
X026998Y019646D01*
X026998Y019833D02*
X026951Y019880D01*
X026858Y019880D01*
X026811Y019833D01*
X027811Y019880D02*
X027998Y019880D01*
X027811Y019693D01*
X027811Y019646D01*
X027858Y019600D01*
X027951Y019600D01*
X027998Y019646D01*
X040963Y021072D02*
X041015Y021020D01*
X041118Y021020D01*
X041170Y021072D01*
X041170Y021175D01*
X041118Y021227D01*
X041066Y021227D01*
X040963Y021175D01*
X040963Y021330D01*
X041170Y021330D01*
X041285Y021330D02*
X041285Y021123D01*
X041389Y021020D01*
X041492Y021123D01*
X041492Y021330D01*
X041348Y019811D02*
X041348Y019625D01*
X041161Y019811D01*
X041114Y019811D01*
X041068Y019765D01*
X041068Y019671D01*
X041114Y019625D01*
X041114Y019517D02*
X041068Y019470D01*
X041068Y019377D01*
X041114Y019330D01*
X041114Y019517D02*
X041161Y019517D01*
X041348Y019330D01*
X041348Y019517D01*
X041208Y018811D02*
X041208Y018625D01*
X041068Y018765D01*
X041348Y018765D01*
X041348Y018517D02*
X041348Y018330D01*
X041161Y018517D01*
X041114Y018517D01*
X041068Y018470D01*
X041068Y018377D01*
X041114Y018330D01*
X041068Y017811D02*
X041114Y017718D01*
X041208Y017625D01*
X041208Y017765D01*
X041254Y017811D01*
X041301Y017811D01*
X041348Y017765D01*
X041348Y017671D01*
X041301Y017625D01*
X041208Y017625D01*
X041161Y017517D02*
X041114Y017517D01*
X041068Y017470D01*
X041068Y017377D01*
X041114Y017330D01*
X041161Y017517D02*
X041348Y017330D01*
X041348Y017517D01*
X041301Y016811D02*
X041348Y016765D01*
X041348Y016671D01*
X041301Y016625D01*
X041254Y016625D01*
X041208Y016671D01*
X041208Y016765D01*
X041254Y016811D01*
X041301Y016811D01*
X041208Y016765D02*
X041161Y016811D01*
X041114Y016811D01*
X041068Y016765D01*
X041068Y016671D01*
X041114Y016625D01*
X041161Y016625D01*
X041208Y016671D01*
X041161Y016517D02*
X041114Y016517D01*
X041068Y016470D01*
X041068Y016377D01*
X041114Y016330D01*
X041161Y016517D02*
X041348Y016330D01*
X041348Y016517D01*
X041301Y015811D02*
X041348Y015765D01*
X041348Y015671D01*
X041301Y015625D01*
X041114Y015811D01*
X041301Y015811D01*
X041301Y015625D02*
X041114Y015625D01*
X041068Y015671D01*
X041068Y015765D01*
X041114Y015811D01*
X041114Y015517D02*
X041161Y015517D01*
X041208Y015470D01*
X041254Y015517D01*
X041301Y015517D01*
X041348Y015470D01*
X041348Y015377D01*
X041301Y015330D01*
X041208Y015423D02*
X041208Y015470D01*
X041114Y015517D02*
X041068Y015470D01*
X041068Y015377D01*
X041114Y015330D01*
X041114Y014811D02*
X041068Y014765D01*
X041068Y014671D01*
X041114Y014625D01*
X041114Y014517D02*
X041161Y014517D01*
X041208Y014470D01*
X041254Y014517D01*
X041301Y014517D01*
X041348Y014470D01*
X041348Y014377D01*
X041301Y014330D01*
X041208Y014423D02*
X041208Y014470D01*
X041114Y014517D02*
X041068Y014470D01*
X041068Y014377D01*
X041114Y014330D01*
X041348Y014625D02*
X041161Y014811D01*
X041114Y014811D01*
X041348Y014811D02*
X041348Y014625D01*
X041208Y013811D02*
X041208Y013625D01*
X041068Y013765D01*
X041348Y013765D01*
X041301Y013517D02*
X041348Y013470D01*
X041348Y013377D01*
X041301Y013330D01*
X041208Y013423D02*
X041208Y013470D01*
X041254Y013517D01*
X041301Y013517D01*
X041208Y013470D02*
X041161Y013517D01*
X041114Y013517D01*
X041068Y013470D01*
X041068Y013377D01*
X041114Y013330D01*
X041068Y012811D02*
X041114Y012718D01*
X041208Y012625D01*
X041208Y012765D01*
X041254Y012811D01*
X041301Y012811D01*
X041348Y012765D01*
X041348Y012671D01*
X041301Y012625D01*
X041208Y012625D01*
X041254Y012517D02*
X041301Y012517D01*
X041348Y012470D01*
X041348Y012377D01*
X041301Y012330D01*
X041208Y012423D02*
X041208Y012470D01*
X041254Y012517D01*
X041208Y012470D02*
X041161Y012517D01*
X041114Y012517D01*
X041068Y012470D01*
X041068Y012377D01*
X041114Y012330D01*
X041114Y011811D02*
X041161Y011811D01*
X041208Y011765D01*
X041208Y011671D01*
X041161Y011625D01*
X041114Y011625D01*
X041068Y011671D01*
X041068Y011765D01*
X041114Y011811D01*
X041208Y011765D02*
X041254Y011811D01*
X041301Y011811D01*
X041348Y011765D01*
X041348Y011671D01*
X041301Y011625D01*
X041254Y011625D01*
X041208Y011671D01*
X041254Y011517D02*
X041301Y011517D01*
X041348Y011470D01*
X041348Y011377D01*
X041301Y011330D01*
X041208Y011423D02*
X041208Y011470D01*
X041254Y011517D01*
X041208Y011470D02*
X041161Y011517D01*
X041114Y011517D01*
X041068Y011470D01*
X041068Y011377D01*
X041114Y011330D01*
X041114Y010811D02*
X041301Y010625D01*
X041348Y010671D01*
X041348Y010765D01*
X041301Y010811D01*
X041114Y010811D01*
X041068Y010765D01*
X041068Y010671D01*
X041114Y010625D01*
X041301Y010625D01*
X041208Y010517D02*
X041208Y010330D01*
X041068Y010470D01*
X041348Y010470D01*
X041348Y009811D02*
X041348Y009625D01*
X041161Y009811D01*
X041114Y009811D01*
X041068Y009765D01*
X041068Y009671D01*
X041114Y009625D01*
X041208Y009517D02*
X041208Y009330D01*
X041068Y009470D01*
X041348Y009470D01*
X041208Y008811D02*
X041208Y008625D01*
X041068Y008765D01*
X041348Y008765D01*
X041208Y008517D02*
X041208Y008330D01*
X041068Y008470D01*
X041348Y008470D01*
X041301Y007811D02*
X041254Y007811D01*
X041208Y007765D01*
X041208Y007625D01*
X041301Y007625D01*
X041348Y007671D01*
X041348Y007765D01*
X041301Y007811D01*
X041208Y007625D02*
X041114Y007718D01*
X041068Y007811D01*
X041208Y007517D02*
X041208Y007330D01*
X041068Y007470D01*
X041348Y007470D01*
X041301Y006811D02*
X041348Y006765D01*
X041348Y006671D01*
X041301Y006625D01*
X041254Y006625D01*
X041208Y006671D01*
X041208Y006765D01*
X041254Y006811D01*
X041301Y006811D01*
X041208Y006765D02*
X041161Y006811D01*
X041114Y006811D01*
X041068Y006765D01*
X041068Y006671D01*
X041114Y006625D01*
X041161Y006625D01*
X041208Y006671D01*
X041208Y006517D02*
X041208Y006330D01*
X041068Y006470D01*
X041348Y006470D01*
X041301Y005811D02*
X041348Y005765D01*
X041348Y005671D01*
X041301Y005625D01*
X041114Y005811D01*
X041301Y005811D01*
X041301Y005625D02*
X041114Y005625D01*
X041068Y005671D01*
X041068Y005765D01*
X041114Y005811D01*
X041068Y005517D02*
X041068Y005330D01*
X041208Y005330D01*
X041161Y005423D01*
X041161Y005470D01*
X041208Y005517D01*
X041301Y005517D01*
X041348Y005470D01*
X041348Y005377D01*
X041301Y005330D01*
X041348Y004811D02*
X041348Y004625D01*
X041161Y004811D01*
X041114Y004811D01*
X041068Y004765D01*
X041068Y004671D01*
X041114Y004625D01*
X041068Y004517D02*
X041068Y004330D01*
X041208Y004330D01*
X041161Y004423D01*
X041161Y004470D01*
X041208Y004517D01*
X041301Y004517D01*
X041348Y004470D01*
X041348Y004377D01*
X041301Y004330D01*
X043558Y004270D02*
X043698Y004270D01*
X043651Y004363D01*
X043651Y004410D01*
X043698Y004457D01*
X043791Y004457D01*
X043838Y004410D01*
X043838Y004317D01*
X043791Y004270D01*
X043558Y004270D02*
X043558Y004457D01*
X043604Y004565D02*
X043558Y004611D01*
X043558Y004705D01*
X043604Y004751D01*
X043651Y004751D01*
X043698Y004705D01*
X043744Y004751D01*
X043791Y004751D01*
X043838Y004705D01*
X043838Y004611D01*
X043791Y004565D01*
X043698Y004658D02*
X043698Y004705D01*
X043698Y005270D02*
X043651Y005363D01*
X043651Y005410D01*
X043698Y005457D01*
X043791Y005457D01*
X043838Y005410D01*
X043838Y005317D01*
X043791Y005270D01*
X043698Y005270D02*
X043558Y005270D01*
X043558Y005457D01*
X043651Y005565D02*
X043558Y005658D01*
X043838Y005658D01*
X043838Y005565D02*
X043838Y005751D01*
X043698Y006270D02*
X043698Y006457D01*
X043651Y006565D02*
X043698Y006611D01*
X043698Y006751D01*
X043791Y006751D02*
X043604Y006751D01*
X043558Y006705D01*
X043558Y006611D01*
X043604Y006565D01*
X043651Y006565D01*
X043791Y006565D02*
X043838Y006611D01*
X043838Y006705D01*
X043791Y006751D01*
X043838Y006410D02*
X043558Y006410D01*
X043698Y006270D01*
X043698Y007270D02*
X043698Y007457D01*
X043791Y007565D02*
X043604Y007751D01*
X043558Y007751D01*
X043558Y007565D01*
X043558Y007410D02*
X043698Y007270D01*
X043838Y007410D02*
X043558Y007410D01*
X043791Y007565D02*
X043838Y007565D01*
X043698Y008270D02*
X043698Y008457D01*
X043698Y008565D02*
X043651Y008658D01*
X043651Y008705D01*
X043698Y008751D01*
X043791Y008751D01*
X043838Y008705D01*
X043838Y008611D01*
X043791Y008565D01*
X043698Y008565D02*
X043558Y008565D01*
X043558Y008751D01*
X043558Y008410D02*
X043698Y008270D01*
X043838Y008410D02*
X043558Y008410D01*
X043698Y009270D02*
X043698Y009457D01*
X043791Y009565D02*
X043838Y009611D01*
X043838Y009705D01*
X043791Y009751D01*
X043744Y009751D01*
X043698Y009705D01*
X043698Y009658D01*
X043698Y009705D02*
X043651Y009751D01*
X043604Y009751D01*
X043558Y009705D01*
X043558Y009611D01*
X043604Y009565D01*
X043558Y009410D02*
X043698Y009270D01*
X043838Y009410D02*
X043558Y009410D01*
X043698Y010270D02*
X043698Y010457D01*
X043651Y010565D02*
X043558Y010658D01*
X043838Y010658D01*
X043838Y010565D02*
X043838Y010751D01*
X043791Y011270D02*
X043838Y011317D01*
X043838Y011410D01*
X043791Y011457D01*
X043744Y011457D01*
X043698Y011410D01*
X043698Y011363D01*
X043698Y011410D02*
X043651Y011457D01*
X043604Y011457D01*
X043558Y011410D01*
X043558Y011317D01*
X043604Y011270D01*
X043604Y011565D02*
X043651Y011565D01*
X043698Y011611D01*
X043698Y011751D01*
X043791Y011751D02*
X043604Y011751D01*
X043558Y011705D01*
X043558Y011611D01*
X043604Y011565D01*
X043791Y011565D02*
X043838Y011611D01*
X043838Y011705D01*
X043791Y011751D01*
X043791Y012270D02*
X043838Y012317D01*
X043838Y012410D01*
X043791Y012457D01*
X043744Y012457D01*
X043698Y012410D01*
X043698Y012363D01*
X043698Y012410D02*
X043651Y012457D01*
X043604Y012457D01*
X043558Y012410D01*
X043558Y012317D01*
X043604Y012270D01*
X043558Y012565D02*
X043558Y012751D01*
X043604Y012751D01*
X043791Y012565D01*
X043838Y012565D01*
X043791Y014270D02*
X043838Y014317D01*
X043838Y014410D01*
X043791Y014457D01*
X043744Y014457D01*
X043698Y014410D01*
X043698Y014363D01*
X043698Y014410D02*
X043651Y014457D01*
X043604Y014457D01*
X043558Y014410D01*
X043558Y014317D01*
X043604Y014270D01*
X043604Y014565D02*
X043558Y014611D01*
X043558Y014705D01*
X043604Y014751D01*
X043651Y014751D01*
X043698Y014705D01*
X043744Y014751D01*
X043791Y014751D01*
X043838Y014705D01*
X043838Y014611D01*
X043791Y014565D01*
X043698Y014658D02*
X043698Y014705D01*
X043791Y015270D02*
X043838Y015317D01*
X043838Y015410D01*
X043791Y015457D01*
X043744Y015457D01*
X043698Y015410D01*
X043698Y015363D01*
X043698Y015410D02*
X043651Y015457D01*
X043604Y015457D01*
X043558Y015410D01*
X043558Y015317D01*
X043604Y015270D01*
X043651Y015565D02*
X043558Y015658D01*
X043838Y015658D01*
X043838Y015565D02*
X043838Y015751D01*
X043838Y010410D02*
X043558Y010410D01*
X043698Y010270D01*
X043760Y003510D02*
X043713Y003464D01*
X043713Y003277D01*
X043760Y003230D01*
X043853Y003230D01*
X043900Y003277D01*
X043900Y003370D01*
X043806Y003370D01*
X043900Y003464D02*
X043853Y003510D01*
X043760Y003510D01*
X044007Y003510D02*
X044194Y003230D01*
X044194Y003510D01*
X044302Y003510D02*
X044442Y003510D01*
X044489Y003464D01*
X044489Y003277D01*
X044442Y003230D01*
X044302Y003230D01*
X044302Y003510D01*
X044007Y003510D02*
X044007Y003230D01*
X041295Y002405D02*
X041108Y002405D01*
X041108Y002265D01*
X041202Y002312D01*
X041248Y002312D01*
X041295Y002265D01*
X041295Y002172D01*
X041248Y002125D01*
X041155Y002125D01*
X041108Y002172D01*
X041000Y002125D02*
X040814Y002125D01*
X040907Y002125D02*
X040907Y002405D01*
X040814Y002312D01*
X040706Y002312D02*
X040706Y002125D01*
X040706Y002265D02*
X040519Y002265D01*
X040519Y002312D02*
X040612Y002405D01*
X040706Y002312D01*
X040519Y002312D02*
X040519Y002125D01*
X040295Y002265D02*
X040108Y002265D01*
X040248Y002405D01*
X040248Y002125D01*
X040000Y002125D02*
X039814Y002125D01*
X039907Y002125D02*
X039907Y002405D01*
X039814Y002312D01*
X039706Y002312D02*
X039706Y002125D01*
X039706Y002265D02*
X039519Y002265D01*
X039519Y002312D02*
X039612Y002405D01*
X039706Y002312D01*
X039519Y002312D02*
X039519Y002125D01*
X039295Y002172D02*
X039248Y002125D01*
X039155Y002125D01*
X039108Y002172D01*
X039000Y002125D02*
X038814Y002125D01*
X038907Y002125D02*
X038907Y002405D01*
X038814Y002312D01*
X038706Y002312D02*
X038706Y002125D01*
X038706Y002265D02*
X038519Y002265D01*
X038519Y002312D02*
X038612Y002405D01*
X038706Y002312D01*
X038519Y002312D02*
X038519Y002125D01*
X038295Y002125D02*
X038108Y002125D01*
X038295Y002312D01*
X038295Y002359D01*
X038248Y002405D01*
X038155Y002405D01*
X038108Y002359D01*
X037907Y002405D02*
X037907Y002125D01*
X037814Y002125D02*
X038000Y002125D01*
X037814Y002312D02*
X037907Y002405D01*
X037706Y002312D02*
X037706Y002125D01*
X037706Y002265D02*
X037519Y002265D01*
X037519Y002312D02*
X037612Y002405D01*
X037706Y002312D01*
X037519Y002312D02*
X037519Y002125D01*
X037295Y002125D02*
X037108Y002125D01*
X037202Y002125D02*
X037202Y002405D01*
X037108Y002312D01*
X037000Y002125D02*
X036814Y002125D01*
X036907Y002125D02*
X036907Y002405D01*
X036814Y002312D01*
X036706Y002312D02*
X036706Y002125D01*
X036706Y002265D02*
X036519Y002265D01*
X036519Y002312D02*
X036612Y002405D01*
X036706Y002312D01*
X036519Y002312D02*
X036519Y002125D01*
X036295Y002172D02*
X036295Y002359D01*
X036108Y002172D01*
X036155Y002125D01*
X036248Y002125D01*
X036295Y002172D01*
X036295Y002359D02*
X036248Y002405D01*
X036155Y002405D01*
X036108Y002359D01*
X036108Y002172D01*
X036000Y002125D02*
X035814Y002125D01*
X035907Y002125D02*
X035907Y002405D01*
X035814Y002312D01*
X035706Y002312D02*
X035706Y002125D01*
X035706Y002265D02*
X035519Y002265D01*
X035519Y002312D02*
X035612Y002405D01*
X035706Y002312D01*
X035519Y002312D02*
X035519Y002125D01*
X035170Y002172D02*
X035170Y002359D01*
X035123Y002405D01*
X035030Y002405D01*
X034983Y002359D01*
X034983Y002312D01*
X035030Y002265D01*
X035170Y002265D01*
X035170Y002172D02*
X035123Y002125D01*
X035030Y002125D01*
X034983Y002172D01*
X034875Y002125D02*
X034875Y002312D01*
X034782Y002405D01*
X034689Y002312D01*
X034689Y002125D01*
X034689Y002265D02*
X034875Y002265D01*
X034170Y002218D02*
X034170Y002172D01*
X034123Y002125D01*
X034030Y002125D01*
X033983Y002172D01*
X033983Y002218D01*
X034030Y002265D01*
X034123Y002265D01*
X034170Y002218D01*
X034123Y002265D02*
X034170Y002312D01*
X034170Y002359D01*
X034123Y002405D01*
X034030Y002405D01*
X033983Y002359D01*
X033983Y002312D01*
X034030Y002265D01*
X033875Y002265D02*
X033689Y002265D01*
X033689Y002312D02*
X033782Y002405D01*
X033875Y002312D01*
X033875Y002125D01*
X033689Y002125D02*
X033689Y002312D01*
X032170Y002359D02*
X031983Y002172D01*
X031983Y002125D01*
X031875Y002125D02*
X031875Y002312D01*
X031782Y002405D01*
X031689Y002312D01*
X031689Y002125D01*
X031689Y002265D02*
X031875Y002265D01*
X031983Y002405D02*
X032170Y002405D01*
X032170Y002359D01*
X031170Y002405D02*
X031077Y002359D01*
X030983Y002265D01*
X031123Y002265D01*
X031170Y002218D01*
X031170Y002172D01*
X031123Y002125D01*
X031030Y002125D01*
X030983Y002172D01*
X030983Y002265D01*
X030875Y002265D02*
X030689Y002265D01*
X030689Y002312D02*
X030782Y002405D01*
X030875Y002312D01*
X030875Y002125D01*
X030689Y002125D02*
X030689Y002312D01*
X030170Y002265D02*
X030170Y002172D01*
X030123Y002125D01*
X030030Y002125D01*
X029983Y002172D01*
X029983Y002265D02*
X030077Y002312D01*
X030123Y002312D01*
X030170Y002265D01*
X030170Y002405D02*
X029983Y002405D01*
X029983Y002265D01*
X029875Y002265D02*
X029689Y002265D01*
X029689Y002312D02*
X029782Y002405D01*
X029875Y002312D01*
X029875Y002125D01*
X029689Y002125D02*
X029689Y002312D01*
X029170Y002265D02*
X028983Y002265D01*
X029123Y002405D01*
X029123Y002125D01*
X028875Y002125D02*
X028875Y002312D01*
X028782Y002405D01*
X028689Y002312D01*
X028689Y002125D01*
X028689Y002265D02*
X028875Y002265D01*
X028170Y002218D02*
X028170Y002172D01*
X028123Y002125D01*
X028030Y002125D01*
X027983Y002172D01*
X027875Y002125D02*
X027875Y002312D01*
X027782Y002405D01*
X027689Y002312D01*
X027689Y002125D01*
X027689Y002265D02*
X027875Y002265D01*
X027983Y002359D02*
X028030Y002405D01*
X028123Y002405D01*
X028170Y002359D01*
X028170Y002312D01*
X028123Y002265D01*
X028170Y002218D01*
X028123Y002265D02*
X028077Y002265D01*
X027170Y002312D02*
X027170Y002359D01*
X027123Y002405D01*
X027030Y002405D01*
X026983Y002359D01*
X026875Y002312D02*
X026875Y002125D01*
X026983Y002125D02*
X027170Y002312D01*
X027170Y002125D02*
X026983Y002125D01*
X026875Y002265D02*
X026689Y002265D01*
X026689Y002312D02*
X026782Y002405D01*
X026875Y002312D01*
X026689Y002312D02*
X026689Y002125D01*
X026170Y002150D02*
X025983Y002150D01*
X026077Y002150D02*
X026077Y002430D01*
X025983Y002337D01*
X025875Y002337D02*
X025875Y002150D01*
X025875Y002290D02*
X025689Y002290D01*
X025689Y002337D02*
X025782Y002430D01*
X025875Y002337D01*
X025689Y002337D02*
X025689Y002150D01*
X025170Y002172D02*
X025170Y002359D01*
X024983Y002172D01*
X025030Y002125D01*
X025123Y002125D01*
X025170Y002172D01*
X025170Y002359D02*
X025123Y002405D01*
X025030Y002405D01*
X024983Y002359D01*
X024983Y002172D01*
X024875Y002125D02*
X024875Y002312D01*
X024782Y002405D01*
X024689Y002312D01*
X024689Y002125D01*
X024689Y002265D02*
X024875Y002265D01*
X039108Y002359D02*
X039155Y002405D01*
X039248Y002405D01*
X039295Y002359D01*
X039295Y002312D01*
X039248Y002265D01*
X039295Y002218D01*
X039295Y002172D01*
X039248Y002265D02*
X039202Y002265D01*
D16*
X037068Y004229D02*
X037068Y004529D01*
X037068Y004379D02*
X036617Y004379D01*
X036768Y004229D01*
X036843Y004690D02*
X036843Y004915D01*
X036918Y004990D01*
X036993Y004990D01*
X037068Y004915D01*
X037068Y004765D01*
X036993Y004690D01*
X036843Y004690D01*
X036693Y004840D01*
X036617Y004990D01*
X032228Y005375D02*
X032228Y005450D01*
X032153Y005525D01*
X031928Y005525D01*
X031928Y005375D01*
X032003Y005300D01*
X032153Y005300D01*
X032228Y005375D01*
X032078Y005675D02*
X031928Y005525D01*
X032078Y005675D02*
X032228Y005750D01*
X031618Y005750D02*
X031618Y005300D01*
X031468Y005300D02*
X031768Y005300D01*
X031468Y005600D02*
X031618Y005750D01*
X024918Y002950D02*
X024918Y002500D01*
X024768Y002500D02*
X025068Y002500D01*
X024768Y002800D02*
X024918Y002950D01*
X033817Y011540D02*
X034268Y011540D01*
X034268Y011390D02*
X034268Y011690D01*
X033968Y011390D02*
X033817Y011540D01*
X043563Y013320D02*
X043563Y013410D01*
X043608Y013455D01*
X043653Y013455D01*
X043698Y013410D01*
X043743Y013455D01*
X043788Y013455D01*
X043833Y013410D01*
X043833Y013320D01*
X043788Y013275D01*
X043698Y013365D02*
X043698Y013410D01*
X043698Y013570D02*
X043653Y013660D01*
X043653Y013705D01*
X043698Y013750D01*
X043788Y013750D01*
X043833Y013705D01*
X043833Y013615D01*
X043788Y013570D01*
X043698Y013570D02*
X043563Y013570D01*
X043563Y013750D01*
X043563Y013320D02*
X043608Y013275D01*
X011768Y013694D02*
X011374Y013300D01*
X008618Y013300D01*
X008618Y016450D01*
X011374Y016450D01*
X011768Y016056D01*
X011768Y013694D01*
X008618Y014875D02*
X008620Y014954D01*
X008626Y015033D01*
X008636Y015112D01*
X008650Y015190D01*
X008667Y015267D01*
X008689Y015343D01*
X008714Y015418D01*
X008744Y015491D01*
X008776Y015563D01*
X008813Y015634D01*
X008853Y015702D01*
X008896Y015768D01*
X008942Y015832D01*
X008992Y015894D01*
X009045Y015953D01*
X009100Y016009D01*
X009159Y016063D01*
X009220Y016113D01*
X009283Y016161D01*
X009349Y016205D01*
X009417Y016246D01*
X009487Y016283D01*
X009558Y016317D01*
X009632Y016347D01*
X009706Y016373D01*
X009782Y016395D01*
X009859Y016414D01*
X009937Y016429D01*
X010015Y016440D01*
X010094Y016447D01*
X010173Y016450D01*
X010252Y016449D01*
X010331Y016444D01*
X010410Y016435D01*
X010488Y016422D01*
X010565Y016405D01*
X010642Y016385D01*
X010717Y016360D01*
X010791Y016332D01*
X010864Y016300D01*
X010934Y016265D01*
X011003Y016226D01*
X011070Y016183D01*
X011135Y016137D01*
X011197Y016089D01*
X011257Y016037D01*
X011314Y015982D01*
X011368Y015924D01*
X011419Y015864D01*
X011467Y015801D01*
X011512Y015736D01*
X011554Y015668D01*
X011592Y015599D01*
X011626Y015528D01*
X011657Y015455D01*
X011685Y015380D01*
X011708Y015305D01*
X011728Y015228D01*
X011744Y015151D01*
X011756Y015072D01*
X011764Y014994D01*
X011768Y014915D01*
X011768Y014835D01*
X011764Y014756D01*
X011756Y014678D01*
X011744Y014599D01*
X011728Y014522D01*
X011708Y014445D01*
X011685Y014370D01*
X011657Y014295D01*
X011626Y014222D01*
X011592Y014151D01*
X011554Y014082D01*
X011512Y014014D01*
X011467Y013949D01*
X011419Y013886D01*
X011368Y013826D01*
X011314Y013768D01*
X011257Y013713D01*
X011197Y013661D01*
X011135Y013613D01*
X011070Y013567D01*
X011003Y013524D01*
X010934Y013485D01*
X010864Y013450D01*
X010791Y013418D01*
X010717Y013390D01*
X010642Y013365D01*
X010565Y013345D01*
X010488Y013328D01*
X010410Y013315D01*
X010331Y013306D01*
X010252Y013301D01*
X010173Y013300D01*
X010094Y013303D01*
X010015Y013310D01*
X009937Y013321D01*
X009859Y013336D01*
X009782Y013355D01*
X009706Y013377D01*
X009632Y013403D01*
X009558Y013433D01*
X009487Y013467D01*
X009417Y013504D01*
X009349Y013545D01*
X009283Y013589D01*
X009220Y013637D01*
X009159Y013687D01*
X009100Y013741D01*
X009045Y013797D01*
X008992Y013856D01*
X008942Y013918D01*
X008896Y013982D01*
X008853Y014048D01*
X008813Y014116D01*
X008776Y014187D01*
X008744Y014259D01*
X008714Y014332D01*
X008689Y014407D01*
X008667Y014483D01*
X008650Y014560D01*
X008636Y014638D01*
X008626Y014717D01*
X008620Y014796D01*
X008618Y014875D01*
D17*
X012143Y012490D02*
X012143Y012343D01*
X012216Y012270D01*
X012289Y012343D01*
X012289Y012490D01*
X012364Y012417D02*
X012400Y012417D01*
X012437Y012380D01*
X012474Y012417D01*
X012510Y012380D01*
X012510Y012270D01*
X012437Y012270D02*
X012437Y012380D01*
X012364Y012417D02*
X012364Y012270D01*
X012585Y012307D02*
X012621Y012270D01*
X012695Y012270D01*
X012731Y012307D01*
X012731Y012380D01*
X012695Y012417D01*
X012621Y012417D01*
X012585Y012380D01*
X012585Y012307D01*
X012806Y012417D02*
X012879Y012417D01*
X012842Y012453D02*
X012842Y012307D01*
X012879Y012270D01*
X012842Y011490D02*
X012732Y011490D01*
X012732Y011270D01*
X012842Y011270D01*
X012879Y011307D01*
X012879Y011453D01*
X012842Y011490D01*
X012658Y011490D02*
X012658Y011270D01*
X012511Y011490D01*
X012511Y011270D01*
X012437Y011307D02*
X012400Y011270D01*
X012327Y011270D01*
X012290Y011307D01*
X012290Y011453D01*
X012327Y011490D01*
X012400Y011490D01*
X012437Y011453D01*
X012437Y011380D02*
X012363Y011380D01*
X012437Y011380D02*
X012437Y011307D01*
X012548Y010490D02*
X012511Y010453D01*
X012548Y010490D02*
X012621Y010490D01*
X012658Y010453D01*
X012658Y010417D01*
X012511Y010270D01*
X012658Y010270D01*
X012732Y010270D02*
X012842Y010270D01*
X012879Y010307D01*
X012879Y010343D01*
X012842Y010380D01*
X012732Y010380D01*
X012842Y010380D02*
X012879Y010417D01*
X012879Y010453D01*
X012842Y010490D01*
X012732Y010490D01*
X012732Y010270D01*
X012805Y009490D02*
X012879Y009417D01*
X012879Y009270D01*
X012879Y009380D02*
X012732Y009380D01*
X012732Y009417D02*
X012805Y009490D01*
X012732Y009417D02*
X012732Y009270D01*
X012658Y009270D02*
X012511Y009270D01*
X012658Y009417D01*
X012658Y009453D01*
X012621Y009490D01*
X012548Y009490D01*
X012511Y009453D01*
X012584Y008490D02*
X012584Y008270D01*
X012511Y008270D02*
X012658Y008270D01*
X012732Y008270D02*
X012732Y008417D01*
X012805Y008490D01*
X012879Y008417D01*
X012879Y008270D01*
X012879Y008380D02*
X012732Y008380D01*
X012584Y008490D02*
X012511Y008417D01*
X012584Y007490D02*
X012584Y007270D01*
X012511Y007270D02*
X012658Y007270D01*
X012732Y007270D02*
X012842Y007270D01*
X012879Y007307D01*
X012879Y007343D01*
X012842Y007380D01*
X012732Y007380D01*
X012842Y007380D02*
X012879Y007417D01*
X012879Y007453D01*
X012842Y007490D01*
X012732Y007490D01*
X012732Y007270D01*
X012511Y007417D02*
X012584Y007490D01*
X012621Y006490D02*
X012511Y006490D01*
X012511Y006270D01*
X012621Y006270D01*
X012658Y006307D01*
X012658Y006453D01*
X012621Y006490D01*
X012732Y006490D02*
X012732Y006270D01*
X012842Y006270D01*
X012879Y006307D01*
X012879Y006453D01*
X012842Y006490D01*
X012732Y006490D01*
X012437Y006490D02*
X012437Y006343D01*
X012363Y006270D01*
X012290Y006343D01*
X012290Y006490D01*
X012327Y005490D02*
X012290Y005453D01*
X012290Y005307D01*
X012327Y005270D01*
X012400Y005270D01*
X012437Y005307D01*
X012437Y005380D01*
X012363Y005380D01*
X012437Y005453D02*
X012400Y005490D01*
X012327Y005490D01*
X012511Y005490D02*
X012658Y005270D01*
X012658Y005490D01*
X012732Y005490D02*
X012842Y005490D01*
X012879Y005453D01*
X012879Y005307D01*
X012842Y005270D01*
X012732Y005270D01*
X012732Y005490D01*
X012511Y005490D02*
X012511Y005270D01*
X009763Y006120D02*
X009726Y006083D01*
X009616Y006083D01*
X009616Y006010D02*
X009616Y006230D01*
X009726Y006230D01*
X009763Y006193D01*
X009763Y006120D01*
X009542Y006010D02*
X009395Y006010D01*
X009395Y006230D01*
X009542Y006230D01*
X009468Y006120D02*
X009395Y006120D01*
X009321Y006230D02*
X009174Y006230D01*
X009247Y006230D02*
X009247Y006010D01*
X009100Y006047D02*
X009063Y006010D01*
X008990Y006010D01*
X008953Y006047D01*
X008990Y006120D02*
X009063Y006120D01*
X009100Y006083D01*
X009100Y006047D01*
X008990Y006120D02*
X008953Y006157D01*
X008953Y006193D01*
X008990Y006230D01*
X009063Y006230D01*
X009100Y006193D01*
X009063Y007010D02*
X008990Y007010D01*
X008953Y007047D01*
X008990Y007120D02*
X009063Y007120D01*
X009100Y007083D01*
X009100Y007047D01*
X009063Y007010D01*
X009174Y007010D02*
X009321Y007010D01*
X009395Y007010D02*
X009395Y007230D01*
X009505Y007230D01*
X009542Y007193D01*
X009542Y007120D01*
X009505Y007083D01*
X009395Y007083D01*
X009174Y007010D02*
X009174Y007230D01*
X009100Y007193D02*
X009063Y007230D01*
X008990Y007230D01*
X008953Y007193D01*
X008953Y007157D01*
X008990Y007120D01*
X008953Y008010D02*
X008953Y008230D01*
X009063Y008230D01*
X009100Y008193D01*
X009100Y008120D01*
X009063Y008083D01*
X008953Y008083D01*
X009026Y008083D02*
X009100Y008010D01*
X009174Y008047D02*
X009211Y008010D01*
X009284Y008010D01*
X009321Y008047D01*
X009321Y008083D01*
X009284Y008120D01*
X009211Y008120D01*
X009174Y008157D01*
X009174Y008193D01*
X009211Y008230D01*
X009284Y008230D01*
X009321Y008193D01*
X009395Y008230D02*
X009542Y008230D01*
X009468Y008230D02*
X009468Y008010D01*
X009432Y009010D02*
X009395Y009047D01*
X009432Y009010D02*
X009505Y009010D01*
X009542Y009047D01*
X009542Y009083D01*
X009505Y009120D01*
X009468Y009120D01*
X009505Y009120D02*
X009542Y009157D01*
X009542Y009193D01*
X009505Y009230D01*
X009432Y009230D01*
X009395Y009193D01*
X009321Y009193D02*
X009284Y009230D01*
X009211Y009230D01*
X009174Y009193D01*
X009174Y009157D01*
X009211Y009120D01*
X009284Y009120D01*
X009321Y009083D01*
X009321Y009047D01*
X009284Y009010D01*
X009211Y009010D01*
X009174Y009047D01*
X009100Y009010D02*
X009100Y009230D01*
X009026Y009157D01*
X008953Y009230D01*
X008953Y009010D01*
X008953Y010010D02*
X008953Y010230D01*
X009026Y010157D01*
X009100Y010230D01*
X009100Y010010D01*
X009174Y010047D02*
X009211Y010010D01*
X009284Y010010D01*
X009321Y010047D01*
X009321Y010083D01*
X009284Y010120D01*
X009211Y010120D01*
X009174Y010157D01*
X009174Y010193D01*
X009211Y010230D01*
X009284Y010230D01*
X009321Y010193D01*
X009395Y010193D02*
X009432Y010230D01*
X009505Y010230D01*
X009542Y010193D01*
X009542Y010157D01*
X009395Y010010D01*
X009542Y010010D01*
X009542Y011010D02*
X009395Y011010D01*
X009468Y011010D02*
X009468Y011230D01*
X009395Y011157D01*
X009321Y011193D02*
X009284Y011230D01*
X009211Y011230D01*
X009174Y011193D01*
X009174Y011157D01*
X009211Y011120D01*
X009284Y011120D01*
X009321Y011083D01*
X009321Y011047D01*
X009284Y011010D01*
X009211Y011010D01*
X009174Y011047D01*
X009100Y011010D02*
X009100Y011230D01*
X009026Y011157D01*
X008953Y011230D01*
X008953Y011010D01*
X008953Y012010D02*
X009100Y012010D01*
X009174Y012010D02*
X009174Y012230D01*
X009321Y012010D01*
X009321Y012230D01*
X009100Y012230D02*
X008953Y012230D01*
X008953Y012010D01*
X008953Y012120D02*
X009026Y012120D01*
X009063Y005230D02*
X008953Y005230D01*
X008953Y005010D01*
X009063Y005010D01*
X009100Y005047D01*
X009100Y005193D01*
X009063Y005230D01*
X009174Y005230D02*
X009247Y005230D01*
X009211Y005230D02*
X009211Y005010D01*
X009247Y005010D02*
X009174Y005010D01*
X009321Y005010D02*
X009321Y005230D01*
X009431Y005230D01*
X009468Y005193D01*
X009468Y005120D01*
X009431Y005083D01*
X009321Y005083D01*
X009395Y005083D02*
X009468Y005010D01*
M02*
