G75*
%MOIN*%
%OFA0B0*%
%FSLAX24Y24*%
%IPPOS*%
%LPD*%
%AMOC8*
5,1,8,0,0,1.08239X$1,22.5*
%
%ADD10C,0.0000*%
%ADD11C,0.0080*%
%ADD12C,0.0740*%
%ADD13OC8,0.0740*%
%ADD14R,0.0433X0.0394*%
%ADD15R,0.1000X0.0500*%
%ADD16R,0.0512X0.0591*%
%ADD17R,0.1614X0.0827*%
%ADD18R,0.0660X0.0320*%
%ADD19C,0.0560*%
%ADD20OC8,0.0560*%
%ADD21C,0.0554*%
%ADD22C,0.0600*%
%ADD23R,0.0394X0.0433*%
%ADD24R,0.0580X0.0550*%
%ADD25R,0.0200X0.0400*%
%ADD26OC8,0.0600*%
%ADD27R,0.0551X0.0394*%
%ADD28R,0.0500X0.1000*%
%ADD29C,0.0317*%
%ADD30C,0.0120*%
%ADD31C,0.0413*%
%ADD32C,0.0160*%
%ADD33C,0.0238*%
D10*
X004943Y000500D02*
X004943Y021495D01*
X043935Y021495D01*
X043935Y000500D01*
X004943Y000500D01*
D11*
X004943Y021500D01*
X042943Y021500D01*
X043943Y020500D01*
X043943Y016500D01*
X044943Y015500D01*
X044943Y002000D01*
X043943Y001000D01*
X043943Y000500D01*
X004943Y000500D01*
D12*
X015943Y001500D03*
X016943Y001500D03*
X017943Y001500D03*
X018943Y001500D03*
X019943Y001500D03*
X020943Y001500D03*
X021943Y001500D03*
X022943Y001500D03*
X024943Y001500D03*
X025943Y001500D03*
X026943Y001500D03*
X027943Y001500D03*
X028943Y001500D03*
X029943Y001500D03*
X030943Y001500D03*
X031943Y001500D03*
X033943Y001500D03*
X034943Y001500D03*
X035943Y001500D03*
X036943Y001500D03*
X037943Y001500D03*
X038943Y001500D03*
X039943Y001500D03*
X040943Y001500D03*
X041943Y003500D03*
X042943Y003500D03*
X042943Y020500D03*
X041943Y020500D03*
X038943Y020500D03*
X037943Y020500D03*
X036943Y020500D03*
X035943Y020500D03*
X034943Y020500D03*
X033943Y020500D03*
X032943Y020500D03*
X031943Y020500D03*
X029943Y020500D03*
X028943Y020500D03*
X027943Y020500D03*
X026943Y020500D03*
X025943Y020500D03*
X024943Y020500D03*
X023943Y020500D03*
X022943Y020500D03*
X021343Y020500D03*
X020343Y020500D03*
X019343Y020500D03*
X018343Y020500D03*
X017343Y020500D03*
X016343Y020500D03*
X015343Y020500D03*
X014343Y020500D03*
X013343Y020500D03*
X012343Y020500D03*
D13*
X041943Y019500D03*
X042943Y019500D03*
X042943Y018500D03*
X041943Y018500D03*
X041943Y017500D03*
X042943Y017500D03*
X042943Y016500D03*
X041943Y016500D03*
X041943Y015500D03*
X042943Y015500D03*
X042943Y014500D03*
X041943Y014500D03*
X041943Y013500D03*
X042943Y013500D03*
X042943Y012500D03*
X041943Y012500D03*
X041943Y011500D03*
X042943Y011500D03*
X042943Y010500D03*
X041943Y010500D03*
X041943Y009500D03*
X042943Y009500D03*
X042943Y008500D03*
X041943Y008500D03*
X041943Y007500D03*
X042943Y007500D03*
X042943Y006500D03*
X041943Y006500D03*
X041943Y005500D03*
X042943Y005500D03*
X042943Y004500D03*
X041943Y004500D03*
D14*
X029943Y007290D03*
X029943Y007960D03*
X028943Y007960D03*
X028943Y007290D03*
X027943Y007290D03*
X027943Y007960D03*
X026943Y007960D03*
X026943Y007290D03*
X025943Y007290D03*
X025943Y007960D03*
X024943Y007960D03*
X024943Y007290D03*
X024943Y009040D03*
X025943Y009040D03*
X026943Y009040D03*
X027943Y009040D03*
X027943Y009710D03*
X026943Y009710D03*
X025943Y009710D03*
X024943Y009710D03*
X028943Y009710D03*
X029943Y009710D03*
X029943Y009040D03*
X028943Y009040D03*
D15*
X006193Y017750D03*
X006193Y018875D03*
X006193Y020000D03*
D16*
X013233Y016000D03*
X013902Y016000D03*
X013902Y014875D03*
X013233Y014875D03*
D17*
X011551Y014875D03*
X008835Y014875D03*
D18*
X038068Y012125D03*
X038068Y011637D03*
X038068Y011149D03*
X038068Y010660D03*
X038068Y010172D03*
X038068Y009684D03*
X038068Y009196D03*
X038068Y008708D03*
X038068Y008219D03*
X038068Y007731D03*
X038068Y007243D03*
X038068Y006755D03*
X038068Y006267D03*
X038068Y005779D03*
X038068Y005290D03*
X038068Y004802D03*
X038068Y004314D03*
X038068Y003826D03*
D19*
X037818Y015375D03*
D20*
X036818Y015375D03*
X035818Y015375D03*
X034818Y015375D03*
X033818Y015375D03*
X033818Y014375D03*
X034818Y014375D03*
X035818Y014375D03*
X036818Y014375D03*
X037818Y014375D03*
X032818Y014375D03*
X031818Y014375D03*
X030818Y014375D03*
X029818Y014375D03*
X029818Y015375D03*
X030818Y015375D03*
X031818Y015375D03*
X032818Y015375D03*
X028818Y015375D03*
X027818Y015375D03*
X026818Y015375D03*
X025818Y015375D03*
X024818Y015375D03*
X024818Y014375D03*
X025818Y014375D03*
X026818Y014375D03*
X027818Y014375D03*
X028818Y014375D03*
X023818Y014375D03*
X022818Y014375D03*
X021818Y014375D03*
X020818Y014375D03*
X020818Y015375D03*
X021818Y015375D03*
X022818Y015375D03*
X023818Y015375D03*
X019818Y015375D03*
X018818Y015375D03*
X018818Y014375D03*
X019818Y014375D03*
D21*
X013443Y012250D03*
X013443Y011250D03*
X013443Y010250D03*
X013443Y009250D03*
X013443Y008250D03*
X013443Y007250D03*
X013443Y006250D03*
X013443Y005250D03*
X008443Y005250D03*
X008443Y006250D03*
X008443Y007250D03*
X008443Y008250D03*
X008443Y009250D03*
X008443Y010250D03*
X008443Y011250D03*
X008443Y012250D03*
D22*
X015818Y010250D03*
X015818Y009250D03*
X015818Y008250D03*
X015818Y007250D03*
D23*
X018858Y010625D03*
X019527Y010625D03*
X022483Y011375D03*
X023152Y011375D03*
X023858Y011375D03*
X024527Y011375D03*
X007152Y011250D03*
X006483Y011250D03*
X006483Y010250D03*
X007152Y010250D03*
X007152Y009250D03*
X006483Y009250D03*
D24*
X007068Y008130D03*
X007068Y007370D03*
X012318Y016745D03*
X012318Y017505D03*
D25*
X012318Y017125D03*
X007068Y007750D03*
D26*
X024943Y004625D03*
X025943Y004625D03*
X026943Y004625D03*
X027943Y004625D03*
X028943Y004625D03*
X029943Y004625D03*
X030943Y004625D03*
X031943Y004625D03*
X031943Y003625D03*
X030943Y003625D03*
X029943Y003625D03*
X028943Y003625D03*
X027943Y003625D03*
X026943Y003625D03*
X025943Y003625D03*
X024943Y003625D03*
X034943Y004625D03*
X035943Y004625D03*
X035943Y005625D03*
X034943Y005625D03*
X034943Y006625D03*
X035943Y006625D03*
X035943Y007625D03*
X034943Y007625D03*
X034943Y008625D03*
X035943Y008625D03*
X035943Y009625D03*
X034943Y009625D03*
X034943Y010625D03*
X035943Y010625D03*
X035943Y011625D03*
X034943Y011625D03*
D27*
X021251Y010250D03*
X020385Y009876D03*
X020385Y010624D03*
D28*
X020318Y005375D03*
X021318Y005375D03*
X018068Y005375D03*
X017068Y005375D03*
D29*
X024943Y006750D03*
X025943Y006750D03*
X026943Y006750D03*
X027943Y006750D03*
X028943Y006750D03*
X029943Y006750D03*
X006693Y017000D03*
X006193Y017000D03*
X005693Y017000D03*
D30*
X005693Y017250D01*
X006193Y017750D01*
X006693Y017250D01*
X006693Y017000D01*
X006193Y017000D02*
X006193Y017750D01*
X006253Y017801D02*
X007683Y017801D01*
X007683Y017683D02*
X006853Y017683D01*
X006853Y017690D02*
X006253Y017690D01*
X006253Y017810D01*
X006853Y017810D01*
X006853Y018021D01*
X006842Y018062D01*
X006821Y018098D01*
X006791Y018128D01*
X006755Y018149D01*
X006714Y018160D01*
X006253Y018160D01*
X006253Y017810D01*
X006133Y017810D01*
X006133Y018160D01*
X005672Y018160D01*
X005631Y018149D01*
X005595Y018128D01*
X005565Y018098D01*
X005544Y018062D01*
X005533Y018021D01*
X005533Y017810D01*
X006133Y017810D01*
X006133Y017690D01*
X006253Y017690D01*
X006253Y017340D01*
X006714Y017340D01*
X006755Y017351D01*
X006791Y017372D01*
X006821Y017402D01*
X006842Y017438D01*
X006853Y017479D01*
X006853Y017690D01*
X006853Y017564D02*
X007683Y017564D01*
X007683Y017446D02*
X006844Y017446D01*
X006853Y017920D02*
X007683Y017920D01*
X007683Y018038D02*
X006848Y018038D01*
X006727Y018157D02*
X007683Y018157D01*
X007683Y018275D02*
X005243Y018275D01*
X005243Y018157D02*
X005659Y018157D01*
X005537Y018038D02*
X005243Y018038D01*
X005243Y017920D02*
X005533Y017920D01*
X005533Y017690D02*
X005533Y017479D01*
X005544Y017438D01*
X005565Y017402D01*
X005595Y017372D01*
X005631Y017351D01*
X005672Y017340D01*
X006133Y017340D01*
X006133Y017690D01*
X005533Y017690D01*
X005533Y017683D02*
X005243Y017683D01*
X005243Y017801D02*
X006133Y017801D01*
X006133Y017683D02*
X006253Y017683D01*
X006253Y017564D02*
X006133Y017564D01*
X006133Y017446D02*
X006253Y017446D01*
X005542Y017446D02*
X005243Y017446D01*
X005243Y017564D02*
X005533Y017564D01*
X005243Y017327D02*
X007683Y017327D01*
X007683Y017209D02*
X005243Y017209D01*
X005243Y017090D02*
X007683Y017090D01*
X007683Y016972D02*
X005243Y016972D01*
X005243Y016853D02*
X007683Y016853D01*
X007683Y016735D02*
X005243Y016735D01*
X005243Y016616D02*
X007683Y016616D01*
X007683Y016498D02*
X005243Y016498D01*
X005243Y016379D02*
X007683Y016379D01*
X007683Y016358D02*
X007335Y016010D01*
X006016Y016010D01*
X005921Y015970D01*
X005847Y015897D01*
X005347Y015397D01*
X005308Y015302D01*
X005308Y004948D01*
X005347Y004853D01*
X005421Y004780D01*
X007296Y002905D01*
X007391Y002865D01*
X013789Y002865D01*
X013883Y002826D01*
X014002Y002826D01*
X014112Y002871D01*
X014196Y002956D01*
X014203Y002971D01*
X014203Y002952D01*
X014239Y002864D01*
X014307Y002797D01*
X014614Y002489D01*
X014682Y002422D01*
X014770Y002385D01*
X018703Y002385D01*
X018703Y001996D01*
X018631Y001966D01*
X018477Y001812D01*
X018443Y001730D01*
X018409Y001812D01*
X018254Y001966D01*
X018052Y002050D01*
X017833Y002050D01*
X017631Y001966D01*
X017477Y001812D01*
X017443Y001730D01*
X017409Y001812D01*
X017254Y001966D01*
X017052Y002050D01*
X016833Y002050D01*
X016631Y001966D01*
X016477Y001812D01*
X016443Y001730D01*
X016409Y001812D01*
X016254Y001966D01*
X016052Y002050D01*
X015833Y002050D01*
X015631Y001966D01*
X015477Y001812D01*
X015393Y001609D01*
X015393Y001391D01*
X015477Y001188D01*
X015631Y001034D01*
X015833Y000950D01*
X016052Y000950D01*
X016254Y001034D01*
X016409Y001188D01*
X016443Y001270D01*
X016477Y001188D01*
X016631Y001034D01*
X016833Y000950D01*
X017052Y000950D01*
X017254Y001034D01*
X017409Y001188D01*
X017443Y001270D01*
X017477Y001188D01*
X017631Y001034D01*
X017833Y000950D01*
X018052Y000950D01*
X018254Y001034D01*
X018409Y001188D01*
X018443Y001270D01*
X018477Y001188D01*
X018631Y001034D01*
X018833Y000950D01*
X019052Y000950D01*
X019254Y001034D01*
X019409Y001188D01*
X019443Y001270D01*
X019477Y001188D01*
X019631Y001034D01*
X019833Y000950D01*
X020052Y000950D01*
X020254Y001034D01*
X020409Y001188D01*
X020453Y001294D01*
X020490Y001222D01*
X020539Y001155D01*
X020598Y001096D01*
X020665Y001047D01*
X020739Y001009D01*
X020819Y000983D01*
X020901Y000970D01*
X020903Y000970D01*
X020903Y001460D01*
X020983Y001460D01*
X020983Y001540D01*
X021903Y001540D01*
X021903Y002030D01*
X021901Y002030D01*
X021819Y002017D01*
X021739Y001991D01*
X021665Y001953D01*
X021598Y001904D01*
X021539Y001845D01*
X021490Y001778D01*
X021452Y001703D01*
X021443Y001676D01*
X021434Y001703D01*
X021396Y001778D01*
X021347Y001845D01*
X021288Y001904D01*
X021221Y001953D01*
X021146Y001991D01*
X021067Y002017D01*
X020985Y002030D01*
X020983Y002030D01*
X020983Y001540D01*
X020903Y001540D01*
X020903Y002030D01*
X020901Y002030D01*
X020819Y002017D01*
X020739Y001991D01*
X020665Y001953D01*
X020598Y001904D01*
X020539Y001845D01*
X020490Y001778D01*
X020453Y001706D01*
X020409Y001812D01*
X020254Y001966D01*
X020052Y002050D01*
X019833Y002050D01*
X019631Y001966D01*
X019477Y001812D01*
X019443Y001730D01*
X019409Y001812D01*
X019254Y001966D01*
X019183Y001996D01*
X019183Y002548D01*
X019146Y002636D01*
X019021Y002761D01*
X018954Y002828D01*
X018866Y002865D01*
X015097Y002865D01*
X019085Y002865D01*
X019421Y002530D01*
X019516Y002490D01*
X023914Y002490D01*
X024008Y002451D01*
X024127Y002451D01*
X024237Y002496D01*
X024321Y002581D01*
X024367Y002691D01*
X024367Y002809D01*
X024321Y002919D01*
X024237Y003004D01*
X024127Y003049D01*
X024008Y003049D01*
X023914Y003010D01*
X019676Y003010D01*
X019413Y003272D01*
X019340Y003345D01*
X019245Y003385D01*
X017328Y003385D01*
X017328Y004695D01*
X017392Y004695D01*
X017498Y004800D01*
X017498Y005950D01*
X017392Y006055D01*
X016743Y006055D01*
X016638Y005950D01*
X016638Y004800D01*
X016743Y004695D01*
X016808Y004695D01*
X016808Y003385D01*
X015097Y003385D01*
X015002Y003424D01*
X014883Y003424D01*
X014773Y003379D01*
X014689Y003294D01*
X014683Y003279D01*
X014683Y005923D01*
X014646Y006011D01*
X014271Y006386D01*
X014204Y006453D01*
X014116Y006490D01*
X013838Y006490D01*
X013830Y006509D01*
X013702Y006638D01*
X013534Y006707D01*
X013352Y006707D01*
X013184Y006638D01*
X013055Y006509D01*
X012986Y006341D01*
X012986Y006159D01*
X012994Y006140D01*
X011218Y004365D01*
X007917Y004365D01*
X006308Y005974D01*
X006308Y008651D01*
X006511Y008853D01*
X006755Y008853D01*
X006818Y008917D01*
X006881Y008853D01*
X007424Y008853D01*
X007529Y008959D01*
X007529Y009010D01*
X008047Y009010D01*
X008055Y008991D01*
X008184Y008862D01*
X008352Y008793D01*
X008534Y008793D01*
X008702Y008862D01*
X008830Y008991D01*
X008900Y009159D01*
X008900Y009341D01*
X008830Y009509D01*
X008702Y009638D01*
X008534Y009707D01*
X008352Y009707D01*
X008184Y009638D01*
X008055Y009509D01*
X008047Y009490D01*
X007529Y009490D01*
X007529Y009541D01*
X007424Y009647D01*
X006881Y009647D01*
X006818Y009583D01*
X006755Y009647D01*
X006723Y009647D01*
X006723Y009853D01*
X006755Y009853D01*
X006818Y009917D01*
X006881Y009853D01*
X007424Y009853D01*
X007529Y009959D01*
X007529Y010010D01*
X008047Y010010D01*
X008055Y009991D01*
X008184Y009862D01*
X008352Y009793D01*
X008534Y009793D01*
X008702Y009862D01*
X008830Y009991D01*
X008900Y010159D01*
X008900Y010341D01*
X008830Y010509D01*
X008702Y010638D01*
X008534Y010707D01*
X008352Y010707D01*
X008184Y010638D01*
X008055Y010509D01*
X008047Y010490D01*
X007529Y010490D01*
X007529Y010541D01*
X007424Y010647D01*
X006881Y010647D01*
X006818Y010583D01*
X006755Y010647D01*
X006723Y010647D01*
X006723Y010853D01*
X006755Y010853D01*
X006818Y010917D01*
X006881Y010853D01*
X007424Y010853D01*
X007529Y010959D01*
X007529Y011010D01*
X008047Y011010D01*
X008055Y010991D01*
X008184Y010862D01*
X008352Y010793D01*
X008534Y010793D01*
X008702Y010862D01*
X008830Y010991D01*
X008900Y011159D01*
X008900Y011341D01*
X008830Y011509D01*
X008702Y011638D01*
X008534Y011707D01*
X008352Y011707D01*
X008184Y011638D01*
X008055Y011509D01*
X008047Y011490D01*
X007529Y011490D01*
X007529Y011541D01*
X007424Y011647D01*
X006881Y011647D01*
X006818Y011583D01*
X006755Y011647D01*
X006212Y011647D01*
X006106Y011541D01*
X006106Y010959D01*
X006212Y010853D01*
X006243Y010853D01*
X006243Y010647D01*
X006212Y010647D01*
X006106Y010541D01*
X006106Y009959D01*
X006212Y009853D01*
X006243Y009853D01*
X006243Y009647D01*
X006212Y009647D01*
X006106Y009541D01*
X006106Y009128D01*
X005932Y008953D01*
X005864Y008886D01*
X005828Y008798D01*
X005828Y005827D01*
X005864Y005739D01*
X007614Y003989D01*
X007682Y003922D01*
X007770Y003885D01*
X011366Y003885D01*
X011454Y003922D01*
X013333Y005801D01*
X013352Y005793D01*
X013534Y005793D01*
X013702Y005862D01*
X013830Y005991D01*
X013838Y006010D01*
X013968Y006010D01*
X014203Y005776D01*
X014203Y003279D01*
X014196Y003294D01*
X014112Y003379D01*
X014002Y003424D01*
X013883Y003424D01*
X013789Y003385D01*
X007551Y003385D01*
X005828Y005108D01*
X005828Y015142D01*
X006176Y015490D01*
X007495Y015490D01*
X007590Y015530D01*
X008090Y016030D01*
X008163Y016103D01*
X008203Y016198D01*
X008203Y018615D01*
X010840Y018615D01*
X011848Y017607D01*
X011848Y017155D01*
X011878Y017125D01*
X011848Y017095D01*
X011848Y016395D01*
X011953Y016290D01*
X012405Y016290D01*
X012797Y015898D01*
X012797Y015630D01*
X012903Y015525D01*
X012973Y015525D01*
X012973Y015350D01*
X012903Y015350D01*
X012797Y015245D01*
X012797Y014970D01*
X012538Y014970D01*
X012538Y015363D01*
X012433Y015468D01*
X010669Y015468D01*
X010564Y015363D01*
X010564Y014387D01*
X010669Y014282D01*
X012433Y014282D01*
X012538Y014387D01*
X012538Y014450D01*
X012808Y014450D01*
X012808Y014279D01*
X012769Y014184D01*
X012769Y014066D01*
X012814Y013956D01*
X012898Y013871D01*
X013008Y013826D01*
X013127Y013826D01*
X013237Y013871D01*
X013321Y013956D01*
X013367Y014066D01*
X013367Y014184D01*
X013328Y014279D01*
X013328Y014400D01*
X013564Y014400D01*
X013593Y014429D01*
X013626Y014420D01*
X013842Y014420D01*
X013842Y014815D01*
X013962Y014815D01*
X013962Y014420D01*
X014179Y014420D01*
X014220Y014431D01*
X014257Y014452D01*
X014286Y014481D01*
X014307Y014518D01*
X014318Y014559D01*
X014318Y014815D01*
X013962Y014815D01*
X013962Y014935D01*
X013842Y014935D01*
X013842Y015330D01*
X013626Y015330D01*
X013593Y015321D01*
X013564Y015350D01*
X013493Y015350D01*
X013493Y015525D01*
X013564Y015525D01*
X013568Y015529D01*
X013572Y015525D01*
X014010Y015525D01*
X014214Y015321D01*
X014179Y015330D01*
X013962Y015330D01*
X013962Y014935D01*
X014318Y014935D01*
X014318Y015191D01*
X014309Y015226D01*
X015880Y013655D01*
X015976Y013615D01*
X016406Y013615D01*
X013270Y013615D01*
X013182Y013578D01*
X012093Y012490D01*
X008838Y012490D01*
X008830Y012509D01*
X008702Y012638D01*
X008534Y012707D01*
X008352Y012707D01*
X008184Y012638D01*
X008055Y012509D01*
X007986Y012341D01*
X007986Y012159D01*
X008055Y011991D01*
X008184Y011862D01*
X008352Y011793D01*
X008534Y011793D01*
X008702Y011862D01*
X008830Y011991D01*
X008838Y012010D01*
X012241Y012010D01*
X012329Y012047D01*
X012396Y012114D01*
X013417Y013135D01*
X015113Y013135D01*
X013968Y011990D01*
X013829Y011990D01*
X013830Y011991D01*
X013900Y012159D01*
X013900Y012341D01*
X013830Y012509D01*
X013702Y012638D01*
X013534Y012707D01*
X013352Y012707D01*
X013184Y012638D01*
X013055Y012509D01*
X012986Y012341D01*
X012986Y012159D01*
X013055Y011991D01*
X013056Y011990D01*
X012145Y011990D01*
X012057Y011953D01*
X010307Y010203D01*
X010239Y010136D01*
X010203Y010048D01*
X010203Y006724D01*
X009968Y006490D01*
X008838Y006490D01*
X008830Y006509D01*
X008702Y006638D01*
X008534Y006707D01*
X008352Y006707D01*
X008184Y006638D01*
X008055Y006509D01*
X007986Y006341D01*
X007986Y006159D01*
X008055Y005991D01*
X008184Y005862D01*
X008352Y005793D01*
X008534Y005793D01*
X008702Y005862D01*
X008830Y005991D01*
X008838Y006010D01*
X010116Y006010D01*
X010204Y006047D01*
X010646Y006489D01*
X010683Y006577D01*
X010683Y009901D01*
X012292Y011510D01*
X013091Y011510D01*
X013069Y011479D01*
X013038Y011418D01*
X013016Y011352D01*
X013006Y011284D01*
X013006Y011279D01*
X013414Y011279D01*
X013414Y011221D01*
X013006Y011221D01*
X013006Y011216D01*
X013016Y011148D01*
X013038Y011082D01*
X013069Y011021D01*
X013091Y010990D01*
X011895Y010990D01*
X011807Y010953D01*
X010807Y009953D01*
X010739Y009886D01*
X010703Y009798D01*
X010703Y006349D01*
X009843Y005490D01*
X008838Y005490D01*
X008830Y005509D01*
X008702Y005638D01*
X008534Y005707D01*
X008352Y005707D01*
X008184Y005638D01*
X008055Y005509D01*
X007986Y005341D01*
X007986Y005159D01*
X008055Y004991D01*
X008184Y004862D01*
X008352Y004793D01*
X008534Y004793D01*
X008702Y004862D01*
X008830Y004991D01*
X008838Y005010D01*
X009991Y005010D01*
X010079Y005047D01*
X010146Y005114D01*
X011146Y006114D01*
X011183Y006202D01*
X011183Y009651D01*
X012042Y010510D01*
X013056Y010510D01*
X013055Y010509D01*
X012986Y010341D01*
X012986Y010159D01*
X013055Y009991D01*
X013184Y009862D01*
X013352Y009793D01*
X013534Y009793D01*
X013702Y009862D01*
X013829Y009990D01*
X015406Y009990D01*
X015411Y009978D01*
X015546Y009843D01*
X015722Y009770D01*
X015913Y009770D01*
X016090Y009843D01*
X016225Y009978D01*
X016298Y010155D01*
X016298Y010345D01*
X016225Y010522D01*
X016090Y010657D01*
X015913Y010730D01*
X015722Y010730D01*
X015546Y010657D01*
X015411Y010522D01*
X015406Y010510D01*
X013829Y010510D01*
X014116Y010510D01*
X014204Y010547D01*
X014271Y010614D01*
X015917Y012260D01*
X016406Y012260D01*
X016365Y012219D01*
X016306Y012077D01*
X016306Y011923D01*
X016365Y011781D01*
X016474Y011672D01*
X016616Y011613D01*
X016770Y011613D01*
X016912Y011672D01*
X016980Y011740D01*
X018635Y011740D01*
X018564Y011669D01*
X018519Y011559D01*
X018519Y011441D01*
X018564Y011331D01*
X018578Y011317D01*
X018578Y011013D01*
X018481Y010916D01*
X018481Y010334D01*
X018587Y010228D01*
X019130Y010228D01*
X019193Y010292D01*
X019256Y010228D01*
X019799Y010228D01*
X019904Y010334D01*
X019904Y010364D01*
X019929Y010364D01*
X019929Y010353D01*
X020035Y010247D01*
X020735Y010247D01*
X020795Y010308D01*
X020795Y010159D01*
X020788Y010171D01*
X020759Y010201D01*
X020722Y010222D01*
X020681Y010233D01*
X020423Y010233D01*
X020423Y009914D01*
X020820Y009914D01*
X020820Y009954D01*
X020901Y009873D01*
X021011Y009873D01*
X021011Y009407D01*
X020593Y008990D01*
X018645Y008990D01*
X018557Y008953D01*
X017932Y008328D01*
X017864Y008261D01*
X017828Y008173D01*
X017828Y006055D01*
X017743Y006055D01*
X017638Y005950D01*
X017638Y004800D01*
X017743Y004695D01*
X018392Y004695D01*
X018498Y004800D01*
X018498Y005950D01*
X018392Y006055D01*
X018308Y006055D01*
X018308Y008026D01*
X018792Y008510D01*
X020741Y008510D01*
X020829Y008547D01*
X020896Y008614D01*
X021454Y009172D01*
X021491Y009260D01*
X021491Y009873D01*
X021601Y009873D01*
X021707Y009979D01*
X021707Y010521D01*
X021601Y010627D01*
X020901Y010627D01*
X020840Y010566D01*
X020840Y010895D01*
X020735Y011001D01*
X020035Y011001D01*
X019929Y010895D01*
X019929Y010884D01*
X019904Y010884D01*
X019904Y010916D01*
X019799Y011022D01*
X019256Y011022D01*
X019193Y010958D01*
X019130Y011022D01*
X019058Y011022D01*
X019058Y011317D01*
X019071Y011331D01*
X019117Y011441D01*
X019117Y011559D01*
X019071Y011669D01*
X019001Y011740D01*
X022180Y011740D01*
X022106Y011666D01*
X022106Y011631D01*
X022002Y011674D01*
X021883Y011674D01*
X021773Y011629D01*
X021689Y011544D01*
X021644Y011434D01*
X021644Y011316D01*
X021689Y011206D01*
X021773Y011121D01*
X021883Y011076D01*
X022002Y011076D01*
X022106Y011119D01*
X022106Y011084D01*
X022212Y010978D01*
X022755Y010978D01*
X022818Y011042D01*
X022881Y010978D01*
X023424Y010978D01*
X023505Y011060D01*
X023587Y010978D01*
X023618Y010978D01*
X023618Y008015D01*
X021650Y006047D01*
X021642Y006055D01*
X020993Y006055D01*
X020888Y005950D01*
X020888Y004800D01*
X020993Y004695D01*
X021642Y004695D01*
X021748Y004800D01*
X021748Y005466D01*
X024062Y007779D01*
X024098Y007868D01*
X024098Y010978D01*
X024130Y010978D01*
X024193Y011042D01*
X024256Y010978D01*
X024799Y010978D01*
X024904Y011084D01*
X024904Y011135D01*
X026029Y011135D01*
X024980Y010086D01*
X024652Y010086D01*
X024546Y009981D01*
X024546Y009438D01*
X024610Y009375D01*
X024546Y009312D01*
X024546Y008769D01*
X024652Y008664D01*
X024703Y008664D01*
X024703Y008336D01*
X024652Y008336D01*
X024546Y008231D01*
X024546Y007688D01*
X024624Y007611D01*
X024598Y007585D01*
X024577Y007549D01*
X024566Y007508D01*
X024566Y007329D01*
X024904Y007329D01*
X024904Y007252D01*
X024566Y007252D01*
X024566Y007072D01*
X024577Y007032D01*
X024598Y006995D01*
X024628Y006965D01*
X024665Y006944D01*
X024705Y006934D01*
X024904Y006934D01*
X024904Y007252D01*
X024981Y007252D01*
X024981Y006934D01*
X025180Y006934D01*
X025203Y006940D01*
X025203Y005016D01*
X025133Y005085D01*
X024983Y005085D01*
X024983Y004665D01*
X024903Y004665D01*
X024903Y005085D01*
X024752Y005085D01*
X024483Y004816D01*
X024483Y004665D01*
X024903Y004665D01*
X024903Y004585D01*
X024983Y004585D01*
X024983Y004165D01*
X025133Y004165D01*
X025203Y004234D01*
X025203Y004224D01*
X025083Y004105D01*
X024744Y004105D01*
X024463Y003824D01*
X024463Y003426D01*
X024703Y003186D01*
X024703Y001996D01*
X024631Y001966D01*
X024477Y001812D01*
X024393Y001609D01*
X024393Y001391D01*
X024477Y001188D01*
X024631Y001034D01*
X024833Y000950D01*
X025052Y000950D01*
X025254Y001034D01*
X025409Y001188D01*
X025443Y001270D01*
X025477Y001188D01*
X025631Y001034D01*
X025833Y000950D01*
X026052Y000950D01*
X026254Y001034D01*
X026409Y001188D01*
X026443Y001270D01*
X026477Y001188D01*
X026631Y001034D01*
X026833Y000950D01*
X027052Y000950D01*
X027254Y001034D01*
X027409Y001188D01*
X027443Y001270D01*
X027477Y001188D01*
X027631Y001034D01*
X027833Y000950D01*
X028052Y000950D01*
X028254Y001034D01*
X028409Y001188D01*
X028443Y001270D01*
X028477Y001188D01*
X028631Y001034D01*
X028833Y000950D01*
X029052Y000950D01*
X029254Y001034D01*
X029409Y001188D01*
X029443Y001270D01*
X029477Y001188D01*
X029631Y001034D01*
X029833Y000950D01*
X030052Y000950D01*
X030254Y001034D01*
X030409Y001188D01*
X030443Y001270D01*
X030477Y001188D01*
X030631Y001034D01*
X030833Y000950D01*
X031052Y000950D01*
X031254Y001034D01*
X031409Y001188D01*
X031443Y001270D01*
X031477Y001188D01*
X031631Y001034D01*
X031833Y000950D01*
X032052Y000950D01*
X032254Y001034D01*
X032409Y001188D01*
X032493Y001391D01*
X032493Y001609D01*
X032409Y001812D01*
X032254Y001966D01*
X032183Y001996D01*
X032183Y003186D01*
X032423Y003426D01*
X032423Y003824D01*
X032142Y004105D01*
X031744Y004105D01*
X031463Y003824D01*
X031463Y003426D01*
X031703Y003186D01*
X031703Y001996D01*
X031631Y001966D01*
X031477Y001812D01*
X031443Y001730D01*
X031409Y001812D01*
X031254Y001966D01*
X031183Y001996D01*
X031183Y003186D01*
X031423Y003426D01*
X031423Y003824D01*
X031142Y004105D01*
X030744Y004105D01*
X030659Y004020D01*
X030683Y004077D01*
X030683Y004234D01*
X030752Y004165D01*
X030903Y004165D01*
X030903Y004585D01*
X030983Y004585D01*
X030983Y004665D01*
X031403Y004665D01*
X031403Y004816D01*
X031133Y005085D01*
X030983Y005085D01*
X030983Y004665D01*
X030903Y004665D01*
X030903Y005085D01*
X030752Y005085D01*
X030683Y005016D01*
X030683Y008298D01*
X030646Y008386D01*
X030396Y008636D01*
X030329Y008703D01*
X030290Y008720D01*
X030339Y008769D01*
X030339Y009312D01*
X030276Y009375D01*
X030286Y009385D01*
X030718Y009385D01*
X031078Y009026D01*
X031078Y006827D01*
X031114Y006739D01*
X031182Y006672D01*
X032432Y005422D01*
X032520Y005385D01*
X034504Y005385D01*
X034744Y005145D01*
X035142Y005145D01*
X035423Y005426D01*
X035423Y005766D01*
X035542Y005885D01*
X035552Y005885D01*
X035483Y005816D01*
X035483Y005665D01*
X035903Y005665D01*
X035903Y005585D01*
X035983Y005585D01*
X035983Y005665D01*
X036403Y005665D01*
X036403Y005816D01*
X036333Y005885D01*
X036491Y005885D01*
X036579Y005922D01*
X036646Y005989D01*
X037558Y006901D01*
X037558Y006520D01*
X037567Y006511D01*
X037558Y006501D01*
X037558Y006032D01*
X037567Y006023D01*
X037558Y006013D01*
X037558Y005544D01*
X037567Y005534D01*
X037558Y005525D01*
X037558Y005056D01*
X037567Y005046D01*
X037558Y005037D01*
X037558Y004574D01*
X037080Y004574D01*
X036985Y004534D01*
X035460Y003010D01*
X032847Y003010D01*
X032752Y003049D01*
X032633Y003049D01*
X032523Y003004D01*
X032439Y002919D01*
X032394Y002809D01*
X032394Y002691D01*
X032439Y002581D01*
X032523Y002496D01*
X032633Y002451D01*
X032752Y002451D01*
X032847Y002490D01*
X035620Y002490D01*
X035715Y002530D01*
X035788Y002603D01*
X037240Y004054D01*
X037583Y004054D01*
X037589Y004048D01*
X037589Y004048D01*
X037578Y004007D01*
X037578Y003846D01*
X038048Y003846D01*
X038048Y003806D01*
X037578Y003806D01*
X037578Y003645D01*
X037589Y003604D01*
X037610Y003568D01*
X037640Y003538D01*
X037676Y003517D01*
X037717Y003506D01*
X038048Y003506D01*
X038048Y003806D01*
X038088Y003806D01*
X038088Y003846D01*
X038558Y003846D01*
X038558Y004007D01*
X038547Y004048D01*
X038578Y004079D01*
X038578Y004510D01*
X039491Y004510D01*
X039579Y004547D01*
X039646Y004614D01*
X040292Y005260D01*
X041405Y005260D01*
X041665Y005000D01*
X041393Y004728D01*
X041393Y004272D01*
X041696Y003969D01*
X041665Y003953D01*
X041598Y003904D01*
X041539Y003845D01*
X041490Y003778D01*
X041452Y003703D01*
X041426Y003624D01*
X041413Y003542D01*
X041413Y003540D01*
X041903Y003540D01*
X041903Y003460D01*
X041983Y003460D01*
X041983Y003540D01*
X042903Y003540D01*
X042903Y003460D01*
X042983Y003460D01*
X042983Y003540D01*
X043473Y003540D01*
X043473Y003542D01*
X043460Y003624D01*
X043434Y003703D01*
X043396Y003778D01*
X043347Y003845D01*
X043288Y003904D01*
X043221Y003953D01*
X043190Y003969D01*
X043493Y004272D01*
X043493Y004728D01*
X043221Y005000D01*
X043493Y005272D01*
X043493Y005728D01*
X043221Y006000D01*
X043493Y006272D01*
X043493Y006728D01*
X043221Y007000D01*
X043493Y007272D01*
X043493Y007728D01*
X043221Y008000D01*
X043493Y008272D01*
X043493Y008728D01*
X043221Y009000D01*
X043493Y009272D01*
X043493Y009728D01*
X043221Y010000D01*
X043493Y010272D01*
X043493Y010728D01*
X043221Y011000D01*
X043493Y011272D01*
X043493Y011728D01*
X043221Y012000D01*
X043493Y012272D01*
X043493Y012728D01*
X043221Y013000D01*
X043493Y013272D01*
X043493Y013728D01*
X043221Y014000D01*
X043493Y014272D01*
X043493Y014728D01*
X043221Y015000D01*
X043493Y015272D01*
X043493Y015728D01*
X043221Y016000D01*
X043493Y016272D01*
X043493Y016728D01*
X043221Y017000D01*
X043493Y017272D01*
X043493Y017728D01*
X043221Y018000D01*
X043493Y018272D01*
X043493Y018728D01*
X043221Y019000D01*
X043493Y019272D01*
X043493Y019728D01*
X043207Y020014D01*
X043254Y020034D01*
X043409Y020188D01*
X043493Y020391D01*
X043493Y020526D01*
X043643Y020376D01*
X043643Y016440D01*
X043675Y016363D01*
X043675Y001137D01*
X043643Y001060D01*
X043643Y000800D01*
X005243Y000800D01*
X005243Y021200D01*
X042819Y021200D01*
X042969Y021050D01*
X042833Y021050D01*
X042631Y020966D01*
X042477Y020812D01*
X042443Y020730D01*
X042409Y020812D01*
X042254Y020966D01*
X042052Y021050D01*
X041833Y021050D01*
X041631Y020966D01*
X041477Y020812D01*
X041393Y020609D01*
X041393Y020391D01*
X041477Y020188D01*
X041631Y020034D01*
X041679Y020014D01*
X041393Y019728D01*
X041393Y019272D01*
X041665Y019000D01*
X041393Y018728D01*
X041393Y018272D01*
X041425Y018240D01*
X038895Y018240D01*
X038807Y018203D01*
X038219Y017615D01*
X038196Y017669D01*
X038112Y017754D01*
X038002Y017799D01*
X037883Y017799D01*
X037773Y017754D01*
X037689Y017669D01*
X037644Y017559D01*
X037644Y017472D01*
X037612Y017504D01*
X037502Y017549D01*
X037383Y017549D01*
X037273Y017504D01*
X037260Y017490D01*
X032645Y017490D01*
X032557Y017453D01*
X030938Y015835D01*
X030742Y015835D01*
X032079Y017172D01*
X032146Y017239D01*
X032183Y017327D01*
X032430Y017327D01*
X032312Y017209D02*
X032116Y017209D01*
X032183Y017327D02*
X032183Y020004D01*
X032254Y020034D01*
X032409Y020188D01*
X032443Y020270D01*
X032477Y020188D01*
X032631Y020034D01*
X032833Y019950D01*
X033052Y019950D01*
X033254Y020034D01*
X033409Y020188D01*
X033443Y020270D01*
X033477Y020188D01*
X033631Y020034D01*
X033833Y019950D01*
X034052Y019950D01*
X034254Y020034D01*
X034409Y020188D01*
X034443Y020270D01*
X034477Y020188D01*
X034631Y020034D01*
X034833Y019950D01*
X035052Y019950D01*
X035254Y020034D01*
X035409Y020188D01*
X035443Y020270D01*
X035477Y020188D01*
X035631Y020034D01*
X035833Y019950D01*
X036052Y019950D01*
X036254Y020034D01*
X036409Y020188D01*
X036443Y020270D01*
X036477Y020188D01*
X036631Y020034D01*
X036833Y019950D01*
X037052Y019950D01*
X037254Y020034D01*
X037409Y020188D01*
X037443Y020270D01*
X037477Y020188D01*
X037631Y020034D01*
X037833Y019950D01*
X038052Y019950D01*
X038254Y020034D01*
X038409Y020188D01*
X038443Y020270D01*
X038477Y020188D01*
X038631Y020034D01*
X038833Y019950D01*
X039052Y019950D01*
X039254Y020034D01*
X039409Y020188D01*
X039493Y020391D01*
X039493Y020609D01*
X039409Y020812D01*
X039254Y020966D01*
X039052Y021050D01*
X038833Y021050D01*
X038631Y020966D01*
X038477Y020812D01*
X038443Y020730D01*
X038409Y020812D01*
X038254Y020966D01*
X038052Y021050D01*
X037833Y021050D01*
X037631Y020966D01*
X037477Y020812D01*
X037443Y020730D01*
X037409Y020812D01*
X037254Y020966D01*
X037052Y021050D01*
X036833Y021050D01*
X036631Y020966D01*
X036477Y020812D01*
X036443Y020730D01*
X036409Y020812D01*
X036254Y020966D01*
X036052Y021050D01*
X035833Y021050D01*
X035631Y020966D01*
X035477Y020812D01*
X035443Y020730D01*
X035409Y020812D01*
X035254Y020966D01*
X035052Y021050D01*
X034833Y021050D01*
X034631Y020966D01*
X034477Y020812D01*
X034443Y020730D01*
X034409Y020812D01*
X034254Y020966D01*
X034052Y021050D01*
X033833Y021050D01*
X033631Y020966D01*
X033477Y020812D01*
X033443Y020730D01*
X033409Y020812D01*
X033254Y020966D01*
X033052Y021050D01*
X032833Y021050D01*
X032631Y020966D01*
X032477Y020812D01*
X032443Y020730D01*
X032409Y020812D01*
X032254Y020966D01*
X032052Y021050D01*
X031833Y021050D01*
X031631Y020966D01*
X031477Y020812D01*
X031393Y020609D01*
X031393Y020391D01*
X031477Y020188D01*
X031631Y020034D01*
X031703Y020004D01*
X031703Y019654D01*
X031696Y019669D01*
X031612Y019754D01*
X031502Y019799D01*
X031383Y019799D01*
X031273Y019754D01*
X031189Y019669D01*
X031144Y019559D01*
X031144Y019441D01*
X031189Y019331D01*
X031203Y019317D01*
X031203Y017849D01*
X030367Y017013D01*
X030367Y017059D01*
X030321Y017169D01*
X030308Y017183D01*
X030308Y017548D01*
X030271Y017636D01*
X030021Y017886D01*
X029954Y017953D01*
X029866Y017990D01*
X021192Y017990D01*
X019231Y019951D01*
X019233Y019950D01*
X019452Y019950D01*
X019654Y020034D01*
X019809Y020188D01*
X019843Y020270D01*
X019877Y020188D01*
X020031Y020034D01*
X020233Y019950D01*
X020452Y019950D01*
X020654Y020034D01*
X020809Y020188D01*
X020843Y020270D01*
X020877Y020188D01*
X021031Y020034D01*
X021233Y019950D01*
X021452Y019950D01*
X021654Y020034D01*
X021809Y020188D01*
X021893Y020391D01*
X021893Y020609D01*
X021809Y020812D01*
X021654Y020966D01*
X021452Y021050D01*
X021233Y021050D01*
X021031Y020966D01*
X020877Y020812D01*
X020843Y020730D01*
X020809Y020812D01*
X020654Y020966D01*
X020452Y021050D01*
X020233Y021050D01*
X020031Y020966D01*
X019877Y020812D01*
X019843Y020730D01*
X019809Y020812D01*
X019654Y020966D01*
X019452Y021050D01*
X019233Y021050D01*
X019031Y020966D01*
X018877Y020812D01*
X018843Y020730D01*
X018809Y020812D01*
X018654Y020966D01*
X018452Y021050D01*
X018233Y021050D01*
X018031Y020966D01*
X017877Y020812D01*
X017843Y020730D01*
X017809Y020812D01*
X017654Y020966D01*
X017452Y021050D01*
X017233Y021050D01*
X017031Y020966D01*
X016877Y020812D01*
X016843Y020730D01*
X016809Y020812D01*
X016654Y020966D01*
X016452Y021050D01*
X016233Y021050D01*
X016031Y020966D01*
X015877Y020812D01*
X015833Y020706D01*
X015796Y020778D01*
X015747Y020845D01*
X015688Y020904D01*
X015621Y020953D01*
X015546Y020991D01*
X015467Y021017D01*
X015385Y021030D01*
X015383Y021030D01*
X015383Y020540D01*
X015303Y020540D01*
X015303Y021030D01*
X015301Y021030D01*
X015219Y021017D01*
X015139Y020991D01*
X015065Y020953D01*
X014998Y020904D01*
X014939Y020845D01*
X014890Y020778D01*
X014853Y020706D01*
X014809Y020812D01*
X014654Y020966D01*
X014452Y021050D01*
X014233Y021050D01*
X014031Y020966D01*
X013877Y020812D01*
X013843Y020730D01*
X013809Y020812D01*
X013654Y020966D01*
X013452Y021050D01*
X013233Y021050D01*
X013031Y020966D01*
X012877Y020812D01*
X012843Y020730D01*
X012809Y020812D01*
X012654Y020966D01*
X012452Y021050D01*
X012233Y021050D01*
X012031Y020966D01*
X011877Y020812D01*
X011793Y020609D01*
X011793Y020391D01*
X011877Y020188D01*
X012031Y020034D01*
X012233Y019950D01*
X012452Y019950D01*
X012654Y020034D01*
X012809Y020188D01*
X012843Y020270D01*
X012877Y020188D01*
X013031Y020034D01*
X013233Y019950D01*
X013452Y019950D01*
X013654Y020034D01*
X013809Y020188D01*
X013843Y020270D01*
X013877Y020188D01*
X014031Y020034D01*
X014233Y019950D01*
X014452Y019950D01*
X014654Y020034D01*
X014809Y020188D01*
X014853Y020294D01*
X014890Y020222D01*
X014939Y020155D01*
X014998Y020096D01*
X015065Y020047D01*
X015139Y020009D01*
X015219Y019983D01*
X015301Y019970D01*
X015303Y019970D01*
X015303Y020460D01*
X015383Y020460D01*
X015383Y019970D01*
X015385Y019970D01*
X015467Y019983D01*
X015546Y020009D01*
X015621Y020047D01*
X015688Y020096D01*
X015747Y020155D01*
X015796Y020222D01*
X015833Y020294D01*
X015877Y020188D01*
X016031Y020034D01*
X016233Y019950D01*
X016452Y019950D01*
X016654Y020034D01*
X016809Y020188D01*
X016843Y020270D01*
X016877Y020188D01*
X017031Y020034D01*
X017233Y019950D01*
X017452Y019950D01*
X017524Y019980D01*
X020332Y017172D01*
X020420Y017135D01*
X029135Y017135D01*
X029148Y017121D01*
X029258Y017076D01*
X029377Y017076D01*
X029487Y017121D01*
X029571Y017206D01*
X029617Y017316D01*
X029617Y017434D01*
X029586Y017510D01*
X029718Y017510D01*
X029828Y017401D01*
X029828Y017183D01*
X029814Y017169D01*
X029769Y017059D01*
X029769Y016941D01*
X029814Y016831D01*
X029898Y016746D01*
X030008Y016701D01*
X030054Y016701D01*
X029718Y016365D01*
X029520Y016365D01*
X029432Y016328D01*
X029182Y016078D01*
X029114Y016011D01*
X029078Y015923D01*
X029078Y015766D01*
X029008Y015835D01*
X028627Y015835D01*
X028358Y015566D01*
X028358Y015254D01*
X028218Y015115D01*
X028208Y015115D01*
X028278Y015184D01*
X028278Y015566D01*
X028008Y015835D01*
X027627Y015835D01*
X027358Y015566D01*
X027358Y015504D01*
X027278Y015424D01*
X027278Y015566D01*
X027008Y015835D01*
X026627Y015835D01*
X026358Y015566D01*
X026358Y015504D01*
X026198Y015345D01*
X025848Y015345D01*
X025848Y015405D01*
X026258Y015405D01*
X026258Y015557D01*
X026000Y015815D01*
X025848Y015815D01*
X025848Y015405D01*
X025788Y015405D01*
X025788Y015815D01*
X025636Y015815D01*
X025378Y015557D01*
X025378Y015405D01*
X025788Y015405D01*
X025788Y015345D01*
X025378Y015345D01*
X025378Y015193D01*
X025474Y015096D01*
X025432Y015078D01*
X025114Y014761D01*
X025105Y014738D01*
X025008Y014835D01*
X024627Y014835D01*
X024358Y014566D01*
X024358Y014184D01*
X024627Y013915D01*
X025008Y013915D01*
X025078Y013984D01*
X025078Y013974D01*
X024718Y013615D01*
X016980Y013615D01*
X017021Y013656D01*
X017080Y013798D01*
X017080Y013952D01*
X017021Y014094D01*
X016912Y014203D01*
X016770Y014262D01*
X016616Y014262D01*
X016474Y014203D01*
X016406Y014135D01*
X016135Y014135D01*
X014338Y015932D01*
X014338Y016370D01*
X014233Y016475D01*
X014078Y016475D01*
X014078Y017177D01*
X014038Y017272D01*
X013965Y017345D01*
X011090Y020220D01*
X010995Y020260D01*
X006873Y020260D01*
X006873Y020325D01*
X006767Y020430D01*
X005618Y020430D01*
X005513Y020325D01*
X005513Y019675D01*
X005618Y019570D01*
X006767Y019570D01*
X006873Y019675D01*
X006873Y019740D01*
X010835Y019740D01*
X012615Y017960D01*
X012231Y017960D01*
X011095Y019095D01*
X011000Y019135D01*
X006873Y019135D01*
X006873Y019200D01*
X006767Y019305D01*
X005618Y019305D01*
X005513Y019200D01*
X005513Y018550D01*
X005618Y018445D01*
X006767Y018445D01*
X006873Y018550D01*
X006873Y018615D01*
X007683Y018615D01*
X007683Y016358D01*
X007586Y016261D02*
X005243Y016261D01*
X005243Y016142D02*
X007467Y016142D01*
X007349Y016024D02*
X005243Y016024D01*
X005243Y015905D02*
X005855Y015905D01*
X005737Y015787D02*
X005243Y015787D01*
X005243Y015668D02*
X005618Y015668D01*
X005500Y015550D02*
X005243Y015550D01*
X005243Y015431D02*
X005381Y015431D01*
X005312Y015313D02*
X005243Y015313D01*
X005243Y015194D02*
X005308Y015194D01*
X005308Y015076D02*
X005243Y015076D01*
X005243Y014957D02*
X005308Y014957D01*
X005308Y014839D02*
X005243Y014839D01*
X005243Y014720D02*
X005308Y014720D01*
X005308Y014602D02*
X005243Y014602D01*
X005243Y014483D02*
X005308Y014483D01*
X005308Y014365D02*
X005243Y014365D01*
X005243Y014246D02*
X005308Y014246D01*
X005308Y014128D02*
X005243Y014128D01*
X005243Y014009D02*
X005308Y014009D01*
X005308Y013891D02*
X005243Y013891D01*
X005243Y013772D02*
X005308Y013772D01*
X005308Y013654D02*
X005243Y013654D01*
X005243Y013535D02*
X005308Y013535D01*
X005308Y013417D02*
X005243Y013417D01*
X005243Y013298D02*
X005308Y013298D01*
X005308Y013180D02*
X005243Y013180D01*
X005243Y013061D02*
X005308Y013061D01*
X005308Y012943D02*
X005243Y012943D01*
X005243Y012824D02*
X005308Y012824D01*
X005308Y012706D02*
X005243Y012706D01*
X005243Y012587D02*
X005308Y012587D01*
X005308Y012469D02*
X005243Y012469D01*
X005243Y012350D02*
X005308Y012350D01*
X005308Y012232D02*
X005243Y012232D01*
X005243Y012113D02*
X005308Y012113D01*
X005308Y011995D02*
X005243Y011995D01*
X005243Y011876D02*
X005308Y011876D01*
X005308Y011758D02*
X005243Y011758D01*
X005243Y011639D02*
X005308Y011639D01*
X005308Y011521D02*
X005243Y011521D01*
X005243Y011402D02*
X005308Y011402D01*
X005308Y011284D02*
X005243Y011284D01*
X005243Y011165D02*
X005308Y011165D01*
X005308Y011047D02*
X005243Y011047D01*
X005243Y010928D02*
X005308Y010928D01*
X005308Y010810D02*
X005243Y010810D01*
X005243Y010691D02*
X005308Y010691D01*
X005308Y010573D02*
X005243Y010573D01*
X005243Y010454D02*
X005308Y010454D01*
X005308Y010336D02*
X005243Y010336D01*
X005243Y010217D02*
X005308Y010217D01*
X005308Y010099D02*
X005243Y010099D01*
X005243Y009980D02*
X005308Y009980D01*
X005308Y009862D02*
X005243Y009862D01*
X005243Y009743D02*
X005308Y009743D01*
X005308Y009625D02*
X005243Y009625D01*
X005243Y009506D02*
X005308Y009506D01*
X005308Y009388D02*
X005243Y009388D01*
X005243Y009269D02*
X005308Y009269D01*
X005308Y009151D02*
X005243Y009151D01*
X005243Y009032D02*
X005308Y009032D01*
X005308Y008914D02*
X005243Y008914D01*
X005243Y008795D02*
X005308Y008795D01*
X005308Y008677D02*
X005243Y008677D01*
X005243Y008558D02*
X005308Y008558D01*
X005308Y008440D02*
X005243Y008440D01*
X005243Y008321D02*
X005308Y008321D01*
X005308Y008203D02*
X005243Y008203D01*
X005243Y008084D02*
X005308Y008084D01*
X005308Y007966D02*
X005243Y007966D01*
X005243Y007847D02*
X005308Y007847D01*
X005308Y007729D02*
X005243Y007729D01*
X005243Y007610D02*
X005308Y007610D01*
X005308Y007492D02*
X005243Y007492D01*
X005243Y007373D02*
X005308Y007373D01*
X005308Y007255D02*
X005243Y007255D01*
X005243Y007136D02*
X005308Y007136D01*
X005308Y007018D02*
X005243Y007018D01*
X005243Y006899D02*
X005308Y006899D01*
X005308Y006781D02*
X005243Y006781D01*
X005243Y006662D02*
X005308Y006662D01*
X005308Y006544D02*
X005243Y006544D01*
X005243Y006425D02*
X005308Y006425D01*
X005308Y006307D02*
X005243Y006307D01*
X005243Y006188D02*
X005308Y006188D01*
X005308Y006070D02*
X005243Y006070D01*
X005243Y005951D02*
X005308Y005951D01*
X005308Y005833D02*
X005243Y005833D01*
X005243Y005714D02*
X005308Y005714D01*
X005308Y005596D02*
X005243Y005596D01*
X005243Y005477D02*
X005308Y005477D01*
X005308Y005359D02*
X005243Y005359D01*
X005243Y005240D02*
X005308Y005240D01*
X005308Y005122D02*
X005243Y005122D01*
X005243Y005003D02*
X005308Y005003D01*
X005334Y004885D02*
X005243Y004885D01*
X005243Y004766D02*
X005434Y004766D01*
X005553Y004648D02*
X005243Y004648D01*
X005243Y004529D02*
X005671Y004529D01*
X005790Y004411D02*
X005243Y004411D01*
X005243Y004292D02*
X005908Y004292D01*
X006027Y004174D02*
X005243Y004174D01*
X005243Y004055D02*
X006145Y004055D01*
X006264Y003937D02*
X005243Y003937D01*
X005243Y003818D02*
X006382Y003818D01*
X006501Y003700D02*
X005243Y003700D01*
X005243Y003581D02*
X006619Y003581D01*
X006738Y003463D02*
X005243Y003463D01*
X005243Y003344D02*
X006856Y003344D01*
X006975Y003226D02*
X005243Y003226D01*
X005243Y003107D02*
X007093Y003107D01*
X007212Y002989D02*
X005243Y002989D01*
X005243Y002870D02*
X007379Y002870D01*
X007473Y003463D02*
X014203Y003463D01*
X014203Y003581D02*
X007355Y003581D01*
X007236Y003700D02*
X014203Y003700D01*
X014203Y003818D02*
X007118Y003818D01*
X006999Y003937D02*
X007667Y003937D01*
X007548Y004055D02*
X006881Y004055D01*
X006762Y004174D02*
X007430Y004174D01*
X007311Y004292D02*
X006644Y004292D01*
X006525Y004411D02*
X007193Y004411D01*
X007074Y004529D02*
X006407Y004529D01*
X006288Y004648D02*
X006956Y004648D01*
X006837Y004766D02*
X006170Y004766D01*
X006051Y004885D02*
X006719Y004885D01*
X006600Y005003D02*
X005933Y005003D01*
X005828Y005122D02*
X006482Y005122D01*
X006363Y005240D02*
X005828Y005240D01*
X005828Y005359D02*
X006245Y005359D01*
X006126Y005477D02*
X005828Y005477D01*
X005828Y005596D02*
X006008Y005596D01*
X005889Y005714D02*
X005828Y005714D01*
X005828Y005833D02*
X005828Y005833D01*
X005828Y005951D02*
X005828Y005951D01*
X005828Y006070D02*
X005828Y006070D01*
X005828Y006188D02*
X005828Y006188D01*
X005828Y006307D02*
X005828Y006307D01*
X005828Y006425D02*
X005828Y006425D01*
X005828Y006544D02*
X005828Y006544D01*
X005828Y006662D02*
X005828Y006662D01*
X005828Y006781D02*
X005828Y006781D01*
X005828Y006899D02*
X005828Y006899D01*
X005828Y007018D02*
X005828Y007018D01*
X005828Y007136D02*
X005828Y007136D01*
X005828Y007255D02*
X005828Y007255D01*
X005828Y007373D02*
X005828Y007373D01*
X005828Y007492D02*
X005828Y007492D01*
X005828Y007610D02*
X005828Y007610D01*
X005828Y007729D02*
X005828Y007729D01*
X005828Y007847D02*
X005828Y007847D01*
X005828Y007966D02*
X005828Y007966D01*
X005828Y008084D02*
X005828Y008084D01*
X005828Y008203D02*
X005828Y008203D01*
X005828Y008321D02*
X005828Y008321D01*
X005828Y008440D02*
X005828Y008440D01*
X005828Y008558D02*
X005828Y008558D01*
X005828Y008677D02*
X005828Y008677D01*
X005828Y008795D02*
X005828Y008795D01*
X005828Y008914D02*
X005892Y008914D01*
X005828Y009032D02*
X006010Y009032D01*
X006106Y009151D02*
X005828Y009151D01*
X005828Y009269D02*
X006106Y009269D01*
X006106Y009388D02*
X005828Y009388D01*
X005828Y009506D02*
X006106Y009506D01*
X006190Y009625D02*
X005828Y009625D01*
X005828Y009743D02*
X006243Y009743D01*
X006204Y009862D02*
X005828Y009862D01*
X005828Y009980D02*
X006106Y009980D01*
X006106Y010099D02*
X005828Y010099D01*
X005828Y010217D02*
X006106Y010217D01*
X006106Y010336D02*
X005828Y010336D01*
X005828Y010454D02*
X006106Y010454D01*
X006138Y010573D02*
X005828Y010573D01*
X005828Y010691D02*
X006243Y010691D01*
X006243Y010810D02*
X005828Y010810D01*
X005828Y010928D02*
X006137Y010928D01*
X006106Y011047D02*
X005828Y011047D01*
X005828Y011165D02*
X006106Y011165D01*
X006106Y011284D02*
X005828Y011284D01*
X005828Y011402D02*
X006106Y011402D01*
X006106Y011521D02*
X005828Y011521D01*
X005828Y011639D02*
X006204Y011639D01*
X005828Y011758D02*
X011861Y011758D01*
X011979Y011876D02*
X008715Y011876D01*
X008832Y011995D02*
X013054Y011995D01*
X013005Y012113D02*
X012395Y012113D01*
X012514Y012232D02*
X012986Y012232D01*
X012989Y012350D02*
X012632Y012350D01*
X012751Y012469D02*
X013039Y012469D01*
X013133Y012587D02*
X012869Y012587D01*
X012988Y012706D02*
X013348Y012706D01*
X013538Y012706D02*
X014684Y012706D01*
X014802Y012824D02*
X013106Y012824D01*
X013225Y012943D02*
X014921Y012943D01*
X015039Y013061D02*
X013343Y013061D01*
X013318Y013375D02*
X012193Y012250D01*
X008443Y012250D01*
X008752Y012587D02*
X012190Y012587D01*
X012309Y012706D02*
X008538Y012706D01*
X008348Y012706D02*
X005828Y012706D01*
X005828Y012824D02*
X012427Y012824D01*
X012546Y012943D02*
X005828Y012943D01*
X005828Y013061D02*
X012664Y013061D01*
X012783Y013180D02*
X005828Y013180D01*
X005828Y013298D02*
X012901Y013298D01*
X013020Y013417D02*
X005828Y013417D01*
X005828Y013535D02*
X013138Y013535D01*
X013318Y013375D02*
X024818Y013375D01*
X025318Y013875D01*
X025318Y014625D01*
X025568Y014875D01*
X026068Y014875D01*
X026568Y015375D01*
X026818Y015375D01*
X027175Y015668D02*
X027460Y015668D01*
X027358Y015550D02*
X027278Y015550D01*
X027278Y015431D02*
X027284Y015431D01*
X027568Y015375D02*
X027068Y014875D01*
X026568Y014875D01*
X026318Y014625D01*
X026318Y013500D01*
X025818Y013000D01*
X015318Y013000D01*
X014068Y011750D01*
X012193Y011750D01*
X010443Y010000D01*
X010443Y006625D01*
X010068Y006250D01*
X008443Y006250D01*
X008630Y005833D02*
X010186Y005833D01*
X010304Y005951D02*
X008790Y005951D01*
X008744Y005596D02*
X009949Y005596D01*
X010067Y005714D02*
X006568Y005714D01*
X006450Y005833D02*
X008256Y005833D01*
X008095Y005951D02*
X006331Y005951D01*
X006308Y006070D02*
X008023Y006070D01*
X007986Y006188D02*
X006308Y006188D01*
X006308Y006307D02*
X007986Y006307D01*
X008021Y006425D02*
X006308Y006425D01*
X006308Y006544D02*
X008090Y006544D01*
X008243Y006662D02*
X006308Y006662D01*
X006308Y006781D02*
X010203Y006781D01*
X010203Y006899D02*
X008738Y006899D01*
X008702Y006862D02*
X008830Y006991D01*
X008900Y007159D01*
X008900Y007341D01*
X008830Y007509D01*
X008702Y007638D01*
X008534Y007707D01*
X008352Y007707D01*
X008184Y007638D01*
X008055Y007509D01*
X008047Y007490D01*
X007538Y007490D01*
X007538Y007720D01*
X007507Y007750D01*
X007538Y007780D01*
X007538Y008010D01*
X008047Y008010D01*
X008055Y007991D01*
X008184Y007862D01*
X008352Y007793D01*
X008534Y007793D01*
X008702Y007862D01*
X008830Y007991D01*
X008900Y008159D01*
X008900Y008341D01*
X008830Y008509D01*
X008702Y008638D01*
X008534Y008707D01*
X008352Y008707D01*
X008184Y008638D01*
X008055Y008509D01*
X008047Y008490D01*
X007527Y008490D01*
X007432Y008585D01*
X006703Y008585D01*
X006598Y008480D01*
X006598Y007780D01*
X006628Y007750D01*
X006598Y007720D01*
X006598Y007020D01*
X006703Y006915D01*
X007432Y006915D01*
X007527Y007010D01*
X008047Y007010D01*
X008055Y006991D01*
X008184Y006862D01*
X008352Y006793D01*
X008534Y006793D01*
X008702Y006862D01*
X008643Y006662D02*
X010140Y006662D01*
X010022Y006544D02*
X008796Y006544D01*
X008841Y007018D02*
X010203Y007018D01*
X010203Y007136D02*
X008890Y007136D01*
X008900Y007255D02*
X010203Y007255D01*
X010203Y007373D02*
X008887Y007373D01*
X008838Y007492D02*
X010203Y007492D01*
X010203Y007610D02*
X008729Y007610D01*
X008665Y007847D02*
X010203Y007847D01*
X010203Y007729D02*
X007529Y007729D01*
X007538Y007847D02*
X008221Y007847D01*
X008081Y007966D02*
X007538Y007966D01*
X007538Y007610D02*
X008156Y007610D01*
X008048Y007492D02*
X007538Y007492D01*
X007188Y007250D02*
X007068Y007370D01*
X007188Y007250D02*
X008443Y007250D01*
X008147Y006899D02*
X006308Y006899D01*
X006308Y007018D02*
X006601Y007018D01*
X006598Y007136D02*
X006308Y007136D01*
X006308Y007255D02*
X006598Y007255D01*
X006598Y007373D02*
X006308Y007373D01*
X006308Y007492D02*
X006598Y007492D01*
X006598Y007610D02*
X006308Y007610D01*
X006308Y007729D02*
X006607Y007729D01*
X006598Y007847D02*
X006308Y007847D01*
X006308Y007966D02*
X006598Y007966D01*
X006598Y008084D02*
X006308Y008084D01*
X006308Y008203D02*
X006598Y008203D01*
X006598Y008321D02*
X006308Y008321D01*
X006308Y008440D02*
X006598Y008440D01*
X006676Y008558D02*
X006308Y008558D01*
X006334Y008677D02*
X008278Y008677D01*
X008347Y008795D02*
X006452Y008795D01*
X006483Y009165D02*
X006068Y008750D01*
X006068Y005875D01*
X007818Y004125D01*
X011318Y004125D01*
X013443Y006250D01*
X014068Y006250D01*
X014443Y005875D01*
X014443Y003000D01*
X014818Y002625D01*
X018818Y002625D01*
X018943Y002500D01*
X018943Y001500D01*
X019299Y001922D02*
X019587Y001922D01*
X019473Y001804D02*
X019412Y001804D01*
X019183Y002041D02*
X019811Y002041D01*
X020075Y002041D02*
X022811Y002041D01*
X022833Y002050D02*
X022631Y001966D01*
X022477Y001812D01*
X022433Y001706D01*
X022396Y001778D01*
X022347Y001845D01*
X022288Y001904D01*
X022221Y001953D01*
X022146Y001991D01*
X022067Y002017D01*
X021985Y002030D01*
X021983Y002030D01*
X021983Y001540D01*
X021903Y001540D01*
X021903Y001460D01*
X021983Y001460D01*
X021983Y000970D01*
X021985Y000970D01*
X022067Y000983D01*
X022146Y001009D01*
X022221Y001047D01*
X022288Y001096D01*
X022347Y001155D01*
X022396Y001222D01*
X022433Y001294D01*
X022477Y001188D01*
X022631Y001034D01*
X022833Y000950D01*
X023052Y000950D01*
X023254Y001034D01*
X023409Y001188D01*
X023493Y001391D01*
X023493Y001609D01*
X023409Y001812D01*
X023254Y001966D01*
X023052Y002050D01*
X022833Y002050D01*
X023075Y002041D02*
X024703Y002041D01*
X024703Y002159D02*
X019183Y002159D01*
X019183Y002278D02*
X024703Y002278D01*
X024703Y002396D02*
X019183Y002396D01*
X019183Y002515D02*
X019457Y002515D01*
X019317Y002633D02*
X019148Y002633D01*
X019199Y002752D02*
X019031Y002752D01*
X019460Y003226D02*
X024664Y003226D01*
X024703Y003107D02*
X019579Y003107D01*
X019342Y003344D02*
X024545Y003344D01*
X024463Y003463D02*
X017328Y003463D01*
X017328Y003581D02*
X024463Y003581D01*
X024463Y003700D02*
X017328Y003700D01*
X017328Y003818D02*
X024463Y003818D01*
X024576Y003937D02*
X017328Y003937D01*
X017328Y004055D02*
X024694Y004055D01*
X024752Y004165D02*
X024903Y004165D01*
X024903Y004585D01*
X024483Y004585D01*
X024483Y004434D01*
X024752Y004165D01*
X024744Y004174D02*
X017328Y004174D01*
X017328Y004292D02*
X024625Y004292D01*
X024507Y004411D02*
X017328Y004411D01*
X017328Y004529D02*
X024483Y004529D01*
X024483Y004766D02*
X021713Y004766D01*
X021748Y004885D02*
X024552Y004885D01*
X024670Y005003D02*
X021748Y005003D01*
X021748Y005122D02*
X025203Y005122D01*
X025203Y005240D02*
X021748Y005240D01*
X021748Y005359D02*
X025203Y005359D01*
X025203Y005477D02*
X021759Y005477D01*
X021878Y005596D02*
X025203Y005596D01*
X025203Y005714D02*
X021996Y005714D01*
X022115Y005833D02*
X025203Y005833D01*
X025203Y005951D02*
X022233Y005951D01*
X022352Y006070D02*
X025203Y006070D01*
X025203Y006188D02*
X022470Y006188D01*
X022589Y006307D02*
X025203Y006307D01*
X025203Y006425D02*
X022707Y006425D01*
X022826Y006544D02*
X025203Y006544D01*
X025203Y006662D02*
X022944Y006662D01*
X023063Y006781D02*
X025203Y006781D01*
X025203Y006899D02*
X023181Y006899D01*
X023300Y007018D02*
X024585Y007018D01*
X024566Y007136D02*
X023418Y007136D01*
X023537Y007255D02*
X024904Y007255D01*
X024943Y007290D02*
X024943Y006750D01*
X024904Y007018D02*
X024981Y007018D01*
X024981Y007136D02*
X024904Y007136D01*
X024566Y007373D02*
X023655Y007373D01*
X023774Y007492D02*
X024566Y007492D01*
X024623Y007610D02*
X023892Y007610D01*
X024011Y007729D02*
X024546Y007729D01*
X024546Y007847D02*
X024090Y007847D01*
X024098Y007966D02*
X024546Y007966D01*
X024546Y008084D02*
X024098Y008084D01*
X024098Y008203D02*
X024546Y008203D01*
X024636Y008321D02*
X024098Y008321D01*
X024098Y008440D02*
X024703Y008440D01*
X024703Y008558D02*
X024098Y008558D01*
X024098Y008677D02*
X024639Y008677D01*
X024546Y008795D02*
X024098Y008795D01*
X024098Y008914D02*
X024546Y008914D01*
X024546Y009032D02*
X024098Y009032D01*
X024098Y009151D02*
X024546Y009151D01*
X024546Y009269D02*
X024098Y009269D01*
X024098Y009388D02*
X024597Y009388D01*
X024546Y009506D02*
X024098Y009506D01*
X024098Y009625D02*
X024546Y009625D01*
X024546Y009743D02*
X024098Y009743D01*
X024098Y009862D02*
X024546Y009862D01*
X024546Y009980D02*
X024098Y009980D01*
X024098Y010099D02*
X024992Y010099D01*
X025111Y010217D02*
X024098Y010217D01*
X024098Y010336D02*
X025229Y010336D01*
X025348Y010454D02*
X024098Y010454D01*
X024098Y010573D02*
X025466Y010573D01*
X025585Y010691D02*
X024098Y010691D01*
X024098Y010810D02*
X025703Y010810D01*
X025822Y010928D02*
X024098Y010928D01*
X023618Y010928D02*
X020808Y010928D01*
X020840Y010810D02*
X023618Y010810D01*
X023618Y010691D02*
X020840Y010691D01*
X020840Y010573D02*
X020846Y010573D01*
X020795Y010217D02*
X020731Y010217D01*
X020423Y010217D02*
X020346Y010217D01*
X020346Y010233D02*
X020088Y010233D01*
X020047Y010222D01*
X020011Y010201D01*
X019981Y010171D01*
X019960Y010135D01*
X019949Y010094D01*
X019949Y009914D01*
X020346Y009914D01*
X020346Y009838D01*
X019949Y009838D01*
X019949Y009658D01*
X019960Y009617D01*
X019981Y009581D01*
X020011Y009551D01*
X020047Y009530D01*
X020088Y009519D01*
X020346Y009519D01*
X020346Y009838D01*
X020423Y009838D01*
X020423Y009914D01*
X020346Y009914D01*
X020346Y010233D01*
X020346Y010099D02*
X020423Y010099D01*
X020423Y009980D02*
X020346Y009980D01*
X020346Y009862D02*
X016108Y009862D01*
X016226Y009980D02*
X019949Y009980D01*
X019950Y010099D02*
X016275Y010099D01*
X016298Y010217D02*
X020039Y010217D01*
X019946Y010336D02*
X019904Y010336D01*
X019892Y010928D02*
X019962Y010928D01*
X019058Y011047D02*
X022144Y011047D01*
X021943Y011375D02*
X022483Y011375D01*
X022106Y011639D02*
X022087Y011639D01*
X021799Y011639D02*
X019084Y011639D01*
X019117Y011521D02*
X021679Y011521D01*
X021644Y011402D02*
X019101Y011402D01*
X019058Y011284D02*
X021657Y011284D01*
X021730Y011165D02*
X019058Y011165D01*
X018818Y011500D02*
X018818Y010665D01*
X018858Y010625D01*
X018481Y010573D02*
X016174Y010573D01*
X016253Y010454D02*
X018481Y010454D01*
X018481Y010336D02*
X016298Y010336D01*
X016007Y010691D02*
X018481Y010691D01*
X018481Y010810D02*
X014467Y010810D01*
X014585Y010928D02*
X018493Y010928D01*
X018578Y011047D02*
X014704Y011047D01*
X014822Y011165D02*
X018578Y011165D01*
X018578Y011284D02*
X014941Y011284D01*
X015059Y011402D02*
X018535Y011402D01*
X018519Y011521D02*
X015178Y011521D01*
X015296Y011639D02*
X016554Y011639D01*
X016388Y011758D02*
X015415Y011758D01*
X015533Y011876D02*
X016326Y011876D01*
X016306Y011995D02*
X015652Y011995D01*
X015770Y012113D02*
X016321Y012113D01*
X016378Y012232D02*
X015889Y012232D01*
X015818Y012500D02*
X014068Y010750D01*
X011943Y010750D01*
X010943Y009750D01*
X010943Y006250D01*
X009943Y005250D01*
X008443Y005250D01*
X007986Y005240D02*
X007042Y005240D01*
X006924Y005359D02*
X007993Y005359D01*
X008042Y005477D02*
X006805Y005477D01*
X006687Y005596D02*
X008142Y005596D01*
X008001Y005122D02*
X007161Y005122D01*
X007279Y005003D02*
X008050Y005003D01*
X008162Y004885D02*
X007398Y004885D01*
X007516Y004766D02*
X011619Y004766D01*
X011501Y004648D02*
X007635Y004648D01*
X007753Y004529D02*
X011382Y004529D01*
X011264Y004411D02*
X007872Y004411D01*
X008724Y004885D02*
X011738Y004885D01*
X011856Y005003D02*
X008835Y005003D01*
X010154Y005122D02*
X011975Y005122D01*
X012093Y005240D02*
X010272Y005240D01*
X010391Y005359D02*
X012212Y005359D01*
X012330Y005477D02*
X010509Y005477D01*
X010628Y005596D02*
X012449Y005596D01*
X012567Y005714D02*
X010746Y005714D01*
X010865Y005833D02*
X012686Y005833D01*
X012804Y005951D02*
X010983Y005951D01*
X011102Y006070D02*
X012923Y006070D01*
X012986Y006188D02*
X011177Y006188D01*
X011183Y006307D02*
X012986Y006307D01*
X013021Y006425D02*
X011183Y006425D01*
X011183Y006544D02*
X013090Y006544D01*
X013243Y006662D02*
X011183Y006662D01*
X011183Y006781D02*
X015697Y006781D01*
X015722Y006770D02*
X015913Y006770D01*
X016090Y006843D01*
X016225Y006978D01*
X016298Y007155D01*
X016298Y007345D01*
X016225Y007522D01*
X016090Y007657D01*
X015913Y007730D01*
X015722Y007730D01*
X015546Y007657D01*
X015411Y007522D01*
X015406Y007510D01*
X013829Y007510D01*
X013702Y007638D01*
X013534Y007707D01*
X013352Y007707D01*
X013184Y007638D01*
X013055Y007509D01*
X012986Y007341D01*
X012986Y007159D01*
X013055Y006991D01*
X013184Y006862D01*
X013352Y006793D01*
X013534Y006793D01*
X013702Y006862D01*
X013829Y006990D01*
X015406Y006990D01*
X015411Y006978D01*
X015546Y006843D01*
X015722Y006770D01*
X015939Y006781D02*
X017828Y006781D01*
X017828Y006899D02*
X016146Y006899D01*
X016241Y007018D02*
X017828Y007018D01*
X017828Y007136D02*
X016290Y007136D01*
X016298Y007255D02*
X017828Y007255D01*
X017828Y007373D02*
X016286Y007373D01*
X016237Y007492D02*
X017828Y007492D01*
X017828Y007610D02*
X016137Y007610D01*
X016090Y007843D02*
X016225Y007978D01*
X016298Y008155D01*
X016298Y008345D01*
X016225Y008522D01*
X016090Y008657D01*
X015913Y008730D01*
X015722Y008730D01*
X015546Y008657D01*
X015411Y008522D01*
X015406Y008510D01*
X013829Y008510D01*
X013702Y008638D01*
X013534Y008707D01*
X013352Y008707D01*
X013184Y008638D01*
X013055Y008509D01*
X012986Y008341D01*
X012986Y008159D01*
X013055Y007991D01*
X013184Y007862D01*
X013352Y007793D01*
X013534Y007793D01*
X013702Y007862D01*
X013829Y007990D01*
X015406Y007990D01*
X015411Y007978D01*
X015546Y007843D01*
X015722Y007770D01*
X015913Y007770D01*
X016090Y007843D01*
X016094Y007847D02*
X017828Y007847D01*
X017828Y007729D02*
X015917Y007729D01*
X015719Y007729D02*
X011183Y007729D01*
X011183Y007847D02*
X013221Y007847D01*
X013081Y007966D02*
X011183Y007966D01*
X011183Y008084D02*
X013017Y008084D01*
X012986Y008203D02*
X011183Y008203D01*
X011183Y008321D02*
X012986Y008321D01*
X013027Y008440D02*
X011183Y008440D01*
X011183Y008558D02*
X013104Y008558D01*
X013278Y008677D02*
X011183Y008677D01*
X011183Y008795D02*
X013347Y008795D01*
X013352Y008793D02*
X013534Y008793D01*
X013702Y008862D01*
X013829Y008990D01*
X015406Y008990D01*
X015411Y008978D01*
X015546Y008843D01*
X015722Y008770D01*
X015913Y008770D01*
X016090Y008843D01*
X016225Y008978D01*
X016298Y009155D01*
X016298Y009345D01*
X016225Y009522D01*
X016090Y009657D01*
X015913Y009730D01*
X015722Y009730D01*
X015546Y009657D01*
X015411Y009522D01*
X015406Y009510D01*
X013829Y009510D01*
X013702Y009638D01*
X013534Y009707D01*
X013352Y009707D01*
X013184Y009638D01*
X013055Y009509D01*
X012986Y009341D01*
X012986Y009159D01*
X013055Y008991D01*
X013184Y008862D01*
X013352Y008793D01*
X013539Y008795D02*
X015662Y008795D01*
X015593Y008677D02*
X013608Y008677D01*
X013781Y008558D02*
X015447Y008558D01*
X015476Y008914D02*
X013753Y008914D01*
X013133Y008914D02*
X011183Y008914D01*
X011183Y009032D02*
X013038Y009032D01*
X012989Y009151D02*
X011183Y009151D01*
X011183Y009269D02*
X012986Y009269D01*
X013005Y009388D02*
X011183Y009388D01*
X011183Y009506D02*
X013054Y009506D01*
X013171Y009625D02*
X011183Y009625D01*
X011275Y009743D02*
X019949Y009743D01*
X019958Y009625D02*
X016122Y009625D01*
X016231Y009506D02*
X021011Y009506D01*
X021011Y009625D02*
X020811Y009625D01*
X020809Y009617D02*
X020820Y009658D01*
X020820Y009838D01*
X020423Y009838D01*
X020423Y009519D01*
X020681Y009519D01*
X020722Y009530D01*
X020759Y009551D01*
X020788Y009581D01*
X020809Y009617D01*
X020820Y009743D02*
X021011Y009743D01*
X021011Y009862D02*
X020423Y009862D01*
X020423Y009743D02*
X020346Y009743D01*
X020346Y009625D02*
X020423Y009625D01*
X020872Y009269D02*
X016298Y009269D01*
X016296Y009151D02*
X020754Y009151D01*
X020635Y009032D02*
X016247Y009032D01*
X016160Y008914D02*
X018517Y008914D01*
X018398Y008795D02*
X015974Y008795D01*
X016042Y008677D02*
X018280Y008677D01*
X018161Y008558D02*
X016189Y008558D01*
X016259Y008440D02*
X018043Y008440D01*
X017924Y008321D02*
X016298Y008321D01*
X016298Y008203D02*
X017840Y008203D01*
X017828Y008084D02*
X016269Y008084D01*
X016212Y007966D02*
X017828Y007966D01*
X018068Y008125D02*
X018068Y005625D01*
X017943Y005500D01*
X018068Y005375D01*
X018498Y005359D02*
X020258Y005359D01*
X020258Y005315D02*
X019908Y005315D01*
X019908Y004854D01*
X019919Y004813D01*
X019940Y004777D01*
X019970Y004747D01*
X020006Y004726D01*
X020047Y004715D01*
X020258Y004715D01*
X020258Y005315D01*
X020378Y005315D01*
X020378Y005435D01*
X020728Y005435D01*
X020728Y005896D01*
X020717Y005937D01*
X020696Y005973D01*
X020666Y006003D01*
X020630Y006024D01*
X020589Y006035D01*
X020378Y006035D01*
X020378Y005435D01*
X020258Y005435D01*
X020258Y006035D01*
X020047Y006035D01*
X020006Y006024D01*
X019970Y006003D01*
X019940Y005973D01*
X019919Y005937D01*
X019908Y005896D01*
X019908Y005435D01*
X020258Y005435D01*
X020258Y005315D01*
X020258Y005240D02*
X020378Y005240D01*
X020378Y005315D02*
X020378Y004715D01*
X020589Y004715D01*
X020630Y004726D01*
X020666Y004747D01*
X020696Y004777D01*
X020717Y004813D01*
X020728Y004854D01*
X020728Y005315D01*
X020378Y005315D01*
X020378Y005359D02*
X020888Y005359D01*
X020888Y005477D02*
X020728Y005477D01*
X020728Y005596D02*
X020888Y005596D01*
X020888Y005714D02*
X020728Y005714D01*
X020728Y005833D02*
X020888Y005833D01*
X020889Y005951D02*
X020709Y005951D01*
X020378Y005951D02*
X020258Y005951D01*
X020258Y005833D02*
X020378Y005833D01*
X020378Y005714D02*
X020258Y005714D01*
X020258Y005596D02*
X020378Y005596D01*
X020378Y005477D02*
X020258Y005477D01*
X019908Y005477D02*
X018498Y005477D01*
X018498Y005596D02*
X019908Y005596D01*
X019908Y005714D02*
X018498Y005714D01*
X018498Y005833D02*
X019908Y005833D01*
X019927Y005951D02*
X018496Y005951D01*
X018308Y006070D02*
X021673Y006070D01*
X021791Y006188D02*
X018308Y006188D01*
X018308Y006307D02*
X021910Y006307D01*
X022028Y006425D02*
X018308Y006425D01*
X018308Y006544D02*
X022147Y006544D01*
X022265Y006662D02*
X018308Y006662D01*
X018308Y006781D02*
X022384Y006781D01*
X022502Y006899D02*
X018308Y006899D01*
X018308Y007018D02*
X022621Y007018D01*
X022739Y007136D02*
X018308Y007136D01*
X018308Y007255D02*
X022858Y007255D01*
X022976Y007373D02*
X018308Y007373D01*
X018308Y007492D02*
X023095Y007492D01*
X023213Y007610D02*
X018308Y007610D01*
X018308Y007729D02*
X023332Y007729D01*
X023450Y007847D02*
X018308Y007847D01*
X018308Y007966D02*
X023569Y007966D01*
X023618Y008084D02*
X018366Y008084D01*
X018485Y008203D02*
X023618Y008203D01*
X023618Y008321D02*
X018603Y008321D01*
X018722Y008440D02*
X023618Y008440D01*
X023618Y008558D02*
X020840Y008558D01*
X020959Y008677D02*
X023618Y008677D01*
X023618Y008795D02*
X021077Y008795D01*
X021196Y008914D02*
X023618Y008914D01*
X023618Y009032D02*
X021314Y009032D01*
X021433Y009151D02*
X023618Y009151D01*
X023618Y009269D02*
X021491Y009269D01*
X021491Y009388D02*
X023618Y009388D01*
X023618Y009506D02*
X021491Y009506D01*
X021491Y009625D02*
X023618Y009625D01*
X023618Y009743D02*
X021491Y009743D01*
X021491Y009862D02*
X023618Y009862D01*
X023618Y009980D02*
X021707Y009980D01*
X021707Y010099D02*
X023618Y010099D01*
X023618Y010217D02*
X021707Y010217D01*
X021707Y010336D02*
X023618Y010336D01*
X023618Y010454D02*
X021707Y010454D01*
X021655Y010573D02*
X023618Y010573D01*
X023519Y011047D02*
X023492Y011047D01*
X023152Y011375D02*
X023858Y011375D01*
X023858Y007915D01*
X021318Y005375D01*
X020888Y005240D02*
X020728Y005240D01*
X020728Y005122D02*
X020888Y005122D01*
X020888Y005003D02*
X020728Y005003D01*
X020728Y004885D02*
X020888Y004885D01*
X020922Y004766D02*
X020685Y004766D01*
X020378Y004766D02*
X020258Y004766D01*
X020258Y004885D02*
X020378Y004885D01*
X020378Y005003D02*
X020258Y005003D01*
X020258Y005122D02*
X020378Y005122D01*
X019908Y005122D02*
X018498Y005122D01*
X018498Y005240D02*
X019908Y005240D01*
X019908Y005003D02*
X018498Y005003D01*
X018498Y004885D02*
X019908Y004885D01*
X019951Y004766D02*
X018463Y004766D01*
X017672Y004766D02*
X017463Y004766D01*
X017498Y004885D02*
X017638Y004885D01*
X017638Y005003D02*
X017498Y005003D01*
X017498Y005122D02*
X017638Y005122D01*
X017638Y005240D02*
X017498Y005240D01*
X017498Y005359D02*
X017638Y005359D01*
X017638Y005477D02*
X017498Y005477D01*
X017498Y005596D02*
X017638Y005596D01*
X017638Y005714D02*
X017498Y005714D01*
X017498Y005833D02*
X017638Y005833D01*
X017639Y005951D02*
X017496Y005951D01*
X017828Y006070D02*
X014588Y006070D01*
X014671Y005951D02*
X016639Y005951D01*
X016638Y005833D02*
X014683Y005833D01*
X014683Y005714D02*
X016638Y005714D01*
X016638Y005596D02*
X014683Y005596D01*
X014683Y005477D02*
X016638Y005477D01*
X016638Y005359D02*
X014683Y005359D01*
X014683Y005240D02*
X016638Y005240D01*
X016638Y005122D02*
X014683Y005122D01*
X014683Y005003D02*
X016638Y005003D01*
X016638Y004885D02*
X014683Y004885D01*
X014683Y004766D02*
X016672Y004766D01*
X016808Y004648D02*
X014683Y004648D01*
X014683Y004529D02*
X016808Y004529D01*
X016808Y004411D02*
X014683Y004411D01*
X014683Y004292D02*
X016808Y004292D01*
X016808Y004174D02*
X014683Y004174D01*
X014683Y004055D02*
X016808Y004055D01*
X016808Y003937D02*
X014683Y003937D01*
X014683Y003818D02*
X016808Y003818D01*
X016808Y003700D02*
X014683Y003700D01*
X014683Y003581D02*
X016808Y003581D01*
X016808Y003463D02*
X014683Y003463D01*
X014683Y003344D02*
X014739Y003344D01*
X014203Y003344D02*
X014147Y003344D01*
X014109Y002870D02*
X014237Y002870D01*
X014307Y002797D02*
X014307Y002797D01*
X014352Y002752D02*
X005243Y002752D01*
X005243Y002633D02*
X014470Y002633D01*
X014589Y002515D02*
X005243Y002515D01*
X005243Y002396D02*
X014744Y002396D01*
X014614Y002489D02*
X014614Y002489D01*
X015097Y002865D02*
X015097Y002865D01*
X015811Y002041D02*
X005243Y002041D01*
X005243Y002159D02*
X018703Y002159D01*
X018703Y002041D02*
X018075Y002041D01*
X018299Y001922D02*
X018587Y001922D01*
X018473Y001804D02*
X018412Y001804D01*
X017811Y002041D02*
X017075Y002041D01*
X017299Y001922D02*
X017587Y001922D01*
X017473Y001804D02*
X017412Y001804D01*
X016811Y002041D02*
X016075Y002041D01*
X016299Y001922D02*
X016587Y001922D01*
X016473Y001804D02*
X016412Y001804D01*
X016418Y001211D02*
X016467Y001211D01*
X016573Y001093D02*
X016313Y001093D01*
X016110Y000974D02*
X016775Y000974D01*
X017110Y000974D02*
X017775Y000974D01*
X017573Y001093D02*
X017313Y001093D01*
X017418Y001211D02*
X017467Y001211D01*
X018110Y000974D02*
X018775Y000974D01*
X018573Y001093D02*
X018313Y001093D01*
X018418Y001211D02*
X018467Y001211D01*
X019110Y000974D02*
X019775Y000974D01*
X019573Y001093D02*
X019313Y001093D01*
X019418Y001211D02*
X019467Y001211D01*
X020110Y000974D02*
X020876Y000974D01*
X020903Y000974D02*
X020983Y000974D01*
X020983Y000970D02*
X020985Y000970D01*
X021067Y000983D01*
X021146Y001009D01*
X021221Y001047D01*
X021288Y001096D01*
X021347Y001155D01*
X021396Y001222D01*
X021434Y001297D01*
X021443Y001324D01*
X021452Y001297D01*
X021490Y001222D01*
X021539Y001155D01*
X021598Y001096D01*
X021665Y001047D01*
X021739Y001009D01*
X021819Y000983D01*
X021901Y000970D01*
X021903Y000970D01*
X021903Y001460D01*
X021473Y001460D01*
X020983Y001460D01*
X020983Y000970D01*
X021010Y000974D02*
X021876Y000974D01*
X021903Y000974D02*
X021983Y000974D01*
X022010Y000974D02*
X022775Y000974D01*
X022573Y001093D02*
X022284Y001093D01*
X022388Y001211D02*
X022467Y001211D01*
X021983Y001211D02*
X021903Y001211D01*
X021903Y001093D02*
X021983Y001093D01*
X021983Y001330D02*
X021903Y001330D01*
X021903Y001448D02*
X021983Y001448D01*
X021983Y001567D02*
X021903Y001567D01*
X021903Y001685D02*
X021983Y001685D01*
X021983Y001804D02*
X021903Y001804D01*
X021903Y001922D02*
X021983Y001922D01*
X022264Y001922D02*
X022587Y001922D01*
X022473Y001804D02*
X022377Y001804D01*
X021622Y001922D02*
X021264Y001922D01*
X021377Y001804D02*
X021508Y001804D01*
X021446Y001685D02*
X021440Y001685D01*
X020983Y001685D02*
X020903Y001685D01*
X020903Y001567D02*
X020983Y001567D01*
X020983Y001448D02*
X020903Y001448D01*
X020903Y001330D02*
X020983Y001330D01*
X020983Y001211D02*
X020903Y001211D01*
X020903Y001093D02*
X020983Y001093D01*
X021284Y001093D02*
X021602Y001093D01*
X021498Y001211D02*
X021388Y001211D01*
X020983Y001804D02*
X020903Y001804D01*
X020903Y001922D02*
X020983Y001922D01*
X020622Y001922D02*
X020299Y001922D01*
X020412Y001804D02*
X020508Y001804D01*
X020498Y001211D02*
X020418Y001211D01*
X020313Y001093D02*
X020602Y001093D01*
X018703Y002278D02*
X005243Y002278D01*
X005243Y001922D02*
X015587Y001922D01*
X015473Y001804D02*
X005243Y001804D01*
X005243Y001685D02*
X015424Y001685D01*
X015393Y001567D02*
X005243Y001567D01*
X005243Y001448D02*
X015393Y001448D01*
X015418Y001330D02*
X005243Y001330D01*
X005243Y001211D02*
X015467Y001211D01*
X015573Y001093D02*
X005243Y001093D01*
X005243Y000974D02*
X015775Y000974D01*
X014203Y003937D02*
X011469Y003937D01*
X011587Y004055D02*
X014203Y004055D01*
X014203Y004174D02*
X011706Y004174D01*
X011824Y004292D02*
X014203Y004292D01*
X014203Y004411D02*
X011943Y004411D01*
X012061Y004529D02*
X014203Y004529D01*
X014203Y004648D02*
X012180Y004648D01*
X012298Y004766D02*
X014203Y004766D01*
X014203Y004885D02*
X013684Y004885D01*
X013672Y004876D02*
X013728Y004917D01*
X013776Y004965D01*
X013817Y005021D01*
X013848Y005082D01*
X013869Y005148D01*
X013880Y005216D01*
X013880Y005221D01*
X013471Y005221D01*
X013471Y004813D01*
X013477Y004813D01*
X013545Y004824D01*
X013611Y004845D01*
X013672Y004876D01*
X013804Y005003D02*
X014203Y005003D01*
X014203Y005122D02*
X013861Y005122D01*
X013880Y005279D02*
X013471Y005279D01*
X013414Y005279D01*
X013414Y005687D01*
X013408Y005687D01*
X013340Y005676D01*
X013275Y005655D01*
X013214Y005624D01*
X013158Y005583D01*
X013109Y005535D01*
X013069Y005479D01*
X013038Y005418D01*
X013016Y005352D01*
X013006Y005284D01*
X013006Y005279D01*
X013414Y005279D01*
X013414Y005221D01*
X013471Y005221D01*
X013471Y005279D01*
X013471Y005687D01*
X013477Y005687D01*
X013545Y005676D01*
X013611Y005655D01*
X013672Y005624D01*
X013728Y005583D01*
X013776Y005535D01*
X013817Y005479D01*
X013848Y005418D01*
X013869Y005352D01*
X013880Y005284D01*
X013880Y005279D01*
X013867Y005359D02*
X014203Y005359D01*
X014203Y005477D02*
X013818Y005477D01*
X013711Y005596D02*
X014203Y005596D01*
X014203Y005714D02*
X013246Y005714D01*
X013175Y005596D02*
X013128Y005596D01*
X013068Y005477D02*
X013009Y005477D01*
X013018Y005359D02*
X012891Y005359D01*
X012772Y005240D02*
X013414Y005240D01*
X013414Y005221D02*
X013006Y005221D01*
X013006Y005216D01*
X013016Y005148D01*
X013038Y005082D01*
X013069Y005021D01*
X013109Y004965D01*
X013158Y004917D01*
X013214Y004876D01*
X013275Y004845D01*
X013340Y004824D01*
X013408Y004813D01*
X013414Y004813D01*
X013414Y005221D01*
X013471Y005240D02*
X014203Y005240D01*
X014146Y005833D02*
X013630Y005833D01*
X013790Y005951D02*
X014027Y005951D01*
X014351Y006307D02*
X017828Y006307D01*
X017828Y006425D02*
X014232Y006425D01*
X014271Y006386D02*
X014271Y006386D01*
X014469Y006188D02*
X017828Y006188D01*
X017828Y006544D02*
X013796Y006544D01*
X013643Y006662D02*
X017828Y006662D01*
X018068Y008125D02*
X018693Y008750D01*
X020693Y008750D01*
X021251Y009308D01*
X021251Y010250D01*
X020991Y009388D02*
X016280Y009388D01*
X015514Y009625D02*
X013715Y009625D01*
X013700Y009862D02*
X015528Y009862D01*
X015410Y009980D02*
X013819Y009980D01*
X013186Y009862D02*
X011394Y009862D01*
X011512Y009980D02*
X013066Y009980D01*
X013011Y010099D02*
X011631Y010099D01*
X011749Y010217D02*
X012986Y010217D01*
X012986Y010336D02*
X011868Y010336D01*
X011986Y010454D02*
X013033Y010454D01*
X013056Y011047D02*
X011829Y011047D01*
X011781Y010928D02*
X011710Y010928D01*
X011663Y010810D02*
X011592Y010810D01*
X011544Y010691D02*
X011473Y010691D01*
X011426Y010573D02*
X011355Y010573D01*
X011307Y010454D02*
X011236Y010454D01*
X011189Y010336D02*
X011118Y010336D01*
X011070Y010217D02*
X010999Y010217D01*
X010952Y010099D02*
X010881Y010099D01*
X010833Y009980D02*
X010762Y009980D01*
X010729Y009862D02*
X010683Y009862D01*
X010683Y009743D02*
X010703Y009743D01*
X010703Y009625D02*
X010683Y009625D01*
X010683Y009506D02*
X010703Y009506D01*
X010703Y009388D02*
X010683Y009388D01*
X010683Y009269D02*
X010703Y009269D01*
X010703Y009151D02*
X010683Y009151D01*
X010683Y009032D02*
X010703Y009032D01*
X010703Y008914D02*
X010683Y008914D01*
X010683Y008795D02*
X010703Y008795D01*
X010703Y008677D02*
X010683Y008677D01*
X010683Y008558D02*
X010703Y008558D01*
X010703Y008440D02*
X010683Y008440D01*
X010683Y008321D02*
X010703Y008321D01*
X010703Y008203D02*
X010683Y008203D01*
X010683Y008084D02*
X010703Y008084D01*
X010703Y007966D02*
X010683Y007966D01*
X010683Y007847D02*
X010703Y007847D01*
X010703Y007729D02*
X010683Y007729D01*
X010683Y007610D02*
X010703Y007610D01*
X010703Y007492D02*
X010683Y007492D01*
X010683Y007373D02*
X010703Y007373D01*
X010703Y007255D02*
X010683Y007255D01*
X010683Y007136D02*
X010703Y007136D01*
X010703Y007018D02*
X010683Y007018D01*
X010683Y006899D02*
X010703Y006899D01*
X010703Y006781D02*
X010683Y006781D01*
X010683Y006662D02*
X010703Y006662D01*
X010703Y006544D02*
X010669Y006544D01*
X010703Y006425D02*
X010582Y006425D01*
X010660Y006307D02*
X010464Y006307D01*
X010541Y006188D02*
X010345Y006188D01*
X010423Y006070D02*
X010227Y006070D01*
X011183Y006899D02*
X013147Y006899D01*
X013044Y007018D02*
X011183Y007018D01*
X011183Y007136D02*
X012995Y007136D01*
X012986Y007255D02*
X011183Y007255D01*
X011183Y007373D02*
X012999Y007373D01*
X013048Y007492D02*
X011183Y007492D01*
X011183Y007610D02*
X013156Y007610D01*
X013665Y007847D02*
X015542Y007847D01*
X015424Y007966D02*
X013805Y007966D01*
X013729Y007610D02*
X015499Y007610D01*
X015490Y006899D02*
X013738Y006899D01*
X013471Y005596D02*
X013414Y005596D01*
X013414Y005477D02*
X013471Y005477D01*
X013471Y005359D02*
X013414Y005359D01*
X013414Y005122D02*
X013471Y005122D01*
X013471Y005003D02*
X013414Y005003D01*
X013414Y004885D02*
X013471Y004885D01*
X013202Y004885D02*
X012417Y004885D01*
X012535Y005003D02*
X013082Y005003D01*
X013025Y005122D02*
X012654Y005122D01*
X010203Y007966D02*
X008805Y007966D01*
X008869Y008084D02*
X010203Y008084D01*
X010203Y008203D02*
X008900Y008203D01*
X008900Y008321D02*
X010203Y008321D01*
X010203Y008440D02*
X008859Y008440D01*
X008781Y008558D02*
X010203Y008558D01*
X010203Y008677D02*
X008608Y008677D01*
X008539Y008795D02*
X010203Y008795D01*
X010203Y008914D02*
X008753Y008914D01*
X008847Y009032D02*
X010203Y009032D01*
X010203Y009151D02*
X008896Y009151D01*
X008900Y009269D02*
X010203Y009269D01*
X010203Y009388D02*
X008881Y009388D01*
X008832Y009506D02*
X010203Y009506D01*
X010203Y009625D02*
X008715Y009625D01*
X008700Y009862D02*
X010203Y009862D01*
X010203Y009980D02*
X008819Y009980D01*
X008875Y010099D02*
X010224Y010099D01*
X010320Y010217D02*
X008900Y010217D01*
X008900Y010336D02*
X010439Y010336D01*
X010557Y010454D02*
X008853Y010454D01*
X008767Y010573D02*
X010676Y010573D01*
X010794Y010691D02*
X008573Y010691D01*
X008574Y010810D02*
X010913Y010810D01*
X011031Y010928D02*
X008767Y010928D01*
X008853Y011047D02*
X011150Y011047D01*
X011268Y011165D02*
X008900Y011165D01*
X008900Y011284D02*
X011387Y011284D01*
X011505Y011402D02*
X008875Y011402D01*
X008819Y011521D02*
X011624Y011521D01*
X011742Y011639D02*
X008698Y011639D01*
X008187Y011639D02*
X007431Y011639D01*
X007529Y011521D02*
X008067Y011521D01*
X008443Y011250D02*
X007152Y011250D01*
X007498Y010928D02*
X008118Y010928D01*
X008312Y010810D02*
X006723Y010810D01*
X006723Y010691D02*
X008313Y010691D01*
X008119Y010573D02*
X007498Y010573D01*
X007152Y010250D02*
X008443Y010250D01*
X008066Y009980D02*
X007529Y009980D01*
X007432Y009862D02*
X008186Y009862D01*
X008171Y009625D02*
X007446Y009625D01*
X007529Y009506D02*
X008054Y009506D01*
X008443Y009250D02*
X007152Y009250D01*
X006821Y008914D02*
X006815Y008914D01*
X006483Y009165D02*
X006483Y009250D01*
X006483Y010250D01*
X006483Y011250D01*
X006762Y011639D02*
X006874Y011639D01*
X005828Y011995D02*
X008054Y011995D01*
X008005Y012113D02*
X005828Y012113D01*
X005828Y012232D02*
X007986Y012232D01*
X007989Y012350D02*
X005828Y012350D01*
X005828Y012469D02*
X008039Y012469D01*
X008133Y012587D02*
X005828Y012587D01*
X005828Y011876D02*
X008170Y011876D01*
X005828Y013654D02*
X015883Y013654D01*
X015763Y013772D02*
X005828Y013772D01*
X005828Y013891D02*
X012879Y013891D01*
X012792Y014009D02*
X005828Y014009D01*
X005828Y014128D02*
X012769Y014128D01*
X012794Y014246D02*
X005828Y014246D01*
X005828Y014365D02*
X007899Y014365D01*
X007899Y014363D02*
X007929Y014334D01*
X007966Y014313D01*
X008006Y014302D01*
X008775Y014302D01*
X008775Y014815D01*
X008895Y014815D01*
X008895Y014935D01*
X009802Y014935D01*
X009802Y015309D01*
X009791Y015350D01*
X009770Y015387D01*
X009740Y015416D01*
X009703Y015437D01*
X009663Y015448D01*
X008895Y015448D01*
X008895Y014935D01*
X008775Y014935D01*
X008775Y015448D01*
X008006Y015448D01*
X007966Y015437D01*
X007929Y015416D01*
X007899Y015387D01*
X007878Y015350D01*
X007867Y015309D01*
X007867Y014935D01*
X008775Y014935D01*
X008775Y014815D01*
X007867Y014815D01*
X007867Y014441D01*
X007878Y014400D01*
X007899Y014363D01*
X007867Y014483D02*
X005828Y014483D01*
X005828Y014602D02*
X007867Y014602D01*
X007867Y014720D02*
X005828Y014720D01*
X005828Y014839D02*
X008775Y014839D01*
X008775Y014957D02*
X008895Y014957D01*
X008895Y014839D02*
X010564Y014839D01*
X010564Y014957D02*
X009802Y014957D01*
X009802Y015076D02*
X010564Y015076D01*
X010564Y015194D02*
X009802Y015194D01*
X009801Y015313D02*
X010564Y015313D01*
X010632Y015431D02*
X009715Y015431D01*
X008895Y015431D02*
X008775Y015431D01*
X008775Y015313D02*
X008895Y015313D01*
X008895Y015194D02*
X008775Y015194D01*
X008775Y015076D02*
X008895Y015076D01*
X008895Y014815D02*
X009802Y014815D01*
X009802Y014441D01*
X009791Y014400D01*
X009770Y014363D01*
X009740Y014334D01*
X009703Y014313D01*
X009663Y014302D01*
X008895Y014302D01*
X008895Y014815D01*
X008895Y014720D02*
X008775Y014720D01*
X008775Y014602D02*
X008895Y014602D01*
X008895Y014483D02*
X008775Y014483D01*
X008775Y014365D02*
X008895Y014365D01*
X009770Y014365D02*
X010587Y014365D01*
X010564Y014483D02*
X009802Y014483D01*
X009802Y014602D02*
X010564Y014602D01*
X010564Y014720D02*
X009802Y014720D01*
X007867Y014957D02*
X005828Y014957D01*
X005828Y015076D02*
X007867Y015076D01*
X007867Y015194D02*
X005880Y015194D01*
X005998Y015313D02*
X007868Y015313D01*
X007955Y015431D02*
X006117Y015431D01*
X007610Y015550D02*
X012878Y015550D01*
X012797Y015668D02*
X007729Y015668D01*
X007847Y015787D02*
X012797Y015787D01*
X012790Y015905D02*
X007966Y015905D01*
X008084Y016024D02*
X012672Y016024D01*
X012553Y016142D02*
X008180Y016142D01*
X008203Y016261D02*
X012435Y016261D01*
X011864Y016379D02*
X008203Y016379D01*
X008203Y016498D02*
X011848Y016498D01*
X011848Y016616D02*
X008203Y016616D01*
X008203Y016735D02*
X011848Y016735D01*
X011848Y016853D02*
X008203Y016853D01*
X008203Y016972D02*
X011848Y016972D01*
X011848Y017090D02*
X008203Y017090D01*
X008203Y017209D02*
X011848Y017209D01*
X011848Y017327D02*
X008203Y017327D01*
X008203Y017446D02*
X011848Y017446D01*
X011848Y017564D02*
X008203Y017564D01*
X008203Y017683D02*
X011773Y017683D01*
X011654Y017801D02*
X008203Y017801D01*
X008203Y017920D02*
X011536Y017920D01*
X011417Y018038D02*
X008203Y018038D01*
X008203Y018157D02*
X011299Y018157D01*
X011180Y018275D02*
X008203Y018275D01*
X008203Y018394D02*
X011062Y018394D01*
X010943Y018512D02*
X008203Y018512D01*
X007683Y018512D02*
X006834Y018512D01*
X006253Y018157D02*
X006133Y018157D01*
X006133Y018038D02*
X006253Y018038D01*
X006253Y017920D02*
X006133Y017920D01*
X005551Y018512D02*
X005243Y018512D01*
X005243Y018394D02*
X007683Y018394D01*
X006849Y019223D02*
X011352Y019223D01*
X011234Y019342D02*
X005243Y019342D01*
X005243Y019460D02*
X011115Y019460D01*
X010997Y019579D02*
X006776Y019579D01*
X006873Y019697D02*
X010878Y019697D01*
X011258Y020053D02*
X012012Y020053D01*
X011894Y020171D02*
X011139Y020171D01*
X011376Y019934D02*
X017569Y019934D01*
X017688Y019816D02*
X011495Y019816D01*
X011614Y019697D02*
X017806Y019697D01*
X017925Y019579D02*
X011732Y019579D01*
X011851Y019460D02*
X018043Y019460D01*
X018162Y019342D02*
X011969Y019342D01*
X012088Y019223D02*
X018280Y019223D01*
X018399Y019105D02*
X012206Y019105D01*
X012325Y018986D02*
X018517Y018986D01*
X018636Y018868D02*
X012443Y018868D01*
X012562Y018749D02*
X018754Y018749D01*
X018873Y018631D02*
X012680Y018631D01*
X012799Y018512D02*
X018991Y018512D01*
X019110Y018394D02*
X012917Y018394D01*
X013036Y018275D02*
X019228Y018275D01*
X019347Y018157D02*
X013154Y018157D01*
X013273Y018038D02*
X019465Y018038D01*
X019584Y017920D02*
X013391Y017920D01*
X013510Y017801D02*
X019702Y017801D01*
X019821Y017683D02*
X013628Y017683D01*
X013747Y017564D02*
X019939Y017564D01*
X020058Y017446D02*
X013865Y017446D01*
X013984Y017327D02*
X020176Y017327D01*
X020295Y017209D02*
X014065Y017209D01*
X014078Y017090D02*
X029224Y017090D01*
X029411Y017090D02*
X029781Y017090D01*
X029769Y016972D02*
X014078Y016972D01*
X014078Y016853D02*
X029805Y016853D01*
X029927Y016735D02*
X014078Y016735D01*
X014078Y016616D02*
X029969Y016616D01*
X029851Y016498D02*
X014078Y016498D01*
X014329Y016379D02*
X029732Y016379D01*
X029818Y016125D02*
X029568Y016125D01*
X029318Y015875D01*
X029318Y014875D01*
X029818Y014375D01*
X030278Y014365D02*
X030358Y014365D01*
X030358Y014483D02*
X030278Y014483D01*
X030358Y014496D02*
X030358Y014184D01*
X030627Y013915D01*
X031008Y013915D01*
X031278Y014184D01*
X031278Y014566D01*
X031008Y014835D01*
X030697Y014835D01*
X030558Y014974D01*
X030558Y014984D01*
X030627Y014915D01*
X031008Y014915D01*
X031278Y015184D01*
X031278Y015496D01*
X032792Y017010D01*
X033113Y017010D01*
X032682Y016578D01*
X032614Y016511D01*
X032578Y016423D01*
X032578Y015786D01*
X032358Y015566D01*
X032358Y015184D01*
X032627Y014915D01*
X033008Y014915D01*
X033078Y014984D01*
X033078Y014974D01*
X032938Y014835D01*
X032627Y014835D01*
X032358Y014566D01*
X032358Y014184D01*
X032627Y013915D01*
X033008Y013915D01*
X033278Y014184D01*
X033278Y014496D01*
X033454Y014672D01*
X033521Y014739D01*
X033558Y014827D01*
X033558Y015013D01*
X033636Y014935D01*
X033788Y014935D01*
X033788Y015345D01*
X033848Y015345D01*
X033848Y015405D01*
X034258Y015405D01*
X034258Y015557D01*
X034000Y015815D01*
X033848Y015815D01*
X033848Y015405D01*
X033788Y015405D01*
X033788Y015815D01*
X033636Y015815D01*
X033558Y015737D01*
X033558Y015857D01*
X033633Y015826D01*
X033752Y015826D01*
X033862Y015871D01*
X033876Y015885D01*
X038116Y015885D01*
X038204Y015922D01*
X038271Y015989D01*
X039042Y016760D01*
X041425Y016760D01*
X041393Y016728D01*
X041393Y016272D01*
X041665Y016000D01*
X041405Y015740D01*
X038645Y015740D01*
X038557Y015703D01*
X038489Y015636D01*
X038278Y015424D01*
X038278Y015466D01*
X038208Y015636D01*
X038078Y015765D01*
X037909Y015835D01*
X037726Y015835D01*
X037557Y015765D01*
X037428Y015636D01*
X037358Y015466D01*
X037358Y015283D01*
X037428Y015115D01*
X037208Y015115D01*
X037278Y015184D01*
X037278Y015566D01*
X037008Y015835D01*
X036627Y015835D01*
X036358Y015566D01*
X036358Y015184D01*
X036427Y015115D01*
X036417Y015115D01*
X036278Y015254D01*
X036278Y015566D01*
X036008Y015835D01*
X035627Y015835D01*
X035358Y015566D01*
X035358Y015184D01*
X035627Y014915D01*
X035938Y014915D01*
X036114Y014739D01*
X036182Y014672D01*
X036270Y014635D01*
X036427Y014635D01*
X036358Y014566D01*
X036358Y014184D01*
X036627Y013915D01*
X037008Y013915D01*
X037278Y014184D01*
X037278Y014566D01*
X037208Y014635D01*
X037427Y014635D01*
X037358Y014566D01*
X037358Y014184D01*
X037627Y013915D01*
X038008Y013915D01*
X038278Y014184D01*
X038278Y014566D01*
X038181Y014662D01*
X038204Y014672D01*
X038792Y015260D01*
X039425Y015260D01*
X039394Y015184D01*
X039394Y015165D01*
X038093Y013865D01*
X028667Y013865D01*
X028278Y014254D01*
X028278Y014566D01*
X028208Y014635D01*
X028366Y014635D01*
X028454Y014672D01*
X028521Y014739D01*
X028697Y014915D01*
X029008Y014915D01*
X029078Y014984D01*
X029078Y014827D01*
X029114Y014739D01*
X029358Y014496D01*
X029358Y014184D01*
X029627Y013915D01*
X030008Y013915D01*
X030278Y014184D01*
X030278Y014566D01*
X030008Y014835D01*
X029697Y014835D01*
X029558Y014974D01*
X029558Y014984D01*
X029627Y014915D01*
X030008Y014915D01*
X030078Y014984D01*
X030078Y014827D01*
X030114Y014739D01*
X030182Y014672D01*
X030358Y014496D01*
X030252Y014602D02*
X030242Y014602D01*
X030133Y014720D02*
X030123Y014720D01*
X030078Y014839D02*
X029694Y014839D01*
X029585Y014957D02*
X029575Y014957D01*
X030050Y014957D02*
X030078Y014957D01*
X030318Y014875D02*
X030318Y015750D01*
X031943Y017375D01*
X031943Y020500D01*
X032339Y020882D02*
X032547Y020882D01*
X032457Y020764D02*
X032429Y020764D01*
X032172Y021001D02*
X032714Y021001D01*
X033172Y021001D02*
X033714Y021001D01*
X033547Y020882D02*
X033339Y020882D01*
X033429Y020764D02*
X033457Y020764D01*
X034172Y021001D02*
X034714Y021001D01*
X034547Y020882D02*
X034339Y020882D01*
X034429Y020764D02*
X034457Y020764D01*
X034494Y020171D02*
X034392Y020171D01*
X034273Y020053D02*
X034612Y020053D01*
X035273Y020053D02*
X035612Y020053D01*
X035494Y020171D02*
X035392Y020171D01*
X035429Y020764D02*
X035457Y020764D01*
X035547Y020882D02*
X035339Y020882D01*
X035172Y021001D02*
X035714Y021001D01*
X036172Y021001D02*
X036714Y021001D01*
X036547Y020882D02*
X036339Y020882D01*
X036429Y020764D02*
X036457Y020764D01*
X036494Y020171D02*
X036392Y020171D01*
X036273Y020053D02*
X036612Y020053D01*
X037273Y020053D02*
X037612Y020053D01*
X037494Y020171D02*
X037392Y020171D01*
X037429Y020764D02*
X037457Y020764D01*
X037547Y020882D02*
X037339Y020882D01*
X037172Y021001D02*
X037714Y021001D01*
X038172Y021001D02*
X038714Y021001D01*
X038547Y020882D02*
X038339Y020882D01*
X038429Y020764D02*
X038457Y020764D01*
X039172Y021001D02*
X041714Y021001D01*
X041547Y020882D02*
X039339Y020882D01*
X039429Y020764D02*
X041457Y020764D01*
X041408Y020645D02*
X039478Y020645D01*
X039493Y020527D02*
X041393Y020527D01*
X041393Y020408D02*
X039493Y020408D01*
X039451Y020290D02*
X041435Y020290D01*
X041494Y020171D02*
X039392Y020171D01*
X039273Y020053D02*
X041612Y020053D01*
X041599Y019934D02*
X032183Y019934D01*
X032183Y019816D02*
X041481Y019816D01*
X041393Y019697D02*
X032183Y019697D01*
X032183Y019579D02*
X041393Y019579D01*
X041393Y019460D02*
X032183Y019460D01*
X032183Y019342D02*
X041393Y019342D01*
X041442Y019223D02*
X032183Y019223D01*
X032183Y019105D02*
X041560Y019105D01*
X041651Y018986D02*
X032183Y018986D01*
X032183Y018868D02*
X041533Y018868D01*
X041414Y018749D02*
X032183Y018749D01*
X032183Y018631D02*
X041393Y018631D01*
X041393Y018512D02*
X032183Y018512D01*
X032183Y018394D02*
X041393Y018394D01*
X041393Y018275D02*
X032183Y018275D01*
X032183Y018157D02*
X038760Y018157D01*
X038641Y018038D02*
X032183Y018038D01*
X032183Y017920D02*
X038523Y017920D01*
X038404Y017801D02*
X032183Y017801D01*
X032183Y017683D02*
X037702Y017683D01*
X037646Y017564D02*
X032183Y017564D01*
X032183Y017446D02*
X032549Y017446D01*
X032693Y017250D02*
X030818Y015375D01*
X031169Y015076D02*
X031467Y015076D01*
X031358Y015184D02*
X031627Y014915D01*
X032008Y014915D01*
X032278Y015184D01*
X032278Y015566D01*
X032008Y015835D01*
X031627Y015835D01*
X031358Y015566D01*
X031358Y015184D01*
X031358Y015194D02*
X031278Y015194D01*
X031278Y015313D02*
X031358Y015313D01*
X031358Y015431D02*
X031278Y015431D01*
X031332Y015550D02*
X031358Y015550D01*
X031450Y015668D02*
X031460Y015668D01*
X031569Y015787D02*
X031579Y015787D01*
X031687Y015905D02*
X032578Y015905D01*
X032578Y015787D02*
X032057Y015787D01*
X032175Y015668D02*
X032460Y015668D01*
X032358Y015550D02*
X032278Y015550D01*
X032278Y015431D02*
X032358Y015431D01*
X032358Y015313D02*
X032278Y015313D01*
X032278Y015194D02*
X032358Y015194D01*
X032467Y015076D02*
X032169Y015076D01*
X032050Y014957D02*
X032585Y014957D01*
X032512Y014720D02*
X032123Y014720D01*
X032008Y014835D02*
X032278Y014566D01*
X032278Y014184D01*
X032008Y013915D01*
X031627Y013915D01*
X031358Y014184D01*
X031358Y014566D01*
X031627Y014835D01*
X032008Y014835D01*
X032242Y014602D02*
X032394Y014602D01*
X032358Y014483D02*
X032278Y014483D01*
X032278Y014365D02*
X032358Y014365D01*
X032358Y014246D02*
X032278Y014246D01*
X032221Y014128D02*
X032415Y014128D01*
X032533Y014009D02*
X032102Y014009D01*
X031533Y014009D02*
X031102Y014009D01*
X031221Y014128D02*
X031415Y014128D01*
X031358Y014246D02*
X031278Y014246D01*
X031278Y014365D02*
X031358Y014365D01*
X031358Y014483D02*
X031278Y014483D01*
X031242Y014602D02*
X031394Y014602D01*
X031512Y014720D02*
X031123Y014720D01*
X031050Y014957D02*
X031585Y014957D01*
X030694Y014839D02*
X032942Y014839D01*
X033050Y014957D02*
X033060Y014957D01*
X033318Y014875D02*
X033318Y016250D01*
X033568Y016500D01*
X037943Y016500D01*
X038943Y017500D01*
X041943Y017500D01*
X042443Y017000D02*
X038943Y017000D01*
X038068Y016125D01*
X033693Y016125D01*
X033607Y015787D02*
X033558Y015787D01*
X033788Y015787D02*
X033848Y015787D01*
X033848Y015668D02*
X033788Y015668D01*
X033788Y015550D02*
X033848Y015550D01*
X033848Y015431D02*
X033788Y015431D01*
X033848Y015345D02*
X034258Y015345D01*
X034258Y015193D01*
X034000Y014935D01*
X033848Y014935D01*
X033848Y015345D01*
X033848Y015313D02*
X033788Y015313D01*
X033788Y015194D02*
X033848Y015194D01*
X033848Y015076D02*
X033788Y015076D01*
X033788Y014957D02*
X033848Y014957D01*
X034022Y014957D02*
X034585Y014957D01*
X034627Y014915D02*
X035008Y014915D01*
X035278Y015184D01*
X035278Y015566D01*
X035008Y015835D01*
X034627Y015835D01*
X034358Y015566D01*
X034358Y015184D01*
X034627Y014915D01*
X034627Y014835D02*
X034358Y014566D01*
X034358Y014184D01*
X034627Y013915D01*
X035008Y013915D01*
X035278Y014184D01*
X035278Y014566D01*
X035008Y014835D01*
X034627Y014835D01*
X034512Y014720D02*
X034123Y014720D01*
X034008Y014835D02*
X033627Y014835D01*
X033358Y014566D01*
X033358Y014184D01*
X033627Y013915D01*
X034008Y013915D01*
X034278Y014184D01*
X034278Y014566D01*
X034008Y014835D01*
X034141Y015076D02*
X034467Y015076D01*
X034358Y015194D02*
X034258Y015194D01*
X034258Y015313D02*
X034358Y015313D01*
X034358Y015431D02*
X034258Y015431D01*
X034258Y015550D02*
X034358Y015550D01*
X034460Y015668D02*
X034147Y015668D01*
X034029Y015787D02*
X034579Y015787D01*
X035057Y015787D02*
X035579Y015787D01*
X035460Y015668D02*
X035175Y015668D01*
X035278Y015550D02*
X035358Y015550D01*
X035358Y015431D02*
X035278Y015431D01*
X035278Y015313D02*
X035358Y015313D01*
X035358Y015194D02*
X035278Y015194D01*
X035169Y015076D02*
X035467Y015076D01*
X035585Y014957D02*
X035050Y014957D01*
X035123Y014720D02*
X035541Y014720D01*
X035636Y014815D02*
X035378Y014557D01*
X035378Y014405D01*
X035788Y014405D01*
X035788Y014815D01*
X035636Y014815D01*
X035788Y014720D02*
X035848Y014720D01*
X035848Y014815D02*
X036000Y014815D01*
X036258Y014557D01*
X036258Y014405D01*
X035848Y014405D01*
X035848Y014345D01*
X036258Y014345D01*
X036258Y014193D01*
X036000Y013935D01*
X035848Y013935D01*
X035848Y014345D01*
X035788Y014345D01*
X035788Y013935D01*
X035636Y013935D01*
X035378Y014193D01*
X035378Y014345D01*
X035788Y014345D01*
X035788Y014405D01*
X035848Y014405D01*
X035848Y014815D01*
X036015Y014839D02*
X033558Y014839D01*
X033558Y014957D02*
X033614Y014957D01*
X033512Y014720D02*
X033502Y014720D01*
X033394Y014602D02*
X033384Y014602D01*
X033358Y014483D02*
X033278Y014483D01*
X033278Y014365D02*
X033358Y014365D01*
X033358Y014246D02*
X033278Y014246D01*
X033221Y014128D02*
X033415Y014128D01*
X033533Y014009D02*
X033102Y014009D01*
X032818Y014375D02*
X033318Y014875D01*
X032818Y015375D02*
X032818Y016375D01*
X033318Y016875D01*
X037818Y016875D01*
X038943Y018000D01*
X042443Y018000D01*
X042943Y018500D01*
X043493Y018512D02*
X043643Y018512D01*
X043643Y018394D02*
X043493Y018394D01*
X043493Y018275D02*
X043643Y018275D01*
X043643Y018157D02*
X043377Y018157D01*
X043259Y018038D02*
X043643Y018038D01*
X043643Y017920D02*
X043301Y017920D01*
X043420Y017801D02*
X043643Y017801D01*
X043643Y017683D02*
X043493Y017683D01*
X043493Y017564D02*
X043643Y017564D01*
X043643Y017446D02*
X043493Y017446D01*
X043493Y017327D02*
X043643Y017327D01*
X043643Y017209D02*
X043429Y017209D01*
X043311Y017090D02*
X043643Y017090D01*
X043643Y016972D02*
X043249Y016972D01*
X043368Y016853D02*
X043643Y016853D01*
X043643Y016735D02*
X043486Y016735D01*
X043493Y016616D02*
X043643Y016616D01*
X043643Y016498D02*
X043493Y016498D01*
X043493Y016379D02*
X043668Y016379D01*
X043675Y016261D02*
X043481Y016261D01*
X043363Y016142D02*
X043675Y016142D01*
X043675Y016024D02*
X043244Y016024D01*
X043316Y015905D02*
X043675Y015905D01*
X043675Y015787D02*
X043434Y015787D01*
X043493Y015668D02*
X043675Y015668D01*
X043675Y015550D02*
X043493Y015550D01*
X043493Y015431D02*
X043675Y015431D01*
X043675Y015313D02*
X043493Y015313D01*
X043415Y015194D02*
X043675Y015194D01*
X043675Y015076D02*
X043296Y015076D01*
X043264Y014957D02*
X043675Y014957D01*
X043675Y014839D02*
X043382Y014839D01*
X043493Y014720D02*
X043675Y014720D01*
X043675Y014602D02*
X043493Y014602D01*
X043493Y014483D02*
X043675Y014483D01*
X043675Y014365D02*
X043493Y014365D01*
X043467Y014246D02*
X043675Y014246D01*
X043675Y014128D02*
X043348Y014128D01*
X043230Y014009D02*
X043675Y014009D01*
X043675Y013891D02*
X043330Y013891D01*
X043449Y013772D02*
X043675Y013772D01*
X043675Y013654D02*
X043493Y013654D01*
X043493Y013535D02*
X043675Y013535D01*
X043675Y013417D02*
X043493Y013417D01*
X043493Y013298D02*
X043675Y013298D01*
X043675Y013180D02*
X043400Y013180D01*
X043282Y013061D02*
X043675Y013061D01*
X043675Y012943D02*
X043278Y012943D01*
X043397Y012824D02*
X043675Y012824D01*
X043675Y012706D02*
X043493Y012706D01*
X043493Y012587D02*
X043675Y012587D01*
X043675Y012469D02*
X043493Y012469D01*
X043493Y012350D02*
X043675Y012350D01*
X043675Y012232D02*
X043452Y012232D01*
X043334Y012113D02*
X043675Y012113D01*
X043675Y011995D02*
X043226Y011995D01*
X043345Y011876D02*
X043675Y011876D01*
X043675Y011758D02*
X043463Y011758D01*
X043493Y011639D02*
X043675Y011639D01*
X043675Y011521D02*
X043493Y011521D01*
X043493Y011402D02*
X043675Y011402D01*
X043675Y011284D02*
X043493Y011284D01*
X043386Y011165D02*
X043675Y011165D01*
X043675Y011047D02*
X043267Y011047D01*
X043293Y010928D02*
X043675Y010928D01*
X043675Y010810D02*
X043411Y010810D01*
X043493Y010691D02*
X043675Y010691D01*
X043675Y010573D02*
X043493Y010573D01*
X043493Y010454D02*
X043675Y010454D01*
X043675Y010336D02*
X043493Y010336D01*
X043438Y010217D02*
X043675Y010217D01*
X043675Y010099D02*
X043319Y010099D01*
X043241Y009980D02*
X043675Y009980D01*
X043675Y009862D02*
X043359Y009862D01*
X043478Y009743D02*
X043675Y009743D01*
X043675Y009625D02*
X043493Y009625D01*
X043493Y009506D02*
X043675Y009506D01*
X043675Y009388D02*
X043493Y009388D01*
X043490Y009269D02*
X043675Y009269D01*
X043675Y009151D02*
X043371Y009151D01*
X043253Y009032D02*
X043675Y009032D01*
X043675Y008914D02*
X043307Y008914D01*
X043426Y008795D02*
X043675Y008795D01*
X043675Y008677D02*
X043493Y008677D01*
X043493Y008558D02*
X043675Y008558D01*
X043675Y008440D02*
X043493Y008440D01*
X043493Y008321D02*
X043675Y008321D01*
X043675Y008203D02*
X043423Y008203D01*
X043305Y008084D02*
X043675Y008084D01*
X043675Y007966D02*
X043255Y007966D01*
X043374Y007847D02*
X043675Y007847D01*
X043675Y007729D02*
X043492Y007729D01*
X043493Y007610D02*
X043675Y007610D01*
X043675Y007492D02*
X043493Y007492D01*
X043493Y007373D02*
X043675Y007373D01*
X043675Y007255D02*
X043475Y007255D01*
X043357Y007136D02*
X043675Y007136D01*
X043675Y007018D02*
X043238Y007018D01*
X043322Y006899D02*
X043675Y006899D01*
X043675Y006781D02*
X043440Y006781D01*
X043493Y006662D02*
X043675Y006662D01*
X043675Y006544D02*
X043493Y006544D01*
X043493Y006425D02*
X043675Y006425D01*
X043675Y006307D02*
X043493Y006307D01*
X043409Y006188D02*
X043675Y006188D01*
X043675Y006070D02*
X043290Y006070D01*
X043270Y005951D02*
X043675Y005951D01*
X043675Y005833D02*
X043388Y005833D01*
X043493Y005714D02*
X043675Y005714D01*
X043675Y005596D02*
X043493Y005596D01*
X043493Y005477D02*
X043675Y005477D01*
X043675Y005359D02*
X043493Y005359D01*
X043461Y005240D02*
X043675Y005240D01*
X043675Y005122D02*
X043342Y005122D01*
X043224Y005003D02*
X043675Y005003D01*
X043675Y004885D02*
X043336Y004885D01*
X043455Y004766D02*
X043675Y004766D01*
X043675Y004648D02*
X043493Y004648D01*
X043493Y004529D02*
X043675Y004529D01*
X043675Y004411D02*
X043493Y004411D01*
X043493Y004292D02*
X043675Y004292D01*
X043675Y004174D02*
X043394Y004174D01*
X043276Y004055D02*
X043675Y004055D01*
X043675Y003937D02*
X043244Y003937D01*
X043367Y003818D02*
X043675Y003818D01*
X043675Y003700D02*
X043435Y003700D01*
X043467Y003581D02*
X043675Y003581D01*
X043675Y003463D02*
X042983Y003463D01*
X042983Y003460D02*
X043473Y003460D01*
X043473Y003458D01*
X043460Y003376D01*
X043434Y003297D01*
X043396Y003222D01*
X043347Y003155D01*
X043288Y003096D01*
X043221Y003047D01*
X043146Y003009D01*
X043067Y002983D01*
X042985Y002970D01*
X042983Y002970D01*
X042983Y003460D01*
X042903Y003460D02*
X042903Y002970D01*
X042901Y002970D01*
X042819Y002983D01*
X042739Y003009D01*
X042665Y003047D01*
X042598Y003096D01*
X042539Y003155D01*
X042490Y003222D01*
X042452Y003297D01*
X042443Y003324D01*
X042434Y003297D01*
X042396Y003222D01*
X042347Y003155D01*
X042288Y003096D01*
X042221Y003047D01*
X042146Y003009D01*
X042067Y002983D01*
X041985Y002970D01*
X041983Y002970D01*
X041983Y003460D01*
X042413Y003460D01*
X042903Y003460D01*
X042903Y003463D02*
X041983Y003463D01*
X041903Y003463D02*
X036648Y003463D01*
X036767Y003581D02*
X037602Y003581D01*
X037578Y003700D02*
X036885Y003700D01*
X037004Y003818D02*
X038048Y003818D01*
X038088Y003818D02*
X041519Y003818D01*
X041450Y003700D02*
X038558Y003700D01*
X038558Y003645D02*
X038558Y003806D01*
X038088Y003806D01*
X038088Y003506D01*
X038419Y003506D01*
X038460Y003517D01*
X038496Y003538D01*
X038526Y003568D01*
X038547Y003604D01*
X038558Y003645D01*
X038534Y003581D02*
X041419Y003581D01*
X041413Y003460D02*
X041413Y003458D01*
X041426Y003376D01*
X041452Y003297D01*
X041490Y003222D01*
X041539Y003155D01*
X041598Y003096D01*
X041665Y003047D01*
X041739Y003009D01*
X041819Y002983D01*
X041901Y002970D01*
X041903Y002970D01*
X041903Y003460D01*
X041413Y003460D01*
X041436Y003344D02*
X036530Y003344D01*
X036411Y003226D02*
X041488Y003226D01*
X041586Y003107D02*
X036293Y003107D01*
X036174Y002989D02*
X041802Y002989D01*
X041903Y002989D02*
X041983Y002989D01*
X042084Y002989D02*
X042802Y002989D01*
X042903Y002989D02*
X042983Y002989D01*
X043084Y002989D02*
X043675Y002989D01*
X043675Y003107D02*
X043299Y003107D01*
X043398Y003226D02*
X043675Y003226D01*
X043675Y003344D02*
X043449Y003344D01*
X042983Y003344D02*
X042903Y003344D01*
X042903Y003226D02*
X042983Y003226D01*
X042983Y003107D02*
X042903Y003107D01*
X042586Y003107D02*
X042299Y003107D01*
X042398Y003226D02*
X042488Y003226D01*
X041983Y003226D02*
X041903Y003226D01*
X041903Y003344D02*
X041983Y003344D01*
X041983Y003107D02*
X041903Y003107D01*
X041642Y003937D02*
X038558Y003937D01*
X038547Y004048D02*
X038547Y004048D01*
X038553Y004055D02*
X041610Y004055D01*
X041492Y004174D02*
X038578Y004174D01*
X038578Y004292D02*
X041393Y004292D01*
X041393Y004411D02*
X038578Y004411D01*
X038120Y004750D02*
X038068Y004802D01*
X038120Y004750D02*
X039443Y004750D01*
X040193Y005500D01*
X041943Y005500D01*
X041544Y005122D02*
X040154Y005122D01*
X040272Y005240D02*
X041425Y005240D01*
X041662Y005003D02*
X040035Y005003D01*
X039917Y004885D02*
X041550Y004885D01*
X041431Y004766D02*
X039798Y004766D01*
X039680Y004648D02*
X041393Y004648D01*
X041393Y004529D02*
X039536Y004529D01*
X039193Y005250D02*
X038108Y005250D01*
X038068Y005290D01*
X038096Y005750D02*
X038068Y005779D01*
X038096Y005750D02*
X039068Y005750D01*
X039818Y006500D01*
X041943Y006500D01*
X042443Y006000D02*
X039943Y006000D01*
X039193Y005250D01*
X038943Y006250D02*
X038085Y006250D01*
X038068Y006267D01*
X037558Y006307D02*
X036964Y006307D01*
X037082Y006425D02*
X037558Y006425D01*
X037558Y006544D02*
X037201Y006544D01*
X037319Y006662D02*
X037558Y006662D01*
X037558Y006781D02*
X037438Y006781D01*
X037556Y006899D02*
X037558Y006899D01*
X037561Y007243D02*
X036443Y006125D01*
X035443Y006125D01*
X034943Y005625D01*
X032568Y005625D01*
X031318Y006875D01*
X031318Y009125D01*
X030818Y009625D01*
X030027Y009625D01*
X029943Y009710D01*
X030339Y009269D02*
X030834Y009269D01*
X030953Y009151D02*
X030339Y009151D01*
X030339Y009032D02*
X031071Y009032D01*
X031078Y008914D02*
X030339Y008914D01*
X030339Y008795D02*
X031078Y008795D01*
X031078Y008677D02*
X030356Y008677D01*
X030474Y008558D02*
X031078Y008558D01*
X031078Y008440D02*
X030593Y008440D01*
X030673Y008321D02*
X031078Y008321D01*
X031078Y008203D02*
X030683Y008203D01*
X030683Y008084D02*
X031078Y008084D01*
X031078Y007966D02*
X030683Y007966D01*
X030683Y007847D02*
X031078Y007847D01*
X031078Y007729D02*
X030683Y007729D01*
X030683Y007610D02*
X031078Y007610D01*
X031078Y007492D02*
X030683Y007492D01*
X030683Y007373D02*
X031078Y007373D01*
X031078Y007255D02*
X030683Y007255D01*
X030683Y007136D02*
X031078Y007136D01*
X031078Y007018D02*
X030683Y007018D01*
X030683Y006899D02*
X031078Y006899D01*
X031097Y006781D02*
X030683Y006781D01*
X030683Y006662D02*
X031191Y006662D01*
X031182Y006672D02*
X031182Y006672D01*
X031310Y006544D02*
X030683Y006544D01*
X030683Y006425D02*
X031428Y006425D01*
X031547Y006307D02*
X030683Y006307D01*
X030683Y006188D02*
X031665Y006188D01*
X031784Y006070D02*
X030683Y006070D01*
X030683Y005951D02*
X031902Y005951D01*
X032021Y005833D02*
X030683Y005833D01*
X030683Y005714D02*
X032139Y005714D01*
X032258Y005596D02*
X030683Y005596D01*
X030683Y005477D02*
X032376Y005477D01*
X032133Y005085D02*
X031983Y005085D01*
X031983Y004665D01*
X032403Y004665D01*
X032403Y004816D01*
X032133Y005085D01*
X032215Y005003D02*
X034642Y005003D01*
X034744Y005105D02*
X034463Y004824D01*
X034463Y004426D01*
X034744Y004145D01*
X035142Y004145D01*
X035423Y004426D01*
X035423Y004824D01*
X035142Y005105D01*
X034744Y005105D01*
X034649Y005240D02*
X030683Y005240D01*
X030683Y005122D02*
X037558Y005122D01*
X037558Y005240D02*
X036208Y005240D01*
X036133Y005165D02*
X036403Y005434D01*
X036403Y005585D01*
X035983Y005585D01*
X035983Y005165D01*
X036133Y005165D01*
X036133Y005085D02*
X035983Y005085D01*
X035983Y004665D01*
X036403Y004665D01*
X036403Y004816D01*
X036133Y005085D01*
X036215Y005003D02*
X037558Y005003D01*
X037558Y004885D02*
X036334Y004885D01*
X036403Y004766D02*
X037558Y004766D01*
X037558Y004648D02*
X035983Y004648D01*
X035983Y004665D02*
X035983Y004585D01*
X036403Y004585D01*
X036403Y004434D01*
X036133Y004165D01*
X035983Y004165D01*
X035983Y004585D01*
X035903Y004585D01*
X035903Y004165D01*
X035752Y004165D01*
X035483Y004434D01*
X035483Y004585D01*
X035903Y004585D01*
X035903Y004665D01*
X035903Y005085D01*
X035752Y005085D01*
X035483Y004816D01*
X035483Y004665D01*
X035903Y004665D01*
X035983Y004665D01*
X035903Y004648D02*
X035423Y004648D01*
X035423Y004766D02*
X035483Y004766D01*
X035552Y004885D02*
X035362Y004885D01*
X035244Y005003D02*
X035670Y005003D01*
X035752Y005165D02*
X035903Y005165D01*
X035903Y005585D01*
X035483Y005585D01*
X035483Y005434D01*
X035752Y005165D01*
X035677Y005240D02*
X035237Y005240D01*
X035355Y005359D02*
X035559Y005359D01*
X035483Y005477D02*
X035423Y005477D01*
X035423Y005596D02*
X035903Y005596D01*
X035983Y005596D02*
X037558Y005596D01*
X037558Y005714D02*
X036403Y005714D01*
X036386Y005833D02*
X037558Y005833D01*
X037558Y005951D02*
X036608Y005951D01*
X036727Y006070D02*
X037558Y006070D01*
X037558Y006188D02*
X036845Y006188D01*
X036522Y006544D02*
X036403Y006544D01*
X036403Y006585D02*
X035983Y006585D01*
X035983Y006665D01*
X036403Y006665D01*
X036403Y006816D01*
X036333Y006885D01*
X036491Y006885D01*
X036579Y006922D01*
X036646Y006989D01*
X037149Y007491D01*
X037563Y007491D01*
X037567Y007487D01*
X037563Y007483D01*
X037513Y007483D01*
X037425Y007447D01*
X036343Y006365D01*
X036333Y006365D01*
X036403Y006434D01*
X036403Y006585D01*
X036393Y006425D02*
X036403Y006425D01*
X036640Y006662D02*
X035983Y006662D01*
X035903Y006662D02*
X035423Y006662D01*
X035483Y006665D02*
X035903Y006665D01*
X035903Y006585D01*
X035483Y006585D01*
X035483Y006434D01*
X035552Y006365D01*
X035395Y006365D01*
X035338Y006341D01*
X035423Y006426D01*
X035423Y006766D01*
X035542Y006885D01*
X035552Y006885D01*
X035483Y006816D01*
X035483Y006665D01*
X035483Y006781D02*
X035438Y006781D01*
X035423Y006544D02*
X035483Y006544D01*
X035492Y006425D02*
X035422Y006425D01*
X034943Y006625D02*
X032443Y006625D01*
X031693Y007375D01*
X031693Y009500D01*
X030943Y010250D01*
X029193Y010250D01*
X028943Y010000D01*
X028943Y009710D01*
X028943Y009040D02*
X028943Y008500D01*
X028943Y007960D01*
X029443Y008250D02*
X029193Y008500D01*
X028943Y008500D01*
X029443Y008250D02*
X029443Y004125D01*
X028943Y003625D01*
X028943Y001500D01*
X029418Y001211D02*
X029467Y001211D01*
X029573Y001093D02*
X029313Y001093D01*
X029110Y000974D02*
X029775Y000974D01*
X030110Y000974D02*
X030775Y000974D01*
X030573Y001093D02*
X030313Y001093D01*
X030418Y001211D02*
X030467Y001211D01*
X030943Y001500D02*
X030943Y003625D01*
X031310Y003937D02*
X031576Y003937D01*
X031463Y003818D02*
X031423Y003818D01*
X031423Y003700D02*
X031463Y003700D01*
X031463Y003581D02*
X031423Y003581D01*
X031423Y003463D02*
X031463Y003463D01*
X031545Y003344D02*
X031341Y003344D01*
X031222Y003226D02*
X031664Y003226D01*
X031703Y003107D02*
X031183Y003107D01*
X031183Y002989D02*
X031703Y002989D01*
X031703Y002870D02*
X031183Y002870D01*
X031183Y002752D02*
X031703Y002752D01*
X031703Y002633D02*
X031183Y002633D01*
X031183Y002515D02*
X031703Y002515D01*
X031703Y002396D02*
X031183Y002396D01*
X031183Y002278D02*
X031703Y002278D01*
X031703Y002159D02*
X031183Y002159D01*
X031183Y002041D02*
X031703Y002041D01*
X031587Y001922D02*
X031299Y001922D01*
X031412Y001804D02*
X031473Y001804D01*
X031943Y001500D02*
X031943Y003625D01*
X032310Y003937D02*
X036387Y003937D01*
X036505Y004055D02*
X032192Y004055D01*
X032133Y004165D02*
X031983Y004165D01*
X031983Y004585D01*
X031983Y004665D01*
X031903Y004665D01*
X031903Y005085D01*
X031752Y005085D01*
X031483Y004816D01*
X031483Y004665D01*
X031903Y004665D01*
X031903Y004585D01*
X031983Y004585D01*
X032403Y004585D01*
X032403Y004434D01*
X032133Y004165D01*
X032142Y004174D02*
X034716Y004174D01*
X034597Y004292D02*
X032260Y004292D01*
X032379Y004411D02*
X034479Y004411D01*
X034463Y004529D02*
X032403Y004529D01*
X032403Y004766D02*
X034463Y004766D01*
X034463Y004648D02*
X031983Y004648D01*
X031903Y004648D02*
X030983Y004648D01*
X030983Y004585D02*
X031403Y004585D01*
X031403Y004434D01*
X031133Y004165D01*
X030983Y004165D01*
X030983Y004585D01*
X030983Y004529D02*
X030903Y004529D01*
X030903Y004411D02*
X030983Y004411D01*
X030983Y004292D02*
X030903Y004292D01*
X030903Y004174D02*
X030983Y004174D01*
X031142Y004174D02*
X031744Y004174D01*
X031752Y004165D02*
X031903Y004165D01*
X031903Y004585D01*
X031483Y004585D01*
X031483Y004434D01*
X031752Y004165D01*
X031694Y004055D02*
X031192Y004055D01*
X031260Y004292D02*
X031625Y004292D01*
X031507Y004411D02*
X031379Y004411D01*
X031403Y004529D02*
X031483Y004529D01*
X031483Y004766D02*
X031403Y004766D01*
X031334Y004885D02*
X031552Y004885D01*
X031670Y005003D02*
X031215Y005003D01*
X030983Y005003D02*
X030903Y005003D01*
X030903Y004885D02*
X030983Y004885D01*
X030983Y004766D02*
X030903Y004766D01*
X030744Y004174D02*
X030683Y004174D01*
X030674Y004055D02*
X030694Y004055D01*
X030443Y004125D02*
X030443Y008250D01*
X030193Y008500D01*
X029943Y008500D01*
X029943Y009040D01*
X029943Y008500D02*
X029943Y007960D01*
X029943Y007290D02*
X029943Y006750D01*
X029981Y006934D02*
X030180Y006934D01*
X030203Y006940D01*
X030203Y005016D01*
X030133Y005085D01*
X029983Y005085D01*
X029983Y004665D01*
X029903Y004665D01*
X029903Y005085D01*
X029752Y005085D01*
X029683Y005016D01*
X029683Y006940D01*
X029705Y006934D01*
X029904Y006934D01*
X029904Y007252D01*
X029981Y007252D01*
X029981Y006934D01*
X029981Y007018D02*
X029904Y007018D01*
X029904Y007136D02*
X029981Y007136D01*
X030203Y006899D02*
X029683Y006899D01*
X029683Y006781D02*
X030203Y006781D01*
X030203Y006662D02*
X029683Y006662D01*
X029683Y006544D02*
X030203Y006544D01*
X030203Y006425D02*
X029683Y006425D01*
X029683Y006307D02*
X030203Y006307D01*
X030203Y006188D02*
X029683Y006188D01*
X029683Y006070D02*
X030203Y006070D01*
X030203Y005951D02*
X029683Y005951D01*
X029683Y005833D02*
X030203Y005833D01*
X030203Y005714D02*
X029683Y005714D01*
X029683Y005596D02*
X030203Y005596D01*
X030203Y005477D02*
X029683Y005477D01*
X029683Y005359D02*
X030203Y005359D01*
X030203Y005240D02*
X029683Y005240D01*
X029683Y005122D02*
X030203Y005122D01*
X029983Y005003D02*
X029903Y005003D01*
X029903Y004885D02*
X029983Y004885D01*
X029983Y004766D02*
X029903Y004766D01*
X029903Y004585D02*
X029983Y004585D01*
X029983Y004165D01*
X030133Y004165D01*
X030203Y004234D01*
X030203Y004224D01*
X030083Y004105D01*
X029744Y004105D01*
X029659Y004020D01*
X029683Y004077D01*
X029683Y004234D01*
X029752Y004165D01*
X029903Y004165D01*
X029903Y004585D01*
X029903Y004529D02*
X029983Y004529D01*
X029983Y004411D02*
X029903Y004411D01*
X029903Y004292D02*
X029983Y004292D01*
X029983Y004174D02*
X029903Y004174D01*
X029744Y004174D02*
X029683Y004174D01*
X029674Y004055D02*
X029694Y004055D01*
X030142Y004174D02*
X030152Y004174D01*
X030443Y004125D02*
X029943Y003625D01*
X029943Y001500D01*
X031110Y000974D02*
X031775Y000974D01*
X031573Y001093D02*
X031313Y001093D01*
X031418Y001211D02*
X031467Y001211D01*
X032110Y000974D02*
X033775Y000974D01*
X033833Y000950D02*
X033631Y001034D01*
X033477Y001188D01*
X033393Y001391D01*
X033393Y001609D01*
X033477Y001812D01*
X033631Y001966D01*
X033833Y002050D01*
X034052Y002050D01*
X034254Y001966D01*
X034409Y001812D01*
X034443Y001730D01*
X034477Y001812D01*
X034631Y001966D01*
X034833Y002050D01*
X035052Y002050D01*
X035254Y001966D01*
X035409Y001812D01*
X035443Y001730D01*
X035477Y001812D01*
X035631Y001966D01*
X035833Y002050D01*
X036052Y002050D01*
X036254Y001966D01*
X036409Y001812D01*
X036443Y001730D01*
X036477Y001812D01*
X036631Y001966D01*
X036833Y002050D01*
X037052Y002050D01*
X037254Y001966D01*
X037409Y001812D01*
X037443Y001730D01*
X037477Y001812D01*
X037631Y001966D01*
X037833Y002050D01*
X038052Y002050D01*
X038254Y001966D01*
X038409Y001812D01*
X038443Y001730D01*
X038477Y001812D01*
X038631Y001966D01*
X038833Y002050D01*
X039052Y002050D01*
X039254Y001966D01*
X039409Y001812D01*
X039443Y001730D01*
X039477Y001812D01*
X039631Y001966D01*
X039833Y002050D01*
X040052Y002050D01*
X040254Y001966D01*
X040409Y001812D01*
X040443Y001730D01*
X040477Y001812D01*
X040631Y001966D01*
X040833Y002050D01*
X041052Y002050D01*
X041254Y001966D01*
X041409Y001812D01*
X041493Y001609D01*
X041493Y001391D01*
X041409Y001188D01*
X041254Y001034D01*
X041052Y000950D01*
X040833Y000950D01*
X040631Y001034D01*
X040477Y001188D01*
X040443Y001270D01*
X040409Y001188D01*
X040254Y001034D01*
X040052Y000950D01*
X039833Y000950D01*
X039631Y001034D01*
X039477Y001188D01*
X039443Y001270D01*
X039409Y001188D01*
X039254Y001034D01*
X039052Y000950D01*
X038833Y000950D01*
X038631Y001034D01*
X038477Y001188D01*
X038443Y001270D01*
X038409Y001188D01*
X038254Y001034D01*
X038052Y000950D01*
X037833Y000950D01*
X037631Y001034D01*
X037477Y001188D01*
X037443Y001270D01*
X037409Y001188D01*
X037254Y001034D01*
X037052Y000950D01*
X036833Y000950D01*
X036631Y001034D01*
X036477Y001188D01*
X036443Y001270D01*
X036409Y001188D01*
X036254Y001034D01*
X036052Y000950D01*
X035833Y000950D01*
X035631Y001034D01*
X035477Y001188D01*
X035443Y001270D01*
X035409Y001188D01*
X035254Y001034D01*
X035052Y000950D01*
X034833Y000950D01*
X034631Y001034D01*
X034477Y001188D01*
X034443Y001270D01*
X034409Y001188D01*
X034254Y001034D01*
X034052Y000950D01*
X033833Y000950D01*
X034110Y000974D02*
X034775Y000974D01*
X034573Y001093D02*
X034313Y001093D01*
X034418Y001211D02*
X034467Y001211D01*
X035110Y000974D02*
X035775Y000974D01*
X035573Y001093D02*
X035313Y001093D01*
X035418Y001211D02*
X035467Y001211D01*
X035473Y001804D02*
X035412Y001804D01*
X035299Y001922D02*
X035587Y001922D01*
X035811Y002041D02*
X035075Y002041D01*
X034811Y002041D02*
X034075Y002041D01*
X034299Y001922D02*
X034587Y001922D01*
X034473Y001804D02*
X034412Y001804D01*
X033811Y002041D02*
X032183Y002041D01*
X032183Y002159D02*
X043675Y002159D01*
X043675Y002041D02*
X041075Y002041D01*
X041299Y001922D02*
X043675Y001922D01*
X043675Y001804D02*
X041412Y001804D01*
X041462Y001685D02*
X043675Y001685D01*
X043675Y001567D02*
X041493Y001567D01*
X041493Y001448D02*
X043675Y001448D01*
X043675Y001330D02*
X041468Y001330D01*
X041418Y001211D02*
X043675Y001211D01*
X043656Y001093D02*
X041313Y001093D01*
X041110Y000974D02*
X043643Y000974D01*
X043643Y000856D02*
X005243Y000856D01*
X007068Y008130D02*
X007188Y008250D01*
X008443Y008250D01*
X008104Y008558D02*
X007459Y008558D01*
X007484Y008914D02*
X008133Y008914D01*
X006859Y009625D02*
X006777Y009625D01*
X006723Y009743D02*
X010203Y009743D01*
X011947Y011165D02*
X013014Y011165D01*
X013006Y011284D02*
X012066Y011284D01*
X012184Y011402D02*
X013033Y011402D01*
X013471Y011279D02*
X013880Y011279D01*
X013880Y011284D01*
X013869Y011352D01*
X013848Y011418D01*
X013817Y011479D01*
X013794Y011510D01*
X014116Y011510D01*
X014204Y011547D01*
X014271Y011614D01*
X015417Y012760D01*
X025863Y012760D01*
X025843Y012740D01*
X015770Y012740D01*
X015682Y012703D01*
X013968Y010990D01*
X013794Y010990D01*
X013817Y011021D01*
X013848Y011082D01*
X013869Y011148D01*
X013880Y011216D01*
X013880Y011221D01*
X013471Y011221D01*
X013471Y011279D01*
X013853Y011402D02*
X014380Y011402D01*
X014262Y011284D02*
X013880Y011284D01*
X013872Y011165D02*
X014143Y011165D01*
X014025Y011047D02*
X013830Y011047D01*
X014141Y011521D02*
X014499Y011521D01*
X014617Y011639D02*
X014296Y011639D01*
X014415Y011758D02*
X014736Y011758D01*
X014854Y011876D02*
X014533Y011876D01*
X014652Y011995D02*
X014973Y011995D01*
X015091Y012113D02*
X014770Y012113D01*
X014889Y012232D02*
X015210Y012232D01*
X015328Y012350D02*
X015007Y012350D01*
X015126Y012469D02*
X015447Y012469D01*
X015565Y012587D02*
X015244Y012587D01*
X015363Y012706D02*
X015687Y012706D01*
X015818Y012500D02*
X025943Y012500D01*
X027318Y013875D01*
X027318Y014625D01*
X027568Y014875D01*
X028318Y014875D01*
X028818Y015375D01*
X028460Y015668D02*
X028175Y015668D01*
X028278Y015550D02*
X028358Y015550D01*
X028358Y015431D02*
X028278Y015431D01*
X028278Y015313D02*
X028358Y015313D01*
X028297Y015194D02*
X028278Y015194D01*
X027818Y015375D02*
X027568Y015375D01*
X027579Y015787D02*
X027057Y015787D01*
X026579Y015787D02*
X026029Y015787D01*
X026147Y015668D02*
X026460Y015668D01*
X026358Y015550D02*
X026258Y015550D01*
X026258Y015431D02*
X026284Y015431D01*
X025848Y015431D02*
X025788Y015431D01*
X025788Y015550D02*
X025848Y015550D01*
X025848Y015668D02*
X025788Y015668D01*
X025788Y015787D02*
X025848Y015787D01*
X025607Y015787D02*
X025057Y015787D01*
X025008Y015835D02*
X024627Y015835D01*
X024358Y015566D01*
X024358Y015184D01*
X024627Y014915D01*
X025008Y014915D01*
X025278Y015184D01*
X025278Y015566D01*
X025008Y015835D01*
X025175Y015668D02*
X025489Y015668D01*
X025378Y015550D02*
X025278Y015550D01*
X025278Y015431D02*
X025378Y015431D01*
X025378Y015313D02*
X025278Y015313D01*
X025278Y015194D02*
X025378Y015194D01*
X025429Y015076D02*
X025169Y015076D01*
X025050Y014957D02*
X025310Y014957D01*
X025192Y014839D02*
X015432Y014839D01*
X015313Y014957D02*
X018614Y014957D01*
X018636Y014935D02*
X018788Y014935D01*
X018788Y015345D01*
X018848Y015345D01*
X018848Y015405D01*
X019258Y015405D01*
X019258Y015557D01*
X019000Y015815D01*
X018848Y015815D01*
X018848Y015405D01*
X018788Y015405D01*
X018788Y015815D01*
X018636Y015815D01*
X018378Y015557D01*
X018378Y015405D01*
X018788Y015405D01*
X018788Y015345D01*
X018378Y015345D01*
X018378Y015193D01*
X018636Y014935D01*
X018627Y014835D02*
X018358Y014566D01*
X018358Y014184D01*
X018627Y013915D01*
X019008Y013915D01*
X019278Y014184D01*
X019278Y014566D01*
X019008Y014835D01*
X018627Y014835D01*
X018512Y014720D02*
X015550Y014720D01*
X015669Y014602D02*
X018394Y014602D01*
X018358Y014483D02*
X015787Y014483D01*
X015906Y014365D02*
X018358Y014365D01*
X018358Y014246D02*
X016808Y014246D01*
X016987Y014128D02*
X018415Y014128D01*
X018533Y014009D02*
X017056Y014009D01*
X017080Y013891D02*
X024994Y013891D01*
X024875Y013772D02*
X017069Y013772D01*
X017018Y013654D02*
X024757Y013654D01*
X024533Y014009D02*
X024074Y014009D01*
X024000Y013935D02*
X024258Y014193D01*
X024258Y014345D01*
X023848Y014345D01*
X023848Y014405D01*
X024258Y014405D01*
X024258Y014557D01*
X024000Y014815D01*
X023848Y014815D01*
X023848Y014405D01*
X023788Y014405D01*
X023788Y014815D01*
X023636Y014815D01*
X023378Y014557D01*
X023378Y014405D01*
X023788Y014405D01*
X023788Y014345D01*
X023848Y014345D01*
X023848Y013935D01*
X024000Y013935D01*
X023848Y014009D02*
X023788Y014009D01*
X023788Y013935D02*
X023788Y014345D01*
X023378Y014345D01*
X023378Y014193D01*
X023636Y013935D01*
X023788Y013935D01*
X023788Y014128D02*
X023848Y014128D01*
X023848Y014246D02*
X023788Y014246D01*
X023788Y014365D02*
X023278Y014365D01*
X023278Y014483D02*
X023378Y014483D01*
X023422Y014602D02*
X023242Y014602D01*
X023278Y014566D02*
X023008Y014835D01*
X022627Y014835D01*
X022358Y014566D01*
X022358Y014184D01*
X022627Y013915D01*
X023008Y013915D01*
X023278Y014184D01*
X023278Y014566D01*
X023123Y014720D02*
X023541Y014720D01*
X023627Y014915D02*
X024008Y014915D01*
X024278Y015184D01*
X024278Y015566D01*
X024008Y015835D01*
X023627Y015835D01*
X023358Y015566D01*
X023358Y015184D01*
X023627Y014915D01*
X023585Y014957D02*
X023050Y014957D01*
X023008Y014915D02*
X023278Y015184D01*
X023278Y015566D01*
X023008Y015835D01*
X022627Y015835D01*
X022358Y015566D01*
X022358Y015184D01*
X022627Y014915D01*
X023008Y014915D01*
X023169Y015076D02*
X023467Y015076D01*
X023358Y015194D02*
X023278Y015194D01*
X023278Y015313D02*
X023358Y015313D01*
X023358Y015431D02*
X023278Y015431D01*
X023278Y015550D02*
X023358Y015550D01*
X023460Y015668D02*
X023175Y015668D01*
X023057Y015787D02*
X023579Y015787D01*
X024057Y015787D02*
X024579Y015787D01*
X024460Y015668D02*
X024175Y015668D01*
X024278Y015550D02*
X024358Y015550D01*
X024358Y015431D02*
X024278Y015431D01*
X024278Y015313D02*
X024358Y015313D01*
X024358Y015194D02*
X024278Y015194D01*
X024169Y015076D02*
X024467Y015076D01*
X024585Y014957D02*
X024050Y014957D01*
X024095Y014720D02*
X024512Y014720D01*
X024394Y014602D02*
X024214Y014602D01*
X024258Y014483D02*
X024358Y014483D01*
X024358Y014365D02*
X023848Y014365D01*
X023848Y014483D02*
X023788Y014483D01*
X023788Y014602D02*
X023848Y014602D01*
X023848Y014720D02*
X023788Y014720D01*
X023378Y014246D02*
X023278Y014246D01*
X023221Y014128D02*
X023443Y014128D01*
X023562Y014009D02*
X023102Y014009D01*
X022533Y014009D02*
X022074Y014009D01*
X022000Y013935D02*
X022258Y014193D01*
X022258Y014345D01*
X021848Y014345D01*
X021848Y014405D01*
X022258Y014405D01*
X022258Y014557D01*
X022000Y014815D01*
X021848Y014815D01*
X021848Y014405D01*
X021788Y014405D01*
X021788Y014815D01*
X021636Y014815D01*
X021378Y014557D01*
X021378Y014405D01*
X021788Y014405D01*
X021788Y014345D01*
X021848Y014345D01*
X021848Y013935D01*
X022000Y013935D01*
X021848Y014009D02*
X021788Y014009D01*
X021788Y013935D02*
X021788Y014345D01*
X021378Y014345D01*
X021378Y014193D01*
X021636Y013935D01*
X021788Y013935D01*
X021788Y014128D02*
X021848Y014128D01*
X021848Y014246D02*
X021788Y014246D01*
X021788Y014365D02*
X021278Y014365D01*
X021278Y014483D02*
X021378Y014483D01*
X021422Y014602D02*
X021242Y014602D01*
X021278Y014566D02*
X021008Y014835D01*
X020627Y014835D01*
X020358Y014566D01*
X020358Y014184D01*
X020627Y013915D01*
X021008Y013915D01*
X021278Y014184D01*
X021278Y014566D01*
X021123Y014720D02*
X021541Y014720D01*
X021627Y014915D02*
X022008Y014915D01*
X022278Y015184D01*
X022278Y015566D01*
X022008Y015835D01*
X021627Y015835D01*
X021358Y015566D01*
X021358Y015184D01*
X021627Y014915D01*
X021585Y014957D02*
X021050Y014957D01*
X021008Y014915D02*
X021278Y015184D01*
X021278Y015566D01*
X021008Y015835D01*
X020627Y015835D01*
X020358Y015566D01*
X020358Y015184D01*
X020627Y014915D01*
X021008Y014915D01*
X021169Y015076D02*
X021467Y015076D01*
X021358Y015194D02*
X021278Y015194D01*
X021278Y015313D02*
X021358Y015313D01*
X021358Y015431D02*
X021278Y015431D01*
X021278Y015550D02*
X021358Y015550D01*
X021460Y015668D02*
X021175Y015668D01*
X021057Y015787D02*
X021579Y015787D01*
X022057Y015787D02*
X022579Y015787D01*
X022460Y015668D02*
X022175Y015668D01*
X022278Y015550D02*
X022358Y015550D01*
X022358Y015431D02*
X022278Y015431D01*
X022278Y015313D02*
X022358Y015313D01*
X022358Y015194D02*
X022278Y015194D01*
X022169Y015076D02*
X022467Y015076D01*
X022585Y014957D02*
X022050Y014957D01*
X022095Y014720D02*
X022512Y014720D01*
X022394Y014602D02*
X022214Y014602D01*
X022258Y014483D02*
X022358Y014483D01*
X022358Y014365D02*
X021848Y014365D01*
X021848Y014483D02*
X021788Y014483D01*
X021788Y014602D02*
X021848Y014602D01*
X021848Y014720D02*
X021788Y014720D01*
X021378Y014246D02*
X021278Y014246D01*
X021221Y014128D02*
X021443Y014128D01*
X021562Y014009D02*
X021102Y014009D01*
X020533Y014009D02*
X020102Y014009D01*
X020008Y013915D02*
X020278Y014184D01*
X020278Y014566D01*
X020008Y014835D01*
X019627Y014835D01*
X019358Y014566D01*
X019358Y014184D01*
X019627Y013915D01*
X020008Y013915D01*
X020221Y014128D02*
X020415Y014128D01*
X020358Y014246D02*
X020278Y014246D01*
X020278Y014365D02*
X020358Y014365D01*
X020358Y014483D02*
X020278Y014483D01*
X020242Y014602D02*
X020394Y014602D01*
X020512Y014720D02*
X020123Y014720D01*
X020008Y014915D02*
X019627Y014915D01*
X019358Y015184D01*
X019358Y015566D01*
X019627Y015835D01*
X020008Y015835D01*
X020278Y015566D01*
X020278Y015184D01*
X020008Y014915D01*
X020050Y014957D02*
X020585Y014957D01*
X020467Y015076D02*
X020169Y015076D01*
X020278Y015194D02*
X020358Y015194D01*
X020358Y015313D02*
X020278Y015313D01*
X020278Y015431D02*
X020358Y015431D01*
X020358Y015550D02*
X020278Y015550D01*
X020175Y015668D02*
X020460Y015668D01*
X020579Y015787D02*
X020057Y015787D01*
X019579Y015787D02*
X019029Y015787D01*
X019147Y015668D02*
X019460Y015668D01*
X019358Y015550D02*
X019258Y015550D01*
X019258Y015431D02*
X019358Y015431D01*
X019358Y015313D02*
X019258Y015313D01*
X019258Y015345D02*
X018848Y015345D01*
X018848Y014935D01*
X019000Y014935D01*
X019258Y015193D01*
X019258Y015345D01*
X019258Y015194D02*
X019358Y015194D01*
X019467Y015076D02*
X019141Y015076D01*
X019022Y014957D02*
X019585Y014957D01*
X019512Y014720D02*
X019123Y014720D01*
X019242Y014602D02*
X019394Y014602D01*
X019358Y014483D02*
X019278Y014483D01*
X019278Y014365D02*
X019358Y014365D01*
X019358Y014246D02*
X019278Y014246D01*
X019221Y014128D02*
X019415Y014128D01*
X019533Y014009D02*
X019102Y014009D01*
X018848Y014957D02*
X018788Y014957D01*
X018788Y015076D02*
X018848Y015076D01*
X018848Y015194D02*
X018788Y015194D01*
X018788Y015313D02*
X018848Y015313D01*
X018848Y015431D02*
X018788Y015431D01*
X018788Y015550D02*
X018848Y015550D01*
X018848Y015668D02*
X018788Y015668D01*
X018788Y015787D02*
X018848Y015787D01*
X018607Y015787D02*
X014484Y015787D01*
X014365Y015905D02*
X029078Y015905D01*
X029078Y015787D02*
X029057Y015787D01*
X029127Y016024D02*
X014338Y016024D01*
X014338Y016142D02*
X029245Y016142D01*
X029182Y016078D02*
X029182Y016078D01*
X029364Y016261D02*
X014338Y016261D01*
X014602Y015668D02*
X018489Y015668D01*
X018378Y015550D02*
X014721Y015550D01*
X014839Y015431D02*
X018378Y015431D01*
X018378Y015313D02*
X014958Y015313D01*
X015076Y015194D02*
X018378Y015194D01*
X018495Y015076D02*
X015195Y015076D01*
X014815Y014720D02*
X014318Y014720D01*
X014318Y014602D02*
X014933Y014602D01*
X015052Y014483D02*
X014287Y014483D01*
X013962Y014483D02*
X013842Y014483D01*
X013842Y014602D02*
X013962Y014602D01*
X013962Y014720D02*
X013842Y014720D01*
X013962Y014839D02*
X014696Y014839D01*
X014578Y014957D02*
X014318Y014957D01*
X014318Y015076D02*
X014459Y015076D01*
X014341Y015194D02*
X014318Y015194D01*
X014104Y015431D02*
X013493Y015431D01*
X013842Y015313D02*
X013962Y015313D01*
X013962Y015194D02*
X013842Y015194D01*
X013842Y015076D02*
X013962Y015076D01*
X013962Y014957D02*
X013842Y014957D01*
X013328Y014365D02*
X015170Y014365D01*
X015289Y014246D02*
X013341Y014246D01*
X013367Y014128D02*
X015407Y014128D01*
X015526Y014009D02*
X013344Y014009D01*
X013256Y013891D02*
X015644Y013891D01*
X016024Y014246D02*
X016578Y014246D01*
X016406Y013615D02*
X016406Y013615D01*
X014565Y012587D02*
X013752Y012587D01*
X013847Y012469D02*
X014447Y012469D01*
X014328Y012350D02*
X013896Y012350D01*
X013900Y012232D02*
X014210Y012232D01*
X014091Y012113D02*
X013881Y012113D01*
X013832Y011995D02*
X013973Y011995D01*
X014348Y010691D02*
X015628Y010691D01*
X015462Y010573D02*
X014230Y010573D01*
X013829Y010510D02*
X013829Y010510D01*
X016832Y011639D02*
X018552Y011639D01*
X022193Y014128D02*
X022415Y014128D01*
X022358Y014246D02*
X022258Y014246D01*
X024193Y014128D02*
X024415Y014128D01*
X024358Y014246D02*
X024258Y014246D01*
X027167Y013385D02*
X027454Y013672D01*
X027521Y013739D01*
X027558Y013827D01*
X027558Y013984D01*
X027627Y013915D01*
X027938Y013915D01*
X028432Y013422D01*
X028520Y013385D01*
X038241Y013385D01*
X038329Y013422D01*
X038396Y013489D01*
X039733Y014826D01*
X039752Y014826D01*
X039862Y014871D01*
X039946Y014956D01*
X039992Y015066D01*
X039992Y015184D01*
X039961Y015260D01*
X041405Y015260D01*
X041665Y015000D01*
X041393Y014728D01*
X041393Y014272D01*
X041425Y014240D01*
X040020Y014240D01*
X039932Y014203D01*
X039864Y014136D01*
X038989Y013261D01*
X038953Y013173D01*
X038953Y011974D01*
X038578Y011599D01*
X038578Y011871D01*
X038547Y011903D01*
X038558Y011944D01*
X038558Y012105D01*
X038088Y012105D01*
X038088Y012145D01*
X038558Y012145D01*
X038558Y012306D01*
X038547Y012347D01*
X038526Y012383D01*
X038496Y012413D01*
X038460Y012434D01*
X038419Y012445D01*
X038088Y012445D01*
X038088Y012145D01*
X038048Y012145D01*
X038048Y012445D01*
X037717Y012445D01*
X037676Y012434D01*
X037640Y012413D01*
X037610Y012383D01*
X037589Y012347D01*
X037578Y012306D01*
X037578Y012145D01*
X038048Y012145D01*
X038048Y012105D01*
X037578Y012105D01*
X037578Y011944D01*
X037589Y011903D01*
X037589Y011903D01*
X037583Y011897D01*
X037289Y011897D01*
X035913Y013272D01*
X035840Y013345D01*
X035745Y013385D01*
X027167Y013385D01*
X027199Y013417D02*
X028444Y013417D01*
X028318Y013535D02*
X027317Y013535D01*
X027436Y013654D02*
X028200Y013654D01*
X028081Y013772D02*
X027535Y013772D01*
X027558Y013891D02*
X027963Y013891D01*
X028286Y014246D02*
X028378Y014246D01*
X028378Y014193D02*
X028636Y013935D01*
X028788Y013935D01*
X028788Y014345D01*
X028848Y014345D01*
X028848Y014405D01*
X029258Y014405D01*
X029258Y014557D01*
X029000Y014815D01*
X028848Y014815D01*
X028848Y014405D01*
X028788Y014405D01*
X028788Y014815D01*
X028636Y014815D01*
X028378Y014557D01*
X028378Y014405D01*
X028788Y014405D01*
X028788Y014345D01*
X028378Y014345D01*
X028378Y014193D01*
X028405Y014128D02*
X028443Y014128D01*
X028523Y014009D02*
X028562Y014009D01*
X028642Y013891D02*
X038119Y013891D01*
X038102Y014009D02*
X038237Y014009D01*
X038221Y014128D02*
X038356Y014128D01*
X038278Y014246D02*
X038474Y014246D01*
X038593Y014365D02*
X038278Y014365D01*
X038278Y014483D02*
X038711Y014483D01*
X038830Y014602D02*
X038242Y014602D01*
X038252Y014720D02*
X038948Y014720D01*
X039067Y014839D02*
X038371Y014839D01*
X038489Y014957D02*
X039185Y014957D01*
X039304Y015076D02*
X038608Y015076D01*
X038726Y015194D02*
X039398Y015194D01*
X039693Y015125D02*
X038193Y013625D01*
X028568Y013625D01*
X027818Y014375D01*
X028278Y014365D02*
X028788Y014365D01*
X028848Y014365D02*
X029358Y014365D01*
X029258Y014345D02*
X029258Y014193D01*
X029000Y013935D01*
X028848Y013935D01*
X028848Y014345D01*
X029258Y014345D01*
X029258Y014246D02*
X029358Y014246D01*
X029415Y014128D02*
X029193Y014128D01*
X029074Y014009D02*
X029533Y014009D01*
X030102Y014009D02*
X030533Y014009D01*
X030415Y014128D02*
X030221Y014128D01*
X030278Y014246D02*
X030358Y014246D01*
X030818Y014375D02*
X030318Y014875D01*
X030575Y014957D02*
X030585Y014957D01*
X029358Y014483D02*
X029258Y014483D01*
X029252Y014602D02*
X029214Y014602D01*
X029133Y014720D02*
X029095Y014720D01*
X029078Y014839D02*
X028621Y014839D01*
X028521Y014739D02*
X028521Y014739D01*
X028502Y014720D02*
X028541Y014720D01*
X028422Y014602D02*
X028242Y014602D01*
X028278Y014483D02*
X028378Y014483D01*
X028788Y014483D02*
X028848Y014483D01*
X028848Y014602D02*
X028788Y014602D01*
X028788Y014720D02*
X028848Y014720D01*
X029050Y014957D02*
X029078Y014957D01*
X028848Y014246D02*
X028788Y014246D01*
X028788Y014128D02*
X028848Y014128D01*
X028848Y014009D02*
X028788Y014009D01*
X027454Y013672D02*
X027454Y013672D01*
X027443Y012750D02*
X035068Y012750D01*
X035193Y012625D01*
X035310Y012350D02*
X036100Y012350D01*
X035982Y012469D02*
X035452Y012469D01*
X035446Y012456D02*
X035492Y012566D01*
X035492Y012684D01*
X035446Y012794D01*
X035376Y012865D01*
X035585Y012865D01*
X037034Y011416D01*
X037129Y011377D01*
X037558Y011377D01*
X037558Y010914D01*
X037567Y010905D01*
X037558Y010895D01*
X037558Y010426D01*
X037567Y010416D01*
X037558Y010407D01*
X037558Y010099D01*
X037183Y010474D01*
X037183Y010673D01*
X037146Y010761D01*
X036646Y011261D01*
X036579Y011328D01*
X036491Y011365D01*
X036333Y011365D01*
X036403Y011434D01*
X036403Y011585D01*
X035983Y011585D01*
X035983Y011665D01*
X036403Y011665D01*
X036403Y011816D01*
X036133Y012085D01*
X035983Y012085D01*
X035983Y011665D01*
X035903Y011665D01*
X035903Y012085D01*
X035752Y012085D01*
X035483Y011816D01*
X035483Y011665D01*
X035903Y011665D01*
X035903Y011585D01*
X035483Y011585D01*
X035483Y011434D01*
X035552Y011365D01*
X035395Y011365D01*
X035338Y011341D01*
X035423Y011426D01*
X035423Y011824D01*
X035142Y012105D01*
X034744Y012105D01*
X034463Y011824D01*
X034463Y011426D01*
X034744Y011145D01*
X035123Y011145D01*
X035083Y011105D01*
X034744Y011105D01*
X034504Y010865D01*
X033042Y010865D01*
X031771Y012136D01*
X031704Y012203D01*
X031616Y012240D01*
X027272Y012240D01*
X027542Y012510D01*
X034917Y012510D01*
X034939Y012456D01*
X035023Y012371D01*
X035133Y012326D01*
X035252Y012326D01*
X035362Y012371D01*
X035446Y012456D01*
X035492Y012587D02*
X035863Y012587D01*
X035745Y012706D02*
X035483Y012706D01*
X035417Y012824D02*
X035626Y012824D01*
X036006Y013180D02*
X038956Y013180D01*
X038953Y013061D02*
X036125Y013061D01*
X036243Y012943D02*
X038953Y012943D01*
X038953Y012824D02*
X036362Y012824D01*
X036480Y012706D02*
X038953Y012706D01*
X038953Y012587D02*
X036599Y012587D01*
X036717Y012469D02*
X038953Y012469D01*
X038953Y012350D02*
X038545Y012350D01*
X038558Y012232D02*
X038953Y012232D01*
X038953Y012113D02*
X038088Y012113D01*
X038048Y012113D02*
X037073Y012113D01*
X037191Y011995D02*
X037578Y011995D01*
X037578Y012232D02*
X036954Y012232D01*
X036836Y012350D02*
X037591Y012350D01*
X038048Y012350D02*
X038088Y012350D01*
X038088Y012232D02*
X038048Y012232D01*
X038558Y011995D02*
X038953Y011995D01*
X038854Y011876D02*
X038573Y011876D01*
X038547Y011903D02*
X038547Y011903D01*
X038578Y011758D02*
X038736Y011758D01*
X038617Y011639D02*
X038578Y011639D01*
X038466Y011149D02*
X039193Y011875D01*
X039193Y013125D01*
X040068Y014000D01*
X042443Y014000D01*
X042943Y014500D01*
X041622Y014957D02*
X039947Y014957D01*
X039992Y015076D02*
X041589Y015076D01*
X041471Y015194D02*
X039988Y015194D01*
X039783Y014839D02*
X041504Y014839D01*
X041393Y014720D02*
X039627Y014720D01*
X039509Y014602D02*
X041393Y014602D01*
X041393Y014483D02*
X039390Y014483D01*
X039272Y014365D02*
X041393Y014365D01*
X041419Y014246D02*
X039153Y014246D01*
X039035Y014128D02*
X039856Y014128D01*
X039864Y014136D02*
X039864Y014136D01*
X039737Y014009D02*
X038916Y014009D01*
X038798Y013891D02*
X039619Y013891D01*
X039500Y013772D02*
X038679Y013772D01*
X038561Y013654D02*
X039382Y013654D01*
X039263Y013535D02*
X038442Y013535D01*
X038317Y013417D02*
X039145Y013417D01*
X039026Y013298D02*
X035888Y013298D01*
X035848Y014009D02*
X035788Y014009D01*
X035788Y014128D02*
X035848Y014128D01*
X035848Y014246D02*
X035788Y014246D01*
X035788Y014365D02*
X035278Y014365D01*
X035278Y014483D02*
X035378Y014483D01*
X035422Y014602D02*
X035242Y014602D01*
X035788Y014602D02*
X035848Y014602D01*
X035848Y014483D02*
X035788Y014483D01*
X035848Y014365D02*
X036358Y014365D01*
X036358Y014483D02*
X036258Y014483D01*
X036214Y014602D02*
X036394Y014602D01*
X036318Y014875D02*
X038068Y014875D01*
X038693Y015500D01*
X041943Y015500D01*
X041570Y015905D02*
X038164Y015905D01*
X038026Y015787D02*
X041452Y015787D01*
X041641Y016024D02*
X038306Y016024D01*
X038424Y016142D02*
X041523Y016142D01*
X041404Y016261D02*
X038543Y016261D01*
X038661Y016379D02*
X041393Y016379D01*
X041393Y016498D02*
X038780Y016498D01*
X038898Y016616D02*
X041393Y016616D01*
X041400Y016735D02*
X039017Y016735D01*
X037443Y017250D02*
X032693Y017250D01*
X032754Y016972D02*
X033075Y016972D01*
X032956Y016853D02*
X032635Y016853D01*
X032517Y016735D02*
X032838Y016735D01*
X032719Y016616D02*
X032398Y016616D01*
X032280Y016498D02*
X032609Y016498D01*
X032578Y016379D02*
X032161Y016379D01*
X032043Y016261D02*
X032578Y016261D01*
X032578Y016142D02*
X031924Y016142D01*
X031806Y016024D02*
X032578Y016024D01*
X031838Y016735D02*
X031642Y016735D01*
X031719Y016616D02*
X031523Y016616D01*
X031601Y016498D02*
X031405Y016498D01*
X031482Y016379D02*
X031286Y016379D01*
X031364Y016261D02*
X031168Y016261D01*
X031245Y016142D02*
X031049Y016142D01*
X031127Y016024D02*
X030931Y016024D01*
X031008Y015905D02*
X030812Y015905D01*
X029818Y016125D02*
X031443Y017750D01*
X031443Y019500D01*
X031669Y019697D02*
X031703Y019697D01*
X031703Y019816D02*
X019367Y019816D01*
X019248Y019934D02*
X031703Y019934D01*
X031612Y020053D02*
X030273Y020053D01*
X030254Y020034D02*
X030409Y020188D01*
X030493Y020391D01*
X030493Y020609D01*
X030409Y020812D01*
X030254Y020966D01*
X030052Y021050D01*
X029833Y021050D01*
X029631Y020966D01*
X029477Y020812D01*
X029443Y020730D01*
X029409Y020812D01*
X029254Y020966D01*
X029052Y021050D01*
X028833Y021050D01*
X028631Y020966D01*
X028477Y020812D01*
X028443Y020730D01*
X028409Y020812D01*
X028254Y020966D01*
X028052Y021050D01*
X027833Y021050D01*
X027631Y020966D01*
X027477Y020812D01*
X027443Y020730D01*
X027409Y020812D01*
X027254Y020966D01*
X027052Y021050D01*
X026833Y021050D01*
X026631Y020966D01*
X026477Y020812D01*
X026443Y020730D01*
X026409Y020812D01*
X026254Y020966D01*
X026052Y021050D01*
X025833Y021050D01*
X025631Y020966D01*
X025477Y020812D01*
X025443Y020730D01*
X025409Y020812D01*
X025254Y020966D01*
X025052Y021050D01*
X024833Y021050D01*
X024631Y020966D01*
X024477Y020812D01*
X024443Y020730D01*
X024409Y020812D01*
X024254Y020966D01*
X024052Y021050D01*
X023833Y021050D01*
X023631Y020966D01*
X023477Y020812D01*
X023443Y020730D01*
X023409Y020812D01*
X023254Y020966D01*
X023052Y021050D01*
X022833Y021050D01*
X022631Y020966D01*
X022477Y020812D01*
X022393Y020609D01*
X022393Y020391D01*
X022477Y020188D01*
X022631Y020034D01*
X022833Y019950D01*
X023052Y019950D01*
X023254Y020034D01*
X023409Y020188D01*
X023443Y020270D01*
X023477Y020188D01*
X023631Y020034D01*
X023833Y019950D01*
X024052Y019950D01*
X024254Y020034D01*
X024409Y020188D01*
X024443Y020270D01*
X024477Y020188D01*
X024631Y020034D01*
X024833Y019950D01*
X025052Y019950D01*
X025254Y020034D01*
X025409Y020188D01*
X025443Y020270D01*
X025477Y020188D01*
X025631Y020034D01*
X025833Y019950D01*
X026052Y019950D01*
X026254Y020034D01*
X026409Y020188D01*
X026443Y020270D01*
X026477Y020188D01*
X026631Y020034D01*
X026833Y019950D01*
X027052Y019950D01*
X027254Y020034D01*
X027409Y020188D01*
X027443Y020270D01*
X027477Y020188D01*
X027631Y020034D01*
X027833Y019950D01*
X028052Y019950D01*
X028254Y020034D01*
X028409Y020188D01*
X028443Y020270D01*
X028477Y020188D01*
X028631Y020034D01*
X028833Y019950D01*
X029052Y019950D01*
X029254Y020034D01*
X029409Y020188D01*
X029443Y020270D01*
X029477Y020188D01*
X029631Y020034D01*
X029833Y019950D01*
X030052Y019950D01*
X030254Y020034D01*
X030392Y020171D02*
X031494Y020171D01*
X031435Y020290D02*
X030451Y020290D01*
X030493Y020408D02*
X031393Y020408D01*
X031393Y020527D02*
X030493Y020527D01*
X030478Y020645D02*
X031408Y020645D01*
X031457Y020764D02*
X030429Y020764D01*
X030339Y020882D02*
X031547Y020882D01*
X031714Y021001D02*
X030172Y021001D01*
X029714Y021001D02*
X029172Y021001D01*
X029339Y020882D02*
X029547Y020882D01*
X029457Y020764D02*
X029429Y020764D01*
X029392Y020171D02*
X029494Y020171D01*
X029612Y020053D02*
X029273Y020053D01*
X028612Y020053D02*
X028273Y020053D01*
X028392Y020171D02*
X028494Y020171D01*
X028457Y020764D02*
X028429Y020764D01*
X028339Y020882D02*
X028547Y020882D01*
X028714Y021001D02*
X028172Y021001D01*
X027714Y021001D02*
X027172Y021001D01*
X027339Y020882D02*
X027547Y020882D01*
X027457Y020764D02*
X027429Y020764D01*
X026714Y021001D02*
X026172Y021001D01*
X026339Y020882D02*
X026547Y020882D01*
X026457Y020764D02*
X026429Y020764D01*
X025714Y021001D02*
X025172Y021001D01*
X025339Y020882D02*
X025547Y020882D01*
X025457Y020764D02*
X025429Y020764D01*
X025392Y020171D02*
X025494Y020171D01*
X025612Y020053D02*
X025273Y020053D01*
X024612Y020053D02*
X024273Y020053D01*
X024392Y020171D02*
X024494Y020171D01*
X024457Y020764D02*
X024429Y020764D01*
X024339Y020882D02*
X024547Y020882D01*
X024714Y021001D02*
X024172Y021001D01*
X023714Y021001D02*
X023172Y021001D01*
X023339Y020882D02*
X023547Y020882D01*
X023457Y020764D02*
X023429Y020764D01*
X022714Y021001D02*
X021572Y021001D01*
X021739Y020882D02*
X022547Y020882D01*
X022457Y020764D02*
X021829Y020764D01*
X021878Y020645D02*
X022408Y020645D01*
X022393Y020527D02*
X021893Y020527D01*
X021893Y020408D02*
X022393Y020408D01*
X022435Y020290D02*
X021851Y020290D01*
X021792Y020171D02*
X022494Y020171D01*
X022612Y020053D02*
X021673Y020053D01*
X021012Y020053D02*
X020673Y020053D01*
X020792Y020171D02*
X020894Y020171D01*
X020857Y020764D02*
X020829Y020764D01*
X020739Y020882D02*
X020947Y020882D01*
X021114Y021001D02*
X020572Y021001D01*
X020114Y021001D02*
X019572Y021001D01*
X019739Y020882D02*
X019947Y020882D01*
X019857Y020764D02*
X019829Y020764D01*
X019114Y021001D02*
X018572Y021001D01*
X018739Y020882D02*
X018947Y020882D01*
X018857Y020764D02*
X018829Y020764D01*
X018343Y020500D02*
X021093Y017750D01*
X029818Y017750D01*
X030068Y017500D01*
X030068Y017000D01*
X030354Y017090D02*
X030443Y017090D01*
X030562Y017209D02*
X030308Y017209D01*
X030308Y017327D02*
X030680Y017327D01*
X030799Y017446D02*
X030308Y017446D01*
X030301Y017564D02*
X030917Y017564D01*
X031036Y017683D02*
X030225Y017683D01*
X030106Y017801D02*
X031154Y017801D01*
X031203Y017920D02*
X029988Y017920D01*
X029783Y017446D02*
X029612Y017446D01*
X029617Y017327D02*
X029828Y017327D01*
X029828Y017209D02*
X029573Y017209D01*
X029318Y017375D02*
X020468Y017375D01*
X017343Y020500D01*
X017739Y020882D02*
X017947Y020882D01*
X017857Y020764D02*
X017829Y020764D01*
X017572Y021001D02*
X018114Y021001D01*
X017114Y021001D02*
X016572Y021001D01*
X016739Y020882D02*
X016947Y020882D01*
X016857Y020764D02*
X016829Y020764D01*
X016792Y020171D02*
X016894Y020171D01*
X017012Y020053D02*
X016673Y020053D01*
X016012Y020053D02*
X015629Y020053D01*
X015759Y020171D02*
X015894Y020171D01*
X015835Y020290D02*
X015830Y020290D01*
X015383Y020290D02*
X015303Y020290D01*
X015303Y020408D02*
X015383Y020408D01*
X015383Y020171D02*
X015303Y020171D01*
X015303Y020053D02*
X015383Y020053D01*
X015057Y020053D02*
X014673Y020053D01*
X014792Y020171D02*
X014927Y020171D01*
X014855Y020290D02*
X014851Y020290D01*
X014012Y020053D02*
X013673Y020053D01*
X013792Y020171D02*
X013894Y020171D01*
X013857Y020764D02*
X013829Y020764D01*
X013739Y020882D02*
X013947Y020882D01*
X014114Y021001D02*
X013572Y021001D01*
X013114Y021001D02*
X012572Y021001D01*
X012739Y020882D02*
X012947Y020882D01*
X012857Y020764D02*
X012829Y020764D01*
X012792Y020171D02*
X012894Y020171D01*
X013012Y020053D02*
X012673Y020053D01*
X011835Y020290D02*
X006873Y020290D01*
X006789Y020408D02*
X011793Y020408D01*
X011793Y020527D02*
X005243Y020527D01*
X005243Y020645D02*
X011808Y020645D01*
X011857Y020764D02*
X005243Y020764D01*
X005243Y020882D02*
X011947Y020882D01*
X012114Y021001D02*
X005243Y021001D01*
X005243Y021119D02*
X042900Y021119D01*
X042714Y021001D02*
X042172Y021001D01*
X042339Y020882D02*
X042547Y020882D01*
X042457Y020764D02*
X042429Y020764D01*
X043493Y020408D02*
X043611Y020408D01*
X043643Y020290D02*
X043451Y020290D01*
X043392Y020171D02*
X043643Y020171D01*
X043643Y020053D02*
X043273Y020053D01*
X043287Y019934D02*
X043643Y019934D01*
X043643Y019816D02*
X043405Y019816D01*
X043493Y019697D02*
X043643Y019697D01*
X043643Y019579D02*
X043493Y019579D01*
X043493Y019460D02*
X043643Y019460D01*
X043643Y019342D02*
X043493Y019342D01*
X043444Y019223D02*
X043643Y019223D01*
X043643Y019105D02*
X043325Y019105D01*
X043235Y018986D02*
X043643Y018986D01*
X043643Y018868D02*
X043353Y018868D01*
X043472Y018749D02*
X043643Y018749D01*
X043643Y018631D02*
X043493Y018631D01*
X042943Y017500D02*
X042443Y017000D01*
X038521Y015668D02*
X038175Y015668D01*
X038243Y015550D02*
X038403Y015550D01*
X038284Y015431D02*
X038278Y015431D01*
X037609Y015787D02*
X037057Y015787D01*
X037175Y015668D02*
X037460Y015668D01*
X037392Y015550D02*
X037278Y015550D01*
X037278Y015431D02*
X037358Y015431D01*
X037358Y015313D02*
X037278Y015313D01*
X037278Y015194D02*
X037395Y015194D01*
X037394Y014602D02*
X037242Y014602D01*
X037278Y014483D02*
X037358Y014483D01*
X037358Y014365D02*
X037278Y014365D01*
X037278Y014246D02*
X037358Y014246D01*
X037415Y014128D02*
X037221Y014128D01*
X037102Y014009D02*
X037533Y014009D01*
X036533Y014009D02*
X036074Y014009D01*
X036193Y014128D02*
X036415Y014128D01*
X036358Y014246D02*
X036258Y014246D01*
X036133Y014720D02*
X036095Y014720D01*
X036318Y014875D02*
X035818Y015375D01*
X036175Y015668D02*
X036460Y015668D01*
X036358Y015550D02*
X036278Y015550D01*
X036278Y015431D02*
X036358Y015431D01*
X036358Y015313D02*
X036278Y015313D01*
X036338Y015194D02*
X036358Y015194D01*
X036579Y015787D02*
X036057Y015787D01*
X034394Y014602D02*
X034242Y014602D01*
X034278Y014483D02*
X034358Y014483D01*
X034358Y014365D02*
X034278Y014365D01*
X034278Y014246D02*
X034358Y014246D01*
X034415Y014128D02*
X034221Y014128D01*
X034102Y014009D02*
X034533Y014009D01*
X035102Y014009D02*
X035562Y014009D01*
X035443Y014128D02*
X035221Y014128D01*
X035278Y014246D02*
X035378Y014246D01*
X034934Y012469D02*
X027501Y012469D01*
X027382Y012350D02*
X035075Y012350D01*
X035252Y011995D02*
X035662Y011995D01*
X035543Y011876D02*
X035371Y011876D01*
X035423Y011758D02*
X035483Y011758D01*
X035423Y011639D02*
X035903Y011639D01*
X035983Y011639D02*
X036811Y011639D01*
X036693Y011758D02*
X036403Y011758D01*
X036342Y011876D02*
X036574Y011876D01*
X036456Y011995D02*
X036224Y011995D01*
X036337Y012113D02*
X031794Y012113D01*
X031913Y011995D02*
X034634Y011995D01*
X034515Y011876D02*
X032031Y011876D01*
X032150Y011758D02*
X034463Y011758D01*
X034463Y011639D02*
X032268Y011639D01*
X032387Y011521D02*
X034463Y011521D01*
X034487Y011402D02*
X032505Y011402D01*
X032624Y011284D02*
X034606Y011284D01*
X034724Y011165D02*
X032742Y011165D01*
X032861Y011047D02*
X034686Y011047D01*
X034567Y010928D02*
X032979Y010928D01*
X032943Y010625D02*
X031568Y012000D01*
X027233Y012000D01*
X024943Y009710D01*
X025943Y009710D02*
X027733Y011500D01*
X031443Y011500D01*
X033318Y009625D01*
X034943Y009625D01*
X035443Y010125D01*
X036443Y010125D01*
X037372Y009196D01*
X038068Y009196D01*
X038578Y009151D02*
X041515Y009151D01*
X041633Y009032D02*
X038578Y009032D01*
X038578Y008961D02*
X038578Y009430D01*
X038568Y009440D01*
X038578Y009449D01*
X038578Y009885D01*
X039241Y009885D01*
X039329Y009922D01*
X039396Y009989D01*
X040396Y010989D01*
X040433Y011077D01*
X040433Y012151D01*
X041474Y013191D01*
X041665Y013000D01*
X041393Y012728D01*
X041393Y012272D01*
X041665Y012000D01*
X041393Y011728D01*
X041393Y011272D01*
X041665Y011000D01*
X041393Y010728D01*
X041393Y010272D01*
X041665Y010000D01*
X041393Y009728D01*
X041393Y009272D01*
X041665Y009000D01*
X041393Y008728D01*
X041393Y008272D01*
X041665Y008000D01*
X041405Y007740D01*
X039520Y007740D01*
X039432Y007703D01*
X038718Y006990D01*
X038577Y006990D01*
X038568Y006999D01*
X038578Y007009D01*
X038578Y007478D01*
X038568Y007487D01*
X038578Y007497D01*
X038578Y007966D01*
X038568Y007975D01*
X038578Y007985D01*
X038578Y008454D01*
X038568Y008464D01*
X038578Y008473D01*
X038578Y008942D01*
X038568Y008952D01*
X038578Y008961D01*
X038578Y008914D02*
X041579Y008914D01*
X041460Y008795D02*
X038578Y008795D01*
X038578Y008677D02*
X041393Y008677D01*
X041393Y008558D02*
X038578Y008558D01*
X038578Y008440D02*
X041393Y008440D01*
X041393Y008321D02*
X038578Y008321D01*
X038578Y008203D02*
X041463Y008203D01*
X041581Y008084D02*
X038578Y008084D01*
X038578Y007966D02*
X041631Y007966D01*
X041512Y007847D02*
X038578Y007847D01*
X038578Y007729D02*
X039492Y007729D01*
X039338Y007610D02*
X038578Y007610D01*
X038573Y007492D02*
X039220Y007492D01*
X039101Y007373D02*
X038578Y007373D01*
X038578Y007255D02*
X038983Y007255D01*
X038864Y007136D02*
X038578Y007136D01*
X038578Y007018D02*
X038746Y007018D01*
X038818Y006750D02*
X038073Y006750D01*
X038068Y006755D01*
X038068Y007243D02*
X037561Y007243D01*
X037351Y007373D02*
X037030Y007373D01*
X036912Y007255D02*
X037233Y007255D01*
X037114Y007136D02*
X036793Y007136D01*
X036675Y007018D02*
X036996Y007018D01*
X036877Y006899D02*
X036524Y006899D01*
X036403Y006781D02*
X036759Y006781D01*
X036443Y007125D02*
X035443Y007125D01*
X034943Y006625D01*
X035338Y007341D02*
X035423Y007426D01*
X035423Y007766D01*
X035542Y007885D01*
X035552Y007885D01*
X035483Y007816D01*
X035483Y007665D01*
X035903Y007665D01*
X035903Y007585D01*
X035483Y007585D01*
X035483Y007434D01*
X035552Y007365D01*
X035395Y007365D01*
X035338Y007341D01*
X035370Y007373D02*
X035544Y007373D01*
X035483Y007492D02*
X035423Y007492D01*
X035423Y007610D02*
X035903Y007610D01*
X035983Y007610D02*
X036588Y007610D01*
X036470Y007492D02*
X036403Y007492D01*
X036403Y007434D02*
X036333Y007365D01*
X036343Y007365D01*
X036913Y007935D01*
X037001Y007971D01*
X037563Y007971D01*
X037567Y007975D01*
X037563Y007979D01*
X036637Y007979D01*
X036579Y007922D01*
X036491Y007885D01*
X036333Y007885D01*
X036403Y007816D01*
X036403Y007665D01*
X035983Y007665D01*
X035983Y007585D01*
X036403Y007585D01*
X036403Y007434D01*
X036351Y007373D02*
X036341Y007373D01*
X036443Y007125D02*
X037049Y007731D01*
X038068Y007731D01*
X038068Y008219D02*
X036537Y008219D01*
X036443Y008125D01*
X035443Y008125D01*
X034943Y007625D01*
X032443Y007625D01*
X032068Y008000D01*
X032068Y009750D01*
X031068Y010750D01*
X028983Y010750D01*
X027943Y009710D01*
X027943Y009125D02*
X027943Y008500D01*
X027943Y007960D01*
X027443Y008250D02*
X027193Y008500D01*
X026943Y008500D01*
X026943Y009040D01*
X026943Y008500D02*
X026943Y007960D01*
X027443Y008250D02*
X027443Y004125D01*
X026943Y003625D01*
X026943Y001500D01*
X027418Y001211D02*
X027467Y001211D01*
X027573Y001093D02*
X027313Y001093D01*
X027110Y000974D02*
X027775Y000974D01*
X028110Y000974D02*
X028775Y000974D01*
X028573Y001093D02*
X028313Y001093D01*
X028418Y001211D02*
X028467Y001211D01*
X027943Y001500D02*
X027943Y003625D01*
X028443Y004125D01*
X028443Y008250D01*
X028193Y008500D01*
X027943Y008500D01*
X027943Y009040D02*
X027902Y009040D01*
X027818Y009125D01*
X027943Y009125D01*
X026943Y009710D02*
X028358Y011125D01*
X031318Y011125D01*
X032443Y010000D01*
X032443Y008875D01*
X032693Y008625D01*
X034943Y008625D01*
X035443Y009125D01*
X036443Y009125D01*
X036860Y008708D01*
X038068Y008708D01*
X037567Y008952D02*
X037563Y008948D01*
X036960Y008948D01*
X036646Y009261D01*
X036579Y009328D01*
X036491Y009365D01*
X036333Y009365D01*
X036403Y009434D01*
X036403Y009585D01*
X035983Y009585D01*
X035983Y009665D01*
X036403Y009665D01*
X036403Y009816D01*
X036333Y009885D01*
X036343Y009885D01*
X037236Y008992D01*
X037324Y008956D01*
X037563Y008956D01*
X037567Y008952D01*
X037196Y009032D02*
X036875Y009032D01*
X036757Y009151D02*
X037078Y009151D01*
X036959Y009269D02*
X036638Y009269D01*
X036841Y009388D02*
X036356Y009388D01*
X036403Y009506D02*
X036722Y009506D01*
X036604Y009625D02*
X035983Y009625D01*
X035903Y009625D02*
X035423Y009625D01*
X035483Y009665D02*
X035903Y009665D01*
X035903Y009585D01*
X035483Y009585D01*
X035483Y009434D01*
X035552Y009365D01*
X035395Y009365D01*
X035338Y009341D01*
X035423Y009426D01*
X035423Y009766D01*
X035542Y009885D01*
X035552Y009885D01*
X035483Y009816D01*
X035483Y009665D01*
X035483Y009743D02*
X035423Y009743D01*
X035519Y009862D02*
X035529Y009862D01*
X035483Y009506D02*
X035423Y009506D01*
X035384Y009388D02*
X035530Y009388D01*
X035542Y008885D02*
X035552Y008885D01*
X035483Y008816D01*
X035483Y008665D01*
X035903Y008665D01*
X035903Y008585D01*
X035483Y008585D01*
X035483Y008434D01*
X035552Y008365D01*
X035395Y008365D01*
X035338Y008341D01*
X035423Y008426D01*
X035423Y008766D01*
X035542Y008885D01*
X035483Y008795D02*
X035452Y008795D01*
X035423Y008677D02*
X035483Y008677D01*
X035483Y008558D02*
X035423Y008558D01*
X035423Y008440D02*
X035483Y008440D01*
X035983Y008585D02*
X035983Y008665D01*
X036403Y008665D01*
X036403Y008816D01*
X036333Y008885D01*
X036343Y008885D01*
X036724Y008504D01*
X036812Y008468D01*
X037563Y008468D01*
X037567Y008464D01*
X037563Y008459D01*
X036490Y008459D01*
X036401Y008423D01*
X036343Y008365D01*
X036333Y008365D01*
X036403Y008434D01*
X036403Y008585D01*
X035983Y008585D01*
X036403Y008558D02*
X036670Y008558D01*
X036552Y008677D02*
X036403Y008677D01*
X036403Y008795D02*
X036433Y008795D01*
X036441Y008440D02*
X036403Y008440D01*
X036623Y007966D02*
X036987Y007966D01*
X036825Y007847D02*
X036371Y007847D01*
X036403Y007729D02*
X036707Y007729D01*
X035514Y007847D02*
X035504Y007847D01*
X035483Y007729D02*
X035423Y007729D01*
X037283Y009625D02*
X037354Y009625D01*
X037401Y009506D02*
X037472Y009506D01*
X037498Y009481D02*
X037558Y009456D01*
X037558Y009449D01*
X037567Y009440D01*
X037563Y009436D01*
X037471Y009436D01*
X036646Y010261D01*
X036579Y010328D01*
X036491Y010365D01*
X036333Y010365D01*
X036403Y010434D01*
X036403Y010585D01*
X035983Y010585D01*
X035983Y010665D01*
X036403Y010665D01*
X036403Y010816D01*
X036333Y010885D01*
X036343Y010885D01*
X036703Y010526D01*
X036703Y010327D01*
X036739Y010239D01*
X036807Y010172D01*
X037498Y009481D01*
X037634Y009684D02*
X036943Y010375D01*
X036943Y010625D01*
X036443Y011125D01*
X035443Y011125D01*
X034943Y010625D01*
X032943Y010625D01*
X035338Y010341D02*
X035423Y010426D01*
X035423Y010766D01*
X035542Y010885D01*
X035552Y010885D01*
X035483Y010816D01*
X035483Y010665D01*
X035903Y010665D01*
X035903Y010585D01*
X035483Y010585D01*
X035483Y010434D01*
X035552Y010365D01*
X035395Y010365D01*
X035338Y010341D01*
X035423Y010454D02*
X035483Y010454D01*
X035483Y010573D02*
X035423Y010573D01*
X035423Y010691D02*
X035483Y010691D01*
X035483Y010810D02*
X035467Y010810D01*
X035515Y011402D02*
X035399Y011402D01*
X035423Y011521D02*
X035483Y011521D01*
X035903Y011758D02*
X035983Y011758D01*
X035983Y011876D02*
X035903Y011876D01*
X035903Y011995D02*
X035983Y011995D01*
X036219Y012232D02*
X031636Y012232D01*
X027443Y012750D02*
X026068Y011375D01*
X024527Y011375D01*
X024867Y011047D02*
X025940Y011047D01*
X025943Y009040D02*
X025943Y008500D01*
X025943Y007960D01*
X026443Y008250D02*
X026193Y008500D01*
X025943Y008500D01*
X026443Y008250D02*
X026443Y004125D01*
X025943Y003625D01*
X025943Y001500D01*
X026418Y001211D02*
X026467Y001211D01*
X026573Y001093D02*
X026313Y001093D01*
X026110Y000974D02*
X026775Y000974D01*
X025775Y000974D02*
X025110Y000974D01*
X025313Y001093D02*
X025573Y001093D01*
X025467Y001211D02*
X025418Y001211D01*
X024943Y001500D02*
X024943Y003625D01*
X025443Y004125D01*
X025443Y008250D01*
X025193Y008500D01*
X024943Y008500D01*
X024943Y009040D01*
X024943Y008500D02*
X024943Y007960D01*
X025904Y007252D02*
X025981Y007252D01*
X025981Y006934D01*
X026180Y006934D01*
X026203Y006940D01*
X026203Y005016D01*
X026133Y005085D01*
X025983Y005085D01*
X025983Y004665D01*
X025903Y004665D01*
X025903Y005085D01*
X025752Y005085D01*
X025683Y005016D01*
X025683Y006940D01*
X025705Y006934D01*
X025904Y006934D01*
X025904Y007252D01*
X025943Y007290D02*
X025943Y006750D01*
X025683Y006781D02*
X026203Y006781D01*
X026203Y006899D02*
X025683Y006899D01*
X025683Y006662D02*
X026203Y006662D01*
X026203Y006544D02*
X025683Y006544D01*
X025683Y006425D02*
X026203Y006425D01*
X026203Y006307D02*
X025683Y006307D01*
X025683Y006188D02*
X026203Y006188D01*
X026203Y006070D02*
X025683Y006070D01*
X025683Y005951D02*
X026203Y005951D01*
X026203Y005833D02*
X025683Y005833D01*
X025683Y005714D02*
X026203Y005714D01*
X026203Y005596D02*
X025683Y005596D01*
X025683Y005477D02*
X026203Y005477D01*
X026203Y005359D02*
X025683Y005359D01*
X025683Y005240D02*
X026203Y005240D01*
X026203Y005122D02*
X025683Y005122D01*
X025903Y005003D02*
X025983Y005003D01*
X025983Y004885D02*
X025903Y004885D01*
X025903Y004766D02*
X025983Y004766D01*
X025983Y004585D02*
X025983Y004165D01*
X026133Y004165D01*
X026203Y004234D01*
X026203Y004224D01*
X026083Y004105D01*
X025744Y004105D01*
X025659Y004020D01*
X025683Y004077D01*
X025683Y004234D01*
X025752Y004165D01*
X025903Y004165D01*
X025903Y004585D01*
X025983Y004585D01*
X025983Y004529D02*
X025903Y004529D01*
X025903Y004411D02*
X025983Y004411D01*
X025983Y004292D02*
X025903Y004292D01*
X025903Y004174D02*
X025983Y004174D01*
X026142Y004174D02*
X026152Y004174D01*
X025744Y004174D02*
X025683Y004174D01*
X025674Y004055D02*
X025694Y004055D01*
X025152Y004174D02*
X025142Y004174D01*
X024983Y004174D02*
X024903Y004174D01*
X024903Y004292D02*
X024983Y004292D01*
X024983Y004411D02*
X024903Y004411D01*
X024903Y004529D02*
X024983Y004529D01*
X024903Y004648D02*
X017328Y004648D01*
X023299Y001922D02*
X024587Y001922D01*
X024473Y001804D02*
X023412Y001804D01*
X023462Y001685D02*
X024424Y001685D01*
X024393Y001567D02*
X023493Y001567D01*
X023493Y001448D02*
X024393Y001448D01*
X024418Y001330D02*
X023468Y001330D01*
X023418Y001211D02*
X024467Y001211D01*
X024573Y001093D02*
X023313Y001093D01*
X023110Y000974D02*
X024775Y000974D01*
X024703Y002515D02*
X024255Y002515D01*
X024343Y002633D02*
X024703Y002633D01*
X024703Y002752D02*
X024367Y002752D01*
X024342Y002870D02*
X024703Y002870D01*
X024703Y002989D02*
X024252Y002989D01*
X026659Y004020D02*
X026683Y004077D01*
X026683Y004234D01*
X026752Y004165D01*
X026903Y004165D01*
X026903Y004585D01*
X026983Y004585D01*
X026983Y004165D01*
X027133Y004165D01*
X027203Y004234D01*
X027203Y004224D01*
X027083Y004105D01*
X026744Y004105D01*
X026659Y004020D01*
X026674Y004055D02*
X026694Y004055D01*
X026683Y004174D02*
X026744Y004174D01*
X026903Y004174D02*
X026983Y004174D01*
X026983Y004292D02*
X026903Y004292D01*
X026903Y004411D02*
X026983Y004411D01*
X026983Y004529D02*
X026903Y004529D01*
X026903Y004665D02*
X026903Y005085D01*
X026752Y005085D01*
X026683Y005016D01*
X026683Y006940D01*
X026705Y006934D01*
X026904Y006934D01*
X026904Y007252D01*
X026981Y007252D01*
X026981Y006934D01*
X027180Y006934D01*
X027203Y006940D01*
X027203Y005016D01*
X027133Y005085D01*
X026983Y005085D01*
X026983Y004665D01*
X026903Y004665D01*
X026903Y004766D02*
X026983Y004766D01*
X026983Y004885D02*
X026903Y004885D01*
X026903Y005003D02*
X026983Y005003D01*
X027203Y005122D02*
X026683Y005122D01*
X026683Y005240D02*
X027203Y005240D01*
X027203Y005359D02*
X026683Y005359D01*
X026683Y005477D02*
X027203Y005477D01*
X027203Y005596D02*
X026683Y005596D01*
X026683Y005714D02*
X027203Y005714D01*
X027203Y005833D02*
X026683Y005833D01*
X026683Y005951D02*
X027203Y005951D01*
X027203Y006070D02*
X026683Y006070D01*
X026683Y006188D02*
X027203Y006188D01*
X027203Y006307D02*
X026683Y006307D01*
X026683Y006425D02*
X027203Y006425D01*
X027203Y006544D02*
X026683Y006544D01*
X026683Y006662D02*
X027203Y006662D01*
X027203Y006781D02*
X026683Y006781D01*
X026683Y006899D02*
X027203Y006899D01*
X026981Y007018D02*
X026904Y007018D01*
X026904Y007136D02*
X026981Y007136D01*
X026943Y007290D02*
X026943Y006750D01*
X027683Y006781D02*
X028203Y006781D01*
X028203Y006899D02*
X027683Y006899D01*
X027683Y006940D02*
X027705Y006934D01*
X027904Y006934D01*
X027904Y007252D01*
X027981Y007252D01*
X027981Y006934D01*
X028180Y006934D01*
X028203Y006940D01*
X028203Y005016D01*
X028133Y005085D01*
X027983Y005085D01*
X027983Y004665D01*
X027903Y004665D01*
X027903Y005085D01*
X027752Y005085D01*
X027683Y005016D01*
X027683Y006940D01*
X027904Y007018D02*
X027981Y007018D01*
X027981Y007136D02*
X027904Y007136D01*
X027943Y007290D02*
X028027Y007375D01*
X027943Y006750D01*
X027683Y006662D02*
X028203Y006662D01*
X028203Y006544D02*
X027683Y006544D01*
X027683Y006425D02*
X028203Y006425D01*
X028203Y006307D02*
X027683Y006307D01*
X027683Y006188D02*
X028203Y006188D01*
X028203Y006070D02*
X027683Y006070D01*
X027683Y005951D02*
X028203Y005951D01*
X028203Y005833D02*
X027683Y005833D01*
X027683Y005714D02*
X028203Y005714D01*
X028203Y005596D02*
X027683Y005596D01*
X027683Y005477D02*
X028203Y005477D01*
X028203Y005359D02*
X027683Y005359D01*
X027683Y005240D02*
X028203Y005240D01*
X028203Y005122D02*
X027683Y005122D01*
X027903Y005003D02*
X027983Y005003D01*
X027983Y004885D02*
X027903Y004885D01*
X027903Y004766D02*
X027983Y004766D01*
X027983Y004585D02*
X027903Y004585D01*
X027903Y004165D01*
X027752Y004165D01*
X027683Y004234D01*
X027683Y004077D01*
X027659Y004020D01*
X027744Y004105D01*
X028083Y004105D01*
X028203Y004224D01*
X028203Y004234D01*
X028133Y004165D01*
X027983Y004165D01*
X027983Y004585D01*
X027983Y004529D02*
X027903Y004529D01*
X027903Y004411D02*
X027983Y004411D01*
X027983Y004292D02*
X027903Y004292D01*
X027903Y004174D02*
X027983Y004174D01*
X028142Y004174D02*
X028152Y004174D01*
X027744Y004174D02*
X027683Y004174D01*
X027674Y004055D02*
X027694Y004055D01*
X027152Y004174D02*
X027142Y004174D01*
X028659Y004020D02*
X028683Y004077D01*
X028683Y004234D01*
X028752Y004165D01*
X028903Y004165D01*
X028903Y004585D01*
X028983Y004585D01*
X028983Y004165D01*
X029133Y004165D01*
X029203Y004234D01*
X029203Y004224D01*
X029083Y004105D01*
X028744Y004105D01*
X028659Y004020D01*
X028674Y004055D02*
X028694Y004055D01*
X028683Y004174D02*
X028744Y004174D01*
X028903Y004174D02*
X028983Y004174D01*
X028983Y004292D02*
X028903Y004292D01*
X028903Y004411D02*
X028983Y004411D01*
X028983Y004529D02*
X028903Y004529D01*
X028903Y004665D02*
X028903Y005085D01*
X028752Y005085D01*
X028683Y005016D01*
X028683Y006940D01*
X028705Y006934D01*
X028904Y006934D01*
X028904Y007252D01*
X028981Y007252D01*
X028981Y006934D01*
X029180Y006934D01*
X029203Y006940D01*
X029203Y005016D01*
X029133Y005085D01*
X028983Y005085D01*
X028983Y004665D01*
X028903Y004665D01*
X028903Y004766D02*
X028983Y004766D01*
X028983Y004885D02*
X028903Y004885D01*
X028903Y005003D02*
X028983Y005003D01*
X029203Y005122D02*
X028683Y005122D01*
X028683Y005240D02*
X029203Y005240D01*
X029203Y005359D02*
X028683Y005359D01*
X028683Y005477D02*
X029203Y005477D01*
X029203Y005596D02*
X028683Y005596D01*
X028683Y005714D02*
X029203Y005714D01*
X029203Y005833D02*
X028683Y005833D01*
X028683Y005951D02*
X029203Y005951D01*
X029203Y006070D02*
X028683Y006070D01*
X028683Y006188D02*
X029203Y006188D01*
X029203Y006307D02*
X028683Y006307D01*
X028683Y006425D02*
X029203Y006425D01*
X029203Y006544D02*
X028683Y006544D01*
X028683Y006662D02*
X029203Y006662D01*
X029203Y006781D02*
X028683Y006781D01*
X028683Y006899D02*
X029203Y006899D01*
X028981Y007018D02*
X028904Y007018D01*
X028904Y007136D02*
X028981Y007136D01*
X028943Y007290D02*
X028943Y006750D01*
X030683Y005359D02*
X034531Y005359D01*
X034524Y004885D02*
X032334Y004885D01*
X031983Y004885D02*
X031903Y004885D01*
X031903Y005003D02*
X031983Y005003D01*
X031983Y004766D02*
X031903Y004766D01*
X031903Y004529D02*
X031983Y004529D01*
X031983Y004411D02*
X031903Y004411D01*
X031903Y004292D02*
X031983Y004292D01*
X031983Y004174D02*
X031903Y004174D01*
X032423Y003818D02*
X036268Y003818D01*
X036150Y003700D02*
X032423Y003700D01*
X032423Y003581D02*
X036031Y003581D01*
X035913Y003463D02*
X032423Y003463D01*
X032341Y003344D02*
X035794Y003344D01*
X035676Y003226D02*
X032222Y003226D01*
X032183Y003107D02*
X035557Y003107D01*
X035937Y002752D02*
X043675Y002752D01*
X043675Y002870D02*
X036056Y002870D01*
X035819Y002633D02*
X043675Y002633D01*
X043675Y002515D02*
X035679Y002515D01*
X036075Y002041D02*
X036811Y002041D01*
X036587Y001922D02*
X036299Y001922D01*
X036412Y001804D02*
X036473Y001804D01*
X036467Y001211D02*
X036418Y001211D01*
X036313Y001093D02*
X036573Y001093D01*
X036775Y000974D02*
X036110Y000974D01*
X037110Y000974D02*
X037775Y000974D01*
X037573Y001093D02*
X037313Y001093D01*
X037418Y001211D02*
X037467Y001211D01*
X038110Y000974D02*
X038775Y000974D01*
X038573Y001093D02*
X038313Y001093D01*
X038418Y001211D02*
X038467Y001211D01*
X039110Y000974D02*
X039775Y000974D01*
X039573Y001093D02*
X039313Y001093D01*
X039418Y001211D02*
X039467Y001211D01*
X040110Y000974D02*
X040775Y000974D01*
X040573Y001093D02*
X040313Y001093D01*
X040418Y001211D02*
X040467Y001211D01*
X040473Y001804D02*
X040412Y001804D01*
X040299Y001922D02*
X040587Y001922D01*
X040811Y002041D02*
X040075Y002041D01*
X039811Y002041D02*
X039075Y002041D01*
X039299Y001922D02*
X039587Y001922D01*
X039473Y001804D02*
X039412Y001804D01*
X038811Y002041D02*
X038075Y002041D01*
X038299Y001922D02*
X038587Y001922D01*
X038473Y001804D02*
X038412Y001804D01*
X037811Y002041D02*
X037075Y002041D01*
X037299Y001922D02*
X037587Y001922D01*
X037473Y001804D02*
X037412Y001804D01*
X038048Y003581D02*
X038088Y003581D01*
X038088Y003700D02*
X038048Y003700D01*
X037578Y003937D02*
X037122Y003937D01*
X036742Y004292D02*
X036260Y004292D01*
X036142Y004174D02*
X036624Y004174D01*
X036861Y004411D02*
X036379Y004411D01*
X036403Y004529D02*
X036979Y004529D01*
X035983Y004529D02*
X035903Y004529D01*
X035903Y004411D02*
X035983Y004411D01*
X035983Y004292D02*
X035903Y004292D01*
X035903Y004174D02*
X035983Y004174D01*
X035744Y004174D02*
X035170Y004174D01*
X035289Y004292D02*
X035625Y004292D01*
X035507Y004411D02*
X035407Y004411D01*
X035423Y004529D02*
X035483Y004529D01*
X035903Y004766D02*
X035983Y004766D01*
X035983Y004885D02*
X035903Y004885D01*
X035903Y005003D02*
X035983Y005003D01*
X035983Y005240D02*
X035903Y005240D01*
X035903Y005359D02*
X035983Y005359D01*
X035983Y005477D02*
X035903Y005477D01*
X036327Y005359D02*
X037558Y005359D01*
X037558Y005477D02*
X036403Y005477D01*
X035483Y005714D02*
X035423Y005714D01*
X035490Y005833D02*
X035500Y005833D01*
X038818Y006750D02*
X039568Y007500D01*
X041943Y007500D01*
X042443Y007000D02*
X039693Y007000D01*
X038943Y006250D01*
X042443Y006000D02*
X042943Y006500D01*
X042443Y007000D02*
X042943Y007500D01*
X041396Y009269D02*
X038578Y009269D01*
X038578Y009388D02*
X041393Y009388D01*
X041393Y009506D02*
X038578Y009506D01*
X038578Y009625D02*
X041393Y009625D01*
X041408Y009743D02*
X038578Y009743D01*
X038578Y009862D02*
X041527Y009862D01*
X041645Y009980D02*
X039387Y009980D01*
X039506Y010099D02*
X041567Y010099D01*
X041448Y010217D02*
X039624Y010217D01*
X039743Y010336D02*
X041393Y010336D01*
X041393Y010454D02*
X039861Y010454D01*
X039980Y010573D02*
X041393Y010573D01*
X041393Y010691D02*
X040098Y010691D01*
X040217Y010810D02*
X041475Y010810D01*
X041593Y010928D02*
X040335Y010928D01*
X040420Y011047D02*
X041619Y011047D01*
X041500Y011165D02*
X040433Y011165D01*
X040433Y011284D02*
X041393Y011284D01*
X041393Y011402D02*
X040433Y011402D01*
X040433Y011521D02*
X041393Y011521D01*
X041393Y011639D02*
X040433Y011639D01*
X040433Y011758D02*
X041423Y011758D01*
X041541Y011876D02*
X040433Y011876D01*
X040433Y011995D02*
X041660Y011995D01*
X041552Y012113D02*
X040433Y012113D01*
X040514Y012232D02*
X041434Y012232D01*
X041393Y012350D02*
X040632Y012350D01*
X040751Y012469D02*
X041393Y012469D01*
X041393Y012587D02*
X040869Y012587D01*
X040988Y012706D02*
X041393Y012706D01*
X041489Y012824D02*
X041106Y012824D01*
X041225Y012943D02*
X041608Y012943D01*
X041604Y013061D02*
X041343Y013061D01*
X041462Y013180D02*
X041486Y013180D01*
X041443Y013500D02*
X040193Y012250D01*
X040193Y011125D01*
X039193Y010125D01*
X038115Y010125D01*
X038068Y010172D01*
X038068Y009684D02*
X037634Y009684D01*
X037235Y009743D02*
X037164Y009743D01*
X037117Y009862D02*
X037046Y009862D01*
X036998Y009980D02*
X036927Y009980D01*
X036880Y010099D02*
X036809Y010099D01*
X036761Y010217D02*
X036690Y010217D01*
X036703Y010336D02*
X036562Y010336D01*
X036703Y010454D02*
X036403Y010454D01*
X036403Y010573D02*
X036656Y010573D01*
X036537Y010691D02*
X036403Y010691D01*
X036403Y010810D02*
X036419Y010810D01*
X036742Y011165D02*
X037558Y011165D01*
X037558Y011047D02*
X036861Y011047D01*
X036979Y010928D02*
X037558Y010928D01*
X037558Y010810D02*
X037098Y010810D01*
X037175Y010691D02*
X037558Y010691D01*
X037558Y010573D02*
X037183Y010573D01*
X037203Y010454D02*
X037558Y010454D01*
X037558Y010336D02*
X037322Y010336D01*
X037440Y010217D02*
X037558Y010217D01*
X038068Y010660D02*
X038103Y010625D01*
X038943Y010625D01*
X039693Y011375D01*
X039693Y012750D01*
X039943Y013000D01*
X040318Y013000D01*
X041443Y013500D02*
X041943Y013500D01*
X038466Y011149D02*
X038068Y011149D01*
X037558Y011284D02*
X036624Y011284D01*
X036370Y011402D02*
X037068Y011402D01*
X036930Y011521D02*
X036403Y011521D01*
X036357Y009862D02*
X036367Y009862D01*
X036403Y009743D02*
X036485Y009743D01*
X029152Y004174D02*
X029142Y004174D01*
X032183Y002989D02*
X032508Y002989D01*
X032419Y002870D02*
X032183Y002870D01*
X032183Y002752D02*
X032394Y002752D01*
X032418Y002633D02*
X032183Y002633D01*
X032183Y002515D02*
X032505Y002515D01*
X032183Y002396D02*
X043675Y002396D01*
X043675Y002278D02*
X032183Y002278D01*
X032299Y001922D02*
X033587Y001922D01*
X033473Y001804D02*
X032412Y001804D01*
X032462Y001685D02*
X033424Y001685D01*
X033393Y001567D02*
X032493Y001567D01*
X032493Y001448D02*
X033393Y001448D01*
X033418Y001330D02*
X032468Y001330D01*
X032418Y001211D02*
X033467Y001211D01*
X033573Y001093D02*
X032313Y001093D01*
X024983Y004766D02*
X024903Y004766D01*
X024903Y004885D02*
X024983Y004885D01*
X024983Y005003D02*
X024903Y005003D01*
X025904Y007018D02*
X025981Y007018D01*
X025981Y007136D02*
X025904Y007136D01*
X012808Y014365D02*
X012516Y014365D01*
X012538Y015076D02*
X012797Y015076D01*
X012797Y015194D02*
X012538Y015194D01*
X012538Y015313D02*
X012865Y015313D01*
X012973Y015431D02*
X012470Y015431D01*
X012537Y018038D02*
X012153Y018038D01*
X012034Y018157D02*
X012419Y018157D01*
X012300Y018275D02*
X011916Y018275D01*
X011797Y018394D02*
X012182Y018394D01*
X012063Y018512D02*
X011679Y018512D01*
X011560Y018631D02*
X011945Y018631D01*
X011826Y018749D02*
X011442Y018749D01*
X011323Y018868D02*
X011708Y018868D01*
X011589Y018986D02*
X011205Y018986D01*
X011073Y019105D02*
X011471Y019105D01*
X014572Y021001D02*
X015168Y021001D01*
X015303Y021001D02*
X015383Y021001D01*
X015383Y020882D02*
X015303Y020882D01*
X015303Y020764D02*
X015383Y020764D01*
X015383Y020645D02*
X015303Y020645D01*
X014975Y020882D02*
X014739Y020882D01*
X014829Y020764D02*
X014882Y020764D01*
X015517Y021001D02*
X016114Y021001D01*
X015947Y020882D02*
X015710Y020882D01*
X015803Y020764D02*
X015857Y020764D01*
X019485Y019697D02*
X031217Y019697D01*
X031152Y019579D02*
X019604Y019579D01*
X019722Y019460D02*
X031144Y019460D01*
X031185Y019342D02*
X019841Y019342D01*
X019959Y019223D02*
X031203Y019223D01*
X031203Y019105D02*
X020078Y019105D01*
X020196Y018986D02*
X031203Y018986D01*
X031203Y018868D02*
X020315Y018868D01*
X020433Y018749D02*
X031203Y018749D01*
X031203Y018631D02*
X020552Y018631D01*
X020670Y018512D02*
X031203Y018512D01*
X031203Y018394D02*
X020789Y018394D01*
X020907Y018275D02*
X031203Y018275D01*
X031203Y018157D02*
X021026Y018157D01*
X021144Y018038D02*
X031203Y018038D01*
X031997Y017090D02*
X032193Y017090D01*
X032075Y016972D02*
X031879Y016972D01*
X031956Y016853D02*
X031760Y016853D01*
X028579Y015787D02*
X028057Y015787D01*
X027612Y020053D02*
X027273Y020053D01*
X027392Y020171D02*
X027494Y020171D01*
X026612Y020053D02*
X026273Y020053D01*
X026392Y020171D02*
X026494Y020171D01*
X023612Y020053D02*
X023273Y020053D01*
X023392Y020171D02*
X023494Y020171D01*
X020012Y020053D02*
X019673Y020053D01*
X019792Y020171D02*
X019894Y020171D01*
X032273Y020053D02*
X032612Y020053D01*
X032494Y020171D02*
X032392Y020171D01*
X033273Y020053D02*
X033612Y020053D01*
X033494Y020171D02*
X033392Y020171D01*
X038273Y020053D02*
X038612Y020053D01*
X038494Y020171D02*
X038392Y020171D01*
X038286Y017683D02*
X038183Y017683D01*
X006873Y009862D02*
X006763Y009862D01*
X005513Y018631D02*
X005243Y018631D01*
X005243Y018749D02*
X005513Y018749D01*
X005513Y018868D02*
X005243Y018868D01*
X005243Y018986D02*
X005513Y018986D01*
X005513Y019105D02*
X005243Y019105D01*
X005243Y019223D02*
X005536Y019223D01*
X005610Y019579D02*
X005243Y019579D01*
X005243Y019697D02*
X005513Y019697D01*
X005513Y019816D02*
X005243Y019816D01*
X005243Y019934D02*
X005513Y019934D01*
X005513Y020053D02*
X005243Y020053D01*
X005243Y020171D02*
X005513Y020171D01*
X005513Y020290D02*
X005243Y020290D01*
X005243Y020408D02*
X005596Y020408D01*
D31*
X016693Y013875D03*
X016693Y012000D03*
X037318Y012750D03*
X038068Y012750D03*
X040568Y014750D03*
X040818Y011000D03*
X039193Y009500D03*
X040693Y008375D03*
X039193Y008250D03*
X038818Y003125D03*
X038193Y003125D03*
X037568Y003125D03*
D32*
X037132Y004314D02*
X035568Y002750D01*
X032693Y002750D01*
X037132Y004314D02*
X038068Y004314D01*
X038068Y011637D02*
X037181Y011637D01*
X035693Y013125D01*
X027193Y013125D01*
X026068Y012000D01*
X016693Y012000D01*
X015818Y010250D02*
X013443Y010250D01*
X013443Y009250D02*
X015818Y009250D01*
X015818Y008250D02*
X013443Y008250D01*
X013443Y007250D02*
X015818Y007250D01*
X017068Y005375D02*
X017068Y003125D01*
X014943Y003125D01*
X013943Y003125D02*
X007443Y003125D01*
X005568Y005000D01*
X005568Y015250D01*
X006068Y015750D01*
X007443Y015750D01*
X007943Y016250D01*
X007943Y018750D01*
X007818Y018875D01*
X010948Y018875D01*
X012318Y017505D01*
X012318Y016745D02*
X013063Y016000D01*
X013233Y016000D01*
X013233Y014875D01*
X013068Y014710D01*
X011716Y014710D01*
X011551Y014875D01*
X013068Y014710D02*
X013068Y014125D01*
X013902Y016000D02*
X016027Y013875D01*
X016693Y013875D01*
X013902Y016000D02*
X013818Y016085D01*
X013818Y017125D01*
X010943Y020000D01*
X006193Y020000D01*
X006193Y018875D02*
X007818Y018875D01*
X019527Y010625D02*
X019528Y010624D01*
X020385Y010624D01*
X019193Y003125D02*
X017068Y003125D01*
X019193Y003125D02*
X019568Y002750D01*
X024068Y002750D01*
D33*
X024068Y002750D03*
X032693Y002750D03*
X021943Y011375D03*
X018818Y011500D03*
X013068Y014125D03*
X029318Y017375D03*
X030068Y017000D03*
X033693Y016125D03*
X037443Y017250D03*
X037943Y017500D03*
X039693Y015125D03*
X040318Y013000D03*
X035193Y012625D03*
X031443Y019500D03*
X014943Y003125D03*
X013943Y003125D03*
M02*
