%
M48
M72
T01C0.0118
T02C0.0197
T03C0.0276
T04C0.0354
T05C0.0360
T06C0.0400
%
T01
X13943Y3125
X14943Y3125
X24068Y2750
X32693Y2750
X21943Y11375
X18818Y11500
X13068Y14125
X29318Y17375
X30068Y17000
X33693Y16125
X37443Y17250
X37943Y17500
X39693Y15125
X40318Y13000
X35193Y12625
X31443Y19500
T02
X29943Y6750
X28943Y6750
X27943Y6750
X26943Y6750
X25943Y6750
X24943Y6750
X6693Y17000
X6193Y17000
X5693Y17000
T03
X16693Y13875
X16693Y12000
X37318Y12750
X38068Y12750
X40568Y14750
X40818Y11000
X39193Y9500
X40693Y8375
X39193Y8250
X38818Y3125
X38193Y3125
X37568Y3125
T04
X8443Y5250
X8443Y6250
X8443Y7250
X8443Y8250
X8443Y9250
X8443Y10250
X8443Y11250
X8443Y12250
X13443Y12250
X13443Y11250
X13443Y10250
X13443Y9250
X13443Y8250
X13443Y7250
X13443Y6250
X13443Y5250
T05
X18818Y14375
X19818Y14375
X20818Y14375
X21818Y14375
X22818Y14375
X23818Y14375
X24818Y14375
X25818Y14375
X26818Y14375
X27818Y14375
X28818Y14375
X29818Y14375
X30818Y14375
X31818Y14375
X32818Y14375
X33818Y14375
X34818Y14375
X35818Y14375
X36818Y14375
X37818Y14375
X37818Y15375
X36818Y15375
X35818Y15375
X34818Y15375
X33818Y15375
X32818Y15375
X31818Y15375
X30818Y15375
X29818Y15375
X28818Y15375
X27818Y15375
X26818Y15375
X25818Y15375
X24818Y15375
X23818Y15375
X22818Y15375
X21818Y15375
X20818Y15375
X19818Y15375
X18818Y15375
T06
X15818Y10250
X15818Y9250
X15818Y8250
X15818Y7250
X24943Y4625
X25943Y4625
X26943Y4625
X27943Y4625
X28943Y4625
X29943Y4625
X30943Y4625
X31943Y4625
X31943Y3625
X30943Y3625
X29943Y3625
X28943Y3625
X27943Y3625
X26943Y3625
X25943Y3625
X24943Y3625
X24943Y1500
X25943Y1500
X26943Y1500
X27943Y1500
X28943Y1500
X29943Y1500
X30943Y1500
X31943Y1500
X33943Y1500
X34943Y1500
X35943Y1500
X36943Y1500
X37943Y1500
X38943Y1500
X39943Y1500
X40943Y1500
X41943Y3500
X42943Y3500
X42943Y4500
X41943Y4500
X41943Y5500
X42943Y5500
X42943Y6500
X41943Y6500
X41943Y7500
X42943Y7500
X42943Y8500
X41943Y8500
X41943Y9500
X42943Y9500
X42943Y10500
X41943Y10500
X41943Y11500
X42943Y11500
X42943Y12500
X41943Y12500
X41943Y13500
X42943Y13500
X42943Y14500
X41943Y14500
X41943Y15500
X42943Y15500
X42943Y16500
X41943Y16500
X41943Y17500
X42943Y17500
X42943Y18500
X41943Y18500
X41943Y19500
X42943Y19500
X42943Y20500
X41943Y20500
X38943Y20500
X37943Y20500
X36943Y20500
X35943Y20500
X34943Y20500
X33943Y20500
X32943Y20500
X31943Y20500
X29943Y20500
X28943Y20500
X27943Y20500
X26943Y20500
X25943Y20500
X24943Y20500
X23943Y20500
X22943Y20500
X21343Y20500
X20343Y20500
X19343Y20500
X18343Y20500
X17343Y20500
X16343Y20500
X15343Y20500
X14343Y20500
X13343Y20500
X12343Y20500
X34943Y11625
X35943Y11625
X35943Y10625
X34943Y10625
X34943Y9625
X35943Y9625
X35943Y8625
X34943Y8625
X34943Y7625
X35943Y7625
X35943Y6625
X34943Y6625
X34943Y5625
X35943Y5625
X35943Y4625
X34943Y4625
X22943Y1500
X21943Y1500
X20943Y1500
X19943Y1500
X18943Y1500
X17943Y1500
X16943Y1500
X15943Y1500
M30
