G75*
%MOIN*%
%OFA0B0*%
%FSLAX24Y24*%
%IPPOS*%
%LPD*%
%AMOC8*
5,1,8,0,0,1.08239X$1,22.5*
%
%ADD10C,0.0000*%
%ADD11C,0.0080*%
%ADD12R,0.0433X0.0394*%
%ADD13R,0.1000X0.0500*%
%ADD14R,0.0512X0.0591*%
%ADD15R,0.1614X0.0827*%
%ADD16R,0.0660X0.0320*%
%ADD17R,0.0394X0.0433*%
%ADD18R,0.0551X0.0394*%
%ADD19R,0.0500X0.1000*%
D10*
X004943Y000500D02*
X004943Y021495D01*
X043935Y021495D01*
X043935Y000500D01*
X004943Y000500D01*
D11*
X004943Y021500D01*
X042943Y021500D01*
X043943Y020500D01*
X043943Y016500D01*
X044943Y015500D01*
X044943Y002000D01*
X043943Y001000D01*
X043943Y000500D01*
X004943Y000500D01*
D12*
X024943Y007290D03*
X024943Y007960D03*
X025943Y007960D03*
X025943Y007290D03*
X026943Y007290D03*
X026943Y007960D03*
X027943Y007960D03*
X027943Y007290D03*
X028943Y007290D03*
X028943Y007960D03*
X029943Y007960D03*
X029943Y007290D03*
X029943Y009040D03*
X028943Y009040D03*
X028943Y009710D03*
X029943Y009710D03*
X027943Y009710D03*
X026943Y009710D03*
X025943Y009710D03*
X024943Y009710D03*
X024943Y009040D03*
X025943Y009040D03*
X026943Y009040D03*
X027943Y009040D03*
D13*
X006193Y017750D03*
X006193Y018875D03*
X006193Y020000D03*
D14*
X013233Y016000D03*
X013902Y016000D03*
X013902Y014875D03*
X013233Y014875D03*
D15*
X011551Y014875D03*
X008835Y014875D03*
D16*
X038068Y012125D03*
X038068Y011637D03*
X038068Y011149D03*
X038068Y010660D03*
X038068Y010172D03*
X038068Y009684D03*
X038068Y009196D03*
X038068Y008708D03*
X038068Y008219D03*
X038068Y007731D03*
X038068Y007243D03*
X038068Y006755D03*
X038068Y006267D03*
X038068Y005779D03*
X038068Y005290D03*
X038068Y004802D03*
X038068Y004314D03*
X038068Y003826D03*
D17*
X024527Y011375D03*
X023858Y011375D03*
X023152Y011375D03*
X022483Y011375D03*
X019527Y010625D03*
X018858Y010625D03*
X007152Y010250D03*
X006483Y010250D03*
X006483Y011250D03*
X007152Y011250D03*
X007152Y009250D03*
X006483Y009250D03*
D18*
X020385Y009876D03*
X021251Y010250D03*
X020385Y010624D03*
D19*
X020318Y005375D03*
X021318Y005375D03*
X018068Y005375D03*
X017068Y005375D03*
M02*
